  0
SECTION
  2
HEADER
  9
$ACADVER
  1
AC1009
  9
$INSBASE
 10
0.0
 20
0.0
 30
0.0
  9
$EXTMIN
 10
0.0
 20
0.0
 30
0.0
  9
$EXTMAX
 10
0.0
 20
0.0
 30
0.0
  0
ENDSEC
  0
SECTION
  2
TABLES
  0
TABLE
  2
VPORT
 70
0
  0
ENDTAB
  0
TABLE
  2
LTYPE
 70
1
  0
LTYPE
  2
CONTINUOUS
 70
0
  3
Solid line
 72
65
 73
0
 40
0.0
  0
ENDTAB
  0
TABLE
  2
LAYER
 70
1
  0
LAYER
  2
0
 70
64
 62
7
  6
continuous
  0
ENDTAB
  0
TABLE
  2
STYLE
 70
1
  0
STYLE
  2
STANDARD
 70
0
 40
0
 41
1.0
 50
0.0
 71
0
 42
1
 3
ARIAL.TTF
 4

  0
ENDTAB
  0
TABLE
  2
VIEW
 70
0
  0
ENDTAB
  0
ENDSEC
  0
SECTION
  2
BLOCKS
  0
BLOCK
  8
0
  2
BODY001
 70
0
 10
0.0
 20
0.0
 30
0.0
  3
BODY001
  0
LINE
  8
0
 62
0
 10
-12.474999999999998
 20
-9.975000000000001
 30
0.0
 11
-12.474999999999998
 21
67.125
 31
0.0
  0
ARC
  8
0
 62
0
 10
-9.974999999999998
 20
-9.975000000000001
 30
0.0
 40
2.5
 50
-180.0
 51
-90.0
  0
ARC
  8
0
 62
0
 10
-9.974999999999998
 20
67.125
 30
0.0
 40
2.5
 50
90.0
 51
-180.0
  0
LINE
  8
0
 62
0
 10
124.275
 20
-12.475000000000001
 30
0.0
 11
-9.974999999999994
 21
-12.475000000000001
 31
0.0
  0
LINE
  8
0
 62
0
 10
-9.974999999999998
 20
69.625
 30
0.0
 11
124.275
 21
69.62500000000001
 31
0.0
  0
ARC
  8
0
 62
0
 10
124.275
 20
-9.975000000000001
 30
0.0
 40
2.5
 50
-90.0
 51
-0.0
  0
ARC
  8
0
 62
0
 10
124.275
 20
67.12500000000001
 30
0.0
 40
2.5
 50
-0.0
 51
90.0
  0
LINE
  8
0
 62
0
 10
126.775
 20
67.12500000000001
 30
0.0
 11
126.775
 21
-9.975000000000009
 31
0.0
  0
LINE
  8
0
 62
0
 10
69.2
 20
26.05
 30
0.0
 11
83.2
 21
26.05
 31
0.0
  0
LINE
  8
0
 62
0
 10
69.2
 20
25.05
 30
0.0
 11
69.2
 21
26.05
 31
0.0
  0
LINE
  8
0
 62
0
 10
83.2
 20
26.05
 30
0.0
 11
83.2
 21
25.05
 31
0.0
  0
LINE
  8
0
 62
0
 10
68.4
 20
25.05
 30
0.0
 11
69.2
 21
25.05
 31
0.0
  0
LINE
  8
0
 62
0
 10
83.2
 20
25.05
 30
0.0
 11
84.0
 21
25.05
 31
0.0
  0
LINE
  8
0
 62
0
 10
68.4
 20
21.55
 30
0.0
 11
68.4
 21
25.05
 31
0.0
  0
LINE
  8
0
 62
0
 10
84.0
 20
25.05
 30
0.0
 11
84.0
 21
21.55
 31
0.0
  0
LINE
  8
0
 62
0
 10
69.2
 20
21.55
 30
0.0
 11
68.4
 21
21.55
 31
0.0
  0
LINE
  8
0
 62
0
 10
84.0
 20
21.55
 30
0.0
 11
83.2
 21
21.55
 31
0.0
  0
LINE
  8
0
 62
0
 10
69.2
 20
16.55
 30
0.0
 11
69.2
 21
21.55
 31
0.0
  0
LINE
  8
0
 62
0
 10
83.2
 20
21.55
 30
0.0
 11
83.2
 21
16.55
 31
0.0
  0
LINE
  8
0
 62
0
 10
68.4
 20
16.55
 30
0.0
 11
69.2
 21
16.55
 31
0.0
  0
LINE
  8
0
 62
0
 10
83.2
 20
16.55
 30
0.0
 11
84.0
 21
16.55
 31
0.0
  0
LINE
  8
0
 62
0
 10
68.4
 20
13.05
 30
0.0
 11
68.4
 21
16.55
 31
0.0
  0
LINE
  8
0
 62
0
 10
84.0
 20
16.55
 30
0.0
 11
84.0
 21
13.05
 31
0.0
  0
LINE
  8
0
 62
0
 10
69.2
 20
13.05
 30
0.0
 11
68.4
 21
13.05
 31
0.0
  0
LINE
  8
0
 62
0
 10
84.0
 20
13.05
 30
0.0
 11
83.2
 21
13.05
 31
0.0
  0
LINE
  8
0
 62
0
 10
69.2
 20
12.05
 30
0.0
 11
69.2
 21
13.05
 31
0.0
  0
LINE
  8
0
 62
0
 10
83.2
 20
13.05
 30
0.0
 11
83.2
 21
12.05
 31
0.0
  0
LINE
  8
0
 62
0
 10
83.2
 20
12.05
 30
0.0
 11
69.2
 21
12.05
 31
0.0
  0
LINE
  8
0
 62
0
 10
31.1
 20
26.05
 30
0.0
 11
45.1
 21
26.05
 31
0.0
  0
LINE
  8
0
 62
0
 10
31.1
 20
25.05
 30
0.0
 11
31.1
 21
26.05
 31
0.0
  0
LINE
  8
0
 62
0
 10
45.1
 20
26.05
 30
0.0
 11
45.1
 21
25.05
 31
0.0
  0
LINE
  8
0
 62
0
 10
30.3
 20
25.05
 30
0.0
 11
31.1
 21
25.05
 31
0.0
  0
LINE
  8
0
 62
0
 10
45.1
 20
25.05
 30
0.0
 11
45.900000000000006
 21
25.05
 31
0.0
  0
LINE
  8
0
 62
0
 10
30.3
 20
21.55
 30
0.0
 11
30.3
 21
25.05
 31
0.0
  0
LINE
  8
0
 62
0
 10
45.900000000000006
 20
25.05
 30
0.0
 11
45.900000000000006
 21
21.55
 31
0.0
  0
LINE
  8
0
 62
0
 10
31.1
 20
21.55
 30
0.0
 11
30.3
 21
21.55
 31
0.0
  0
LINE
  8
0
 62
0
 10
45.900000000000006
 20
21.55
 30
0.0
 11
45.10000000000001
 21
21.55
 31
0.0
  0
LINE
  8
0
 62
0
 10
31.1
 20
16.55
 30
0.0
 11
31.1
 21
21.55
 31
0.0
  0
LINE
  8
0
 62
0
 10
45.1
 20
21.55
 30
0.0
 11
45.1
 21
16.55
 31
0.0
  0
LINE
  8
0
 62
0
 10
30.3
 20
16.55
 30
0.0
 11
31.1
 21
16.55
 31
0.0
  0
LINE
  8
0
 62
0
 10
45.1
 20
16.55
 30
0.0
 11
45.900000000000006
 21
16.55
 31
0.0
  0
LINE
  8
0
 62
0
 10
30.3
 20
13.05
 30
0.0
 11
30.3
 21
16.55
 31
0.0
  0
LINE
  8
0
 62
0
 10
45.900000000000006
 20
16.55
 30
0.0
 11
45.900000000000006
 21
13.05
 31
0.0
  0
LINE
  8
0
 62
0
 10
31.1
 20
13.05
 30
0.0
 11
30.3
 21
13.05
 31
0.0
  0
LINE
  8
0
 62
0
 10
45.900000000000006
 20
13.05
 30
0.0
 11
45.10000000000001
 21
13.05
 31
0.0
  0
LINE
  8
0
 62
0
 10
31.1
 20
12.05
 30
0.0
 11
31.1
 21
13.05
 31
0.0
  0
LINE
  8
0
 62
0
 10
45.1
 20
13.05
 30
0.0
 11
45.1
 21
12.05
 31
0.0
  0
LINE
  8
0
 62
0
 10
45.1
 20
12.05
 30
0.0
 11
31.1
 21
12.05
 31
0.0
  0
LINE
  8
0
 62
0
 10
-7.000000000000001
 20
26.05
 30
0.0
 11
6.999999999999999
 21
26.05
 31
0.0
  0
LINE
  8
0
 62
0
 10
-7.000000000000001
 20
25.05
 30
0.0
 11
-7.000000000000001
 21
26.05
 31
0.0
  0
LINE
  8
0
 62
0
 10
6.999999999999999
 20
26.05
 30
0.0
 11
6.999999999999999
 21
25.05
 31
0.0
  0
LINE
  8
0
 62
0
 10
-7.800000000000001
 20
25.05
 30
0.0
 11
-7.000000000000001
 21
25.05
 31
0.0
  0
LINE
  8
0
 62
0
 10
6.999999999999999
 20
25.05
 30
0.0
 11
7.800000000000001
 21
25.05
 31
0.0
  0
LINE
  8
0
 62
0
 10
-7.800000000000001
 20
21.55
 30
0.0
 11
-7.800000000000001
 21
25.05
 31
0.0
  0
LINE
  8
0
 62
0
 10
7.800000000000001
 20
25.05
 30
0.0
 11
7.800000000000001
 21
21.55
 31
0.0
  0
LINE
  8
0
 62
0
 10
-7.000000000000001
 20
21.55
 30
0.0
 11
-7.800000000000001
 21
21.55
 31
0.0
  0
LINE
  8
0
 62
0
 10
7.800000000000001
 20
21.55
 30
0.0
 11
7.0
 21
21.55
 31
0.0
  0
LINE
  8
0
 62
0
 10
-7.000000000000001
 20
16.55
 30
0.0
 11
-7.000000000000001
 21
21.55
 31
0.0
  0
LINE
  8
0
 62
0
 10
7.0
 20
21.55
 30
0.0
 11
7.0
 21
16.55
 31
0.0
  0
LINE
  8
0
 62
0
 10
-7.800000000000001
 20
16.55
 30
0.0
 11
-7.000000000000001
 21
16.55
 31
0.0
  0
LINE
  8
0
 62
0
 10
7.0
 20
16.55
 30
0.0
 11
7.800000000000001
 21
16.55
 31
0.0
  0
LINE
  8
0
 62
0
 10
-7.800000000000001
 20
13.05
 30
0.0
 11
-7.800000000000001
 21
16.55
 31
0.0
  0
LINE
  8
0
 62
0
 10
7.800000000000001
 20
16.55
 30
0.0
 11
7.800000000000001
 21
13.05
 31
0.0
  0
LINE
  8
0
 62
0
 10
-7.000000000000001
 20
13.05
 30
0.0
 11
-7.800000000000001
 21
13.05
 31
0.0
  0
LINE
  8
0
 62
0
 10
7.800000000000001
 20
13.05
 30
0.0
 11
7.0
 21
13.05
 31
0.0
  0
LINE
  8
0
 62
0
 10
-7.000000000000001
 20
12.05
 30
0.0
 11
-7.000000000000001
 21
13.05
 31
0.0
  0
LINE
  8
0
 62
0
 10
7.0
 20
13.05
 30
0.0
 11
7.0
 21
12.05
 31
0.0
  0
LINE
  8
0
 62
0
 10
7.0
 20
12.05
 30
0.0
 11
-7.0
 21
12.05
 31
0.0
  0
LINE
  8
0
 62
0
 10
12.05
 20
26.05
 30
0.0
 11
26.05
 21
26.05
 31
0.0
  0
LINE
  8
0
 62
0
 10
12.05
 20
25.05
 30
0.0
 11
12.05
 21
26.05
 31
0.0
  0
LINE
  8
0
 62
0
 10
26.05
 20
26.05
 30
0.0
 11
26.05
 21
25.05
 31
0.0
  0
LINE
  8
0
 62
0
 10
11.25
 20
25.05
 30
0.0
 11
12.05
 21
25.05
 31
0.0
  0
LINE
  8
0
 62
0
 10
26.05
 20
25.05
 30
0.0
 11
26.85
 21
25.05
 31
0.0
  0
LINE
  8
0
 62
0
 10
11.25
 20
21.55
 30
0.0
 11
11.25
 21
25.05
 31
0.0
  0
LINE
  8
0
 62
0
 10
26.85
 20
25.05
 30
0.0
 11
26.85
 21
21.55
 31
0.0
  0
LINE
  8
0
 62
0
 10
12.05
 20
21.55
 30
0.0
 11
11.25
 21
21.55
 31
0.0
  0
LINE
  8
0
 62
0
 10
26.85
 20
21.55
 30
0.0
 11
26.05
 21
21.55
 31
0.0
  0
LINE
  8
0
 62
0
 10
12.05
 20
16.55
 30
0.0
 11
12.05
 21
21.55
 31
0.0
  0
LINE
  8
0
 62
0
 10
26.05
 20
21.55
 30
0.0
 11
26.05
 21
16.55
 31
0.0
  0
LINE
  8
0
 62
0
 10
11.25
 20
16.55
 30
0.0
 11
12.05
 21
16.55
 31
0.0
  0
LINE
  8
0
 62
0
 10
26.05
 20
16.55
 30
0.0
 11
26.85
 21
16.55
 31
0.0
  0
LINE
  8
0
 62
0
 10
11.25
 20
13.05
 30
0.0
 11
11.25
 21
16.55
 31
0.0
  0
LINE
  8
0
 62
0
 10
26.85
 20
16.55
 30
0.0
 11
26.85
 21
13.05
 31
0.0
  0
LINE
  8
0
 62
0
 10
12.05
 20
13.05
 30
0.0
 11
11.25
 21
13.05
 31
0.0
  0
LINE
  8
0
 62
0
 10
26.85
 20
13.05
 30
0.0
 11
26.05
 21
13.05
 31
0.0
  0
LINE
  8
0
 62
0
 10
12.05
 20
12.05
 30
0.0
 11
12.05
 21
13.05
 31
0.0
  0
LINE
  8
0
 62
0
 10
26.05
 20
13.05
 30
0.0
 11
26.05
 21
12.05
 31
0.0
  0
LINE
  8
0
 62
0
 10
26.05
 20
12.05
 30
0.0
 11
12.05
 21
12.05
 31
0.0
  0
LINE
  8
0
 62
0
 10
31.1
 20
45.1
 30
0.0
 11
45.1
 21
45.1
 31
0.0
  0
LINE
  8
0
 62
0
 10
31.1
 20
44.1
 30
0.0
 11
31.1
 21
45.1
 31
0.0
  0
LINE
  8
0
 62
0
 10
45.1
 20
45.1
 30
0.0
 11
45.1
 21
44.1
 31
0.0
  0
LINE
  8
0
 62
0
 10
30.3
 20
44.1
 30
0.0
 11
31.1
 21
44.1
 31
0.0
  0
LINE
  8
0
 62
0
 10
45.1
 20
44.1
 30
0.0
 11
45.900000000000006
 21
44.1
 31
0.0
  0
LINE
  8
0
 62
0
 10
30.3
 20
40.6
 30
0.0
 11
30.3
 21
44.1
 31
0.0
  0
LINE
  8
0
 62
0
 10
45.900000000000006
 20
44.1
 30
0.0
 11
45.900000000000006
 21
40.6
 31
0.0
  0
LINE
  8
0
 62
0
 10
31.1
 20
40.6
 30
0.0
 11
30.3
 21
40.6
 31
0.0
  0
LINE
  8
0
 62
0
 10
45.900000000000006
 20
40.6
 30
0.0
 11
45.10000000000001
 21
40.6
 31
0.0
  0
LINE
  8
0
 62
0
 10
31.1
 20
35.6
 30
0.0
 11
31.1
 21
40.6
 31
0.0
  0
LINE
  8
0
 62
0
 10
45.1
 20
40.6
 30
0.0
 11
45.1
 21
35.6
 31
0.0
  0
LINE
  8
0
 62
0
 10
30.3
 20
35.6
 30
0.0
 11
31.1
 21
35.6
 31
0.0
  0
LINE
  8
0
 62
0
 10
45.1
 20
35.6
 30
0.0
 11
45.900000000000006
 21
35.6
 31
0.0
  0
LINE
  8
0
 62
0
 10
30.3
 20
32.1
 30
0.0
 11
30.3
 21
35.6
 31
0.0
  0
LINE
  8
0
 62
0
 10
45.900000000000006
 20
35.6
 30
0.0
 11
45.900000000000006
 21
32.1
 31
0.0
  0
LINE
  8
0
 62
0
 10
31.1
 20
32.1
 30
0.0
 11
30.3
 21
32.1
 31
0.0
  0
LINE
  8
0
 62
0
 10
45.900000000000006
 20
32.1
 30
0.0
 11
45.10000000000001
 21
32.1
 31
0.0
  0
LINE
  8
0
 62
0
 10
31.1
 20
31.1
 30
0.0
 11
31.1
 21
32.1
 31
0.0
  0
LINE
  8
0
 62
0
 10
45.1
 20
32.1
 30
0.0
 11
45.1
 21
31.1
 31
0.0
  0
LINE
  8
0
 62
0
 10
45.1
 20
31.1
 30
0.0
 11
31.1
 21
31.1
 31
0.0
  0
LINE
  8
0
 62
0
 10
12.05
 20
45.1
 30
0.0
 11
26.05
 21
45.1
 31
0.0
  0
LINE
  8
0
 62
0
 10
12.05
 20
44.1
 30
0.0
 11
12.05
 21
45.1
 31
0.0
  0
LINE
  8
0
 62
0
 10
26.05
 20
45.1
 30
0.0
 11
26.05
 21
44.1
 31
0.0
  0
LINE
  8
0
 62
0
 10
11.25
 20
44.1
 30
0.0
 11
12.05
 21
44.1
 31
0.0
  0
LINE
  8
0
 62
0
 10
26.05
 20
44.1
 30
0.0
 11
26.85
 21
44.1
 31
0.0
  0
LINE
  8
0
 62
0
 10
11.25
 20
40.6
 30
0.0
 11
11.25
 21
44.1
 31
0.0
  0
LINE
  8
0
 62
0
 10
26.85
 20
44.1
 30
0.0
 11
26.85
 21
40.6
 31
0.0
  0
LINE
  8
0
 62
0
 10
12.05
 20
40.6
 30
0.0
 11
11.25
 21
40.6
 31
0.0
  0
LINE
  8
0
 62
0
 10
26.85
 20
40.6
 30
0.0
 11
26.05
 21
40.6
 31
0.0
  0
LINE
  8
0
 62
0
 10
12.05
 20
35.6
 30
0.0
 11
12.05
 21
40.6
 31
0.0
  0
LINE
  8
0
 62
0
 10
26.05
 20
40.6
 30
0.0
 11
26.05
 21
35.6
 31
0.0
  0
LINE
  8
0
 62
0
 10
11.25
 20
35.6
 30
0.0
 11
12.05
 21
35.6
 31
0.0
  0
LINE
  8
0
 62
0
 10
26.05
 20
35.6
 30
0.0
 11
26.85
 21
35.6
 31
0.0
  0
LINE
  8
0
 62
0
 10
11.25
 20
32.1
 30
0.0
 11
11.25
 21
35.6
 31
0.0
  0
LINE
  8
0
 62
0
 10
26.85
 20
35.6
 30
0.0
 11
26.85
 21
32.1
 31
0.0
  0
LINE
  8
0
 62
0
 10
12.05
 20
32.1
 30
0.0
 11
11.25
 21
32.1
 31
0.0
  0
LINE
  8
0
 62
0
 10
26.85
 20
32.1
 30
0.0
 11
26.05
 21
32.1
 31
0.0
  0
LINE
  8
0
 62
0
 10
12.05
 20
31.1
 30
0.0
 11
12.05
 21
32.1
 31
0.0
  0
LINE
  8
0
 62
0
 10
26.05
 20
32.1
 30
0.0
 11
26.05
 21
31.1
 31
0.0
  0
LINE
  8
0
 62
0
 10
26.05
 20
31.1
 30
0.0
 11
12.05
 21
31.1
 31
0.0
  0
LINE
  8
0
 62
0
 10
-7.000000000000001
 20
45.1
 30
0.0
 11
6.999999999999999
 21
45.1
 31
0.0
  0
LINE
  8
0
 62
0
 10
-7.000000000000001
 20
44.1
 30
0.0
 11
-7.000000000000001
 21
45.1
 31
0.0
  0
LINE
  8
0
 62
0
 10
6.999999999999999
 20
45.1
 30
0.0
 11
6.999999999999999
 21
44.1
 31
0.0
  0
LINE
  8
0
 62
0
 10
-7.800000000000001
 20
44.1
 30
0.0
 11
-7.000000000000001
 21
44.1
 31
0.0
  0
LINE
  8
0
 62
0
 10
6.999999999999999
 20
44.1
 30
0.0
 11
7.800000000000001
 21
44.1
 31
0.0
  0
LINE
  8
0
 62
0
 10
-7.800000000000001
 20
40.6
 30
0.0
 11
-7.800000000000001
 21
44.1
 31
0.0
  0
LINE
  8
0
 62
0
 10
7.800000000000001
 20
44.1
 30
0.0
 11
7.800000000000001
 21
40.6
 31
0.0
  0
LINE
  8
0
 62
0
 10
-7.000000000000001
 20
40.6
 30
0.0
 11
-7.800000000000001
 21
40.6
 31
0.0
  0
LINE
  8
0
 62
0
 10
7.800000000000001
 20
40.6
 30
0.0
 11
7.0
 21
40.6
 31
0.0
  0
LINE
  8
0
 62
0
 10
-7.000000000000001
 20
35.6
 30
0.0
 11
-7.000000000000001
 21
40.6
 31
0.0
  0
LINE
  8
0
 62
0
 10
7.0
 20
40.6
 30
0.0
 11
7.0
 21
35.6
 31
0.0
  0
LINE
  8
0
 62
0
 10
-7.800000000000001
 20
35.6
 30
0.0
 11
-7.000000000000001
 21
35.6
 31
0.0
  0
LINE
  8
0
 62
0
 10
7.0
 20
35.6
 30
0.0
 11
7.800000000000001
 21
35.6
 31
0.0
  0
LINE
  8
0
 62
0
 10
-7.800000000000001
 20
32.1
 30
0.0
 11
-7.800000000000001
 21
35.6
 31
0.0
  0
LINE
  8
0
 62
0
 10
7.800000000000001
 20
35.6
 30
0.0
 11
7.800000000000001
 21
32.1
 31
0.0
  0
LINE
  8
0
 62
0
 10
-7.000000000000001
 20
32.1
 30
0.0
 11
-7.800000000000001
 21
32.1
 31
0.0
  0
LINE
  8
0
 62
0
 10
7.800000000000001
 20
32.1
 30
0.0
 11
7.0
 21
32.1
 31
0.0
  0
LINE
  8
0
 62
0
 10
-7.000000000000001
 20
31.1
 30
0.0
 11
-7.000000000000001
 21
32.1
 31
0.0
  0
LINE
  8
0
 62
0
 10
7.0
 20
32.1
 30
0.0
 11
7.0
 21
31.1
 31
0.0
  0
LINE
  8
0
 62
0
 10
7.0
 20
31.1
 30
0.0
 11
-7.0
 21
31.1
 31
0.0
  0
LINE
  8
0
 62
0
 10
107.30000000000001
 20
45.1
 30
0.0
 11
121.30000000000001
 21
45.1
 31
0.0
  0
LINE
  8
0
 62
0
 10
107.30000000000001
 20
44.1
 30
0.0
 11
107.30000000000001
 21
45.1
 31
0.0
  0
LINE
  8
0
 62
0
 10
121.30000000000001
 20
45.1
 30
0.0
 11
121.30000000000001
 21
44.1
 31
0.0
  0
LINE
  8
0
 62
0
 10
106.50000000000001
 20
44.1
 30
0.0
 11
107.30000000000001
 21
44.1
 31
0.0
  0
LINE
  8
0
 62
0
 10
121.30000000000001
 20
44.1
 30
0.0
 11
122.10000000000001
 21
44.1
 31
0.0
  0
LINE
  8
0
 62
0
 10
106.50000000000001
 20
40.6
 30
0.0
 11
106.50000000000001
 21
44.1
 31
0.0
  0
LINE
  8
0
 62
0
 10
122.10000000000001
 20
44.1
 30
0.0
 11
122.10000000000001
 21
40.6
 31
0.0
  0
LINE
  8
0
 62
0
 10
107.30000000000001
 20
40.6
 30
0.0
 11
106.50000000000001
 21
40.6
 31
0.0
  0
LINE
  8
0
 62
0
 10
122.10000000000001
 20
40.6
 30
0.0
 11
121.30000000000001
 21
40.6
 31
0.0
  0
LINE
  8
0
 62
0
 10
107.30000000000001
 20
35.6
 30
0.0
 11
107.30000000000001
 21
40.6
 31
0.0
  0
LINE
  8
0
 62
0
 10
121.30000000000001
 20
40.6
 30
0.0
 11
121.30000000000001
 21
35.6
 31
0.0
  0
LINE
  8
0
 62
0
 10
106.50000000000001
 20
35.6
 30
0.0
 11
107.30000000000001
 21
35.6
 31
0.0
  0
LINE
  8
0
 62
0
 10
121.30000000000001
 20
35.6
 30
0.0
 11
122.10000000000001
 21
35.6
 31
0.0
  0
LINE
  8
0
 62
0
 10
106.50000000000001
 20
32.1
 30
0.0
 11
106.50000000000001
 21
35.6
 31
0.0
  0
LINE
  8
0
 62
0
 10
122.10000000000001
 20
35.6
 30
0.0
 11
122.10000000000001
 21
32.1
 31
0.0
  0
LINE
  8
0
 62
0
 10
107.30000000000001
 20
32.1
 30
0.0
 11
106.50000000000001
 21
32.1
 31
0.0
  0
LINE
  8
0
 62
0
 10
122.10000000000001
 20
32.1
 30
0.0
 11
121.30000000000001
 21
32.1
 31
0.0
  0
LINE
  8
0
 62
0
 10
107.30000000000001
 20
31.1
 30
0.0
 11
107.30000000000001
 21
32.1
 31
0.0
  0
LINE
  8
0
 62
0
 10
121.30000000000001
 20
32.1
 30
0.0
 11
121.30000000000001
 21
31.1
 31
0.0
  0
LINE
  8
0
 62
0
 10
121.30000000000001
 20
31.1
 30
0.0
 11
107.30000000000001
 21
31.1
 31
0.0
  0
LINE
  8
0
 62
0
 10
88.25
 20
45.1
 30
0.0
 11
102.25
 21
45.1
 31
0.0
  0
LINE
  8
0
 62
0
 10
88.25
 20
44.1
 30
0.0
 11
88.25
 21
45.1
 31
0.0
  0
LINE
  8
0
 62
0
 10
102.25
 20
45.1
 30
0.0
 11
102.25
 21
44.1
 31
0.0
  0
LINE
  8
0
 62
0
 10
87.45
 20
44.1
 30
0.0
 11
88.25
 21
44.1
 31
0.0
  0
LINE
  8
0
 62
0
 10
102.25
 20
44.1
 30
0.0
 11
103.05
 21
44.1
 31
0.0
  0
LINE
  8
0
 62
0
 10
87.45
 20
40.6
 30
0.0
 11
87.45
 21
44.1
 31
0.0
  0
LINE
  8
0
 62
0
 10
103.05
 20
44.1
 30
0.0
 11
103.05
 21
40.6
 31
0.0
  0
LINE
  8
0
 62
0
 10
88.25
 20
40.6
 30
0.0
 11
87.45
 21
40.6
 31
0.0
  0
LINE
  8
0
 62
0
 10
103.05
 20
40.6
 30
0.0
 11
102.25
 21
40.6
 31
0.0
  0
LINE
  8
0
 62
0
 10
88.25
 20
35.6
 30
0.0
 11
88.25
 21
40.6
 31
0.0
  0
LINE
  8
0
 62
0
 10
102.25
 20
40.6
 30
0.0
 11
102.25
 21
35.6
 31
0.0
  0
LINE
  8
0
 62
0
 10
87.45
 20
35.6
 30
0.0
 11
88.25
 21
35.6
 31
0.0
  0
LINE
  8
0
 62
0
 10
102.25
 20
35.6
 30
0.0
 11
103.05
 21
35.6
 31
0.0
  0
LINE
  8
0
 62
0
 10
87.45
 20
32.1
 30
0.0
 11
87.45
 21
35.6
 31
0.0
  0
LINE
  8
0
 62
0
 10
103.05
 20
35.6
 30
0.0
 11
103.05
 21
32.1
 31
0.0
  0
LINE
  8
0
 62
0
 10
88.25
 20
32.1
 30
0.0
 11
87.45
 21
32.1
 31
0.0
  0
LINE
  8
0
 62
0
 10
103.05
 20
32.1
 30
0.0
 11
102.25
 21
32.1
 31
0.0
  0
LINE
  8
0
 62
0
 10
88.25
 20
31.1
 30
0.0
 11
88.25
 21
32.1
 31
0.0
  0
LINE
  8
0
 62
0
 10
102.25
 20
32.1
 30
0.0
 11
102.25
 21
31.1
 31
0.0
  0
LINE
  8
0
 62
0
 10
102.25
 20
31.1
 30
0.0
 11
88.25
 21
31.1
 31
0.0
  0
CIRCLE
  8
0
 62
0
 10
47.625
 20
28.575000000000003
 30
0.0
 40
1.175
  0
LINE
  8
0
 62
0
 10
50.150000000000006
 20
45.1
 30
0.0
 11
64.15
 21
45.1
 31
0.0
  0
LINE
  8
0
 62
0
 10
50.150000000000006
 20
44.1
 30
0.0
 11
50.150000000000006
 21
45.1
 31
0.0
  0
LINE
  8
0
 62
0
 10
64.15
 20
45.1
 30
0.0
 11
64.15
 21
44.1
 31
0.0
  0
LINE
  8
0
 62
0
 10
49.35000000000001
 20
44.1
 30
0.0
 11
50.150000000000006
 21
44.1
 31
0.0
  0
LINE
  8
0
 62
0
 10
64.15
 20
44.1
 30
0.0
 11
64.95
 21
44.1
 31
0.0
  0
LINE
  8
0
 62
0
 10
49.35000000000001
 20
40.6
 30
0.0
 11
49.35000000000001
 21
44.1
 31
0.0
  0
LINE
  8
0
 62
0
 10
64.95
 20
44.1
 30
0.0
 11
64.95
 21
40.6
 31
0.0
  0
LINE
  8
0
 62
0
 10
50.150000000000006
 20
40.6
 30
0.0
 11
49.35000000000001
 21
40.6
 31
0.0
  0
LINE
  8
0
 62
0
 10
64.95
 20
40.6
 30
0.0
 11
64.15
 21
40.6
 31
0.0
  0
LINE
  8
0
 62
0
 10
50.150000000000006
 20
35.6
 30
0.0
 11
50.150000000000006
 21
40.6
 31
0.0
  0
LINE
  8
0
 62
0
 10
64.15
 20
40.6
 30
0.0
 11
64.15
 21
35.6
 31
0.0
  0
LINE
  8
0
 62
0
 10
49.35000000000001
 20
35.6
 30
0.0
 11
50.150000000000006
 21
35.6
 31
0.0
  0
LINE
  8
0
 62
0
 10
64.15
 20
35.6
 30
0.0
 11
64.95
 21
35.6
 31
0.0
  0
LINE
  8
0
 62
0
 10
49.35000000000001
 20
32.1
 30
0.0
 11
49.35000000000001
 21
35.6
 31
0.0
  0
LINE
  8
0
 62
0
 10
64.95
 20
35.6
 30
0.0
 11
64.95
 21
32.1
 31
0.0
  0
LINE
  8
0
 62
0
 10
50.150000000000006
 20
32.1
 30
0.0
 11
49.35000000000001
 21
32.1
 31
0.0
  0
LINE
  8
0
 62
0
 10
64.95
 20
32.1
 30
0.0
 11
64.15
 21
32.1
 31
0.0
  0
LINE
  8
0
 62
0
 10
50.150000000000006
 20
31.1
 30
0.0
 11
50.150000000000006
 21
32.1
 31
0.0
  0
LINE
  8
0
 62
0
 10
64.15
 20
32.1
 30
0.0
 11
64.15
 21
31.1
 31
0.0
  0
LINE
  8
0
 62
0
 10
64.15
 20
31.1
 30
0.0
 11
50.150000000000006
 21
31.1
 31
0.0
  0
LINE
  8
0
 62
0
 10
69.2
 20
45.1
 30
0.0
 11
83.2
 21
45.1
 31
0.0
  0
LINE
  8
0
 62
0
 10
69.2
 20
44.1
 30
0.0
 11
69.2
 21
45.1
 31
0.0
  0
LINE
  8
0
 62
0
 10
83.2
 20
45.1
 30
0.0
 11
83.2
 21
44.1
 31
0.0
  0
LINE
  8
0
 62
0
 10
68.4
 20
44.1
 30
0.0
 11
69.2
 21
44.1
 31
0.0
  0
LINE
  8
0
 62
0
 10
83.2
 20
44.1
 30
0.0
 11
84.0
 21
44.1
 31
0.0
  0
LINE
  8
0
 62
0
 10
68.4
 20
40.6
 30
0.0
 11
68.4
 21
44.1
 31
0.0
  0
LINE
  8
0
 62
0
 10
84.0
 20
44.1
 30
0.0
 11
84.0
 21
40.6
 31
0.0
  0
LINE
  8
0
 62
0
 10
69.2
 20
40.6
 30
0.0
 11
68.4
 21
40.6
 31
0.0
  0
LINE
  8
0
 62
0
 10
84.0
 20
40.6
 30
0.0
 11
83.2
 21
40.6
 31
0.0
  0
LINE
  8
0
 62
0
 10
69.2
 20
35.6
 30
0.0
 11
69.2
 21
40.6
 31
0.0
  0
LINE
  8
0
 62
0
 10
83.2
 20
40.6
 30
0.0
 11
83.2
 21
35.6
 31
0.0
  0
LINE
  8
0
 62
0
 10
68.4
 20
35.6
 30
0.0
 11
69.2
 21
35.6
 31
0.0
  0
LINE
  8
0
 62
0
 10
83.2
 20
35.6
 30
0.0
 11
84.0
 21
35.6
 31
0.0
  0
LINE
  8
0
 62
0
 10
68.4
 20
32.1
 30
0.0
 11
68.4
 21
35.6
 31
0.0
  0
LINE
  8
0
 62
0
 10
84.0
 20
35.6
 30
0.0
 11
84.0
 21
32.1
 31
0.0
  0
LINE
  8
0
 62
0
 10
69.2
 20
32.1
 30
0.0
 11
68.4
 21
32.1
 31
0.0
  0
LINE
  8
0
 62
0
 10
84.0
 20
32.1
 30
0.0
 11
83.2
 21
32.1
 31
0.0
  0
LINE
  8
0
 62
0
 10
69.2
 20
31.1
 30
0.0
 11
69.2
 21
32.1
 31
0.0
  0
LINE
  8
0
 62
0
 10
83.2
 20
32.1
 30
0.0
 11
83.2
 21
31.1
 31
0.0
  0
LINE
  8
0
 62
0
 10
83.2
 20
31.1
 30
0.0
 11
69.2
 21
31.1
 31
0.0
  0
LINE
  8
0
 62
0
 10
107.30000000000001
 20
26.05
 30
0.0
 11
121.30000000000001
 21
26.05
 31
0.0
  0
LINE
  8
0
 62
0
 10
107.30000000000001
 20
25.05
 30
0.0
 11
107.30000000000001
 21
26.05
 31
0.0
  0
LINE
  8
0
 62
0
 10
121.30000000000001
 20
26.05
 30
0.0
 11
121.30000000000001
 21
25.05
 31
0.0
  0
LINE
  8
0
 62
0
 10
106.50000000000001
 20
25.05
 30
0.0
 11
107.30000000000001
 21
25.05
 31
0.0
  0
LINE
  8
0
 62
0
 10
121.30000000000001
 20
25.05
 30
0.0
 11
122.10000000000001
 21
25.05
 31
0.0
  0
LINE
  8
0
 62
0
 10
106.50000000000001
 20
21.55
 30
0.0
 11
106.50000000000001
 21
25.05
 31
0.0
  0
LINE
  8
0
 62
0
 10
122.10000000000001
 20
25.05
 30
0.0
 11
122.10000000000001
 21
21.55
 31
0.0
  0
LINE
  8
0
 62
0
 10
107.30000000000001
 20
21.55
 30
0.0
 11
106.50000000000001
 21
21.55
 31
0.0
  0
LINE
  8
0
 62
0
 10
122.10000000000001
 20
21.55
 30
0.0
 11
121.30000000000001
 21
21.55
 31
0.0
  0
LINE
  8
0
 62
0
 10
107.30000000000001
 20
16.55
 30
0.0
 11
107.30000000000001
 21
21.55
 31
0.0
  0
LINE
  8
0
 62
0
 10
121.30000000000001
 20
21.55
 30
0.0
 11
121.30000000000001
 21
16.55
 31
0.0
  0
LINE
  8
0
 62
0
 10
106.50000000000001
 20
16.55
 30
0.0
 11
107.30000000000001
 21
16.55
 31
0.0
  0
LINE
  8
0
 62
0
 10
121.30000000000001
 20
16.55
 30
0.0
 11
122.10000000000001
 21
16.55
 31
0.0
  0
LINE
  8
0
 62
0
 10
106.50000000000001
 20
13.05
 30
0.0
 11
106.50000000000001
 21
16.55
 31
0.0
  0
LINE
  8
0
 62
0
 10
122.10000000000001
 20
16.55
 30
0.0
 11
122.10000000000001
 21
13.05
 31
0.0
  0
LINE
  8
0
 62
0
 10
107.30000000000001
 20
13.05
 30
0.0
 11
106.50000000000001
 21
13.05
 31
0.0
  0
LINE
  8
0
 62
0
 10
122.10000000000001
 20
13.05
 30
0.0
 11
121.30000000000001
 21
13.05
 31
0.0
  0
LINE
  8
0
 62
0
 10
107.30000000000001
 20
12.05
 30
0.0
 11
107.30000000000001
 21
13.05
 31
0.0
  0
LINE
  8
0
 62
0
 10
121.30000000000001
 20
13.05
 30
0.0
 11
121.30000000000001
 21
12.05
 31
0.0
  0
LINE
  8
0
 62
0
 10
121.30000000000001
 20
12.05
 30
0.0
 11
107.30000000000001
 21
12.05
 31
0.0
  0
LINE
  8
0
 62
0
 10
88.25
 20
26.05
 30
0.0
 11
102.25
 21
26.05
 31
0.0
  0
LINE
  8
0
 62
0
 10
88.25
 20
25.05
 30
0.0
 11
88.25
 21
26.05
 31
0.0
  0
LINE
  8
0
 62
0
 10
102.25
 20
26.05
 30
0.0
 11
102.25
 21
25.05
 31
0.0
  0
LINE
  8
0
 62
0
 10
87.45
 20
25.05
 30
0.0
 11
88.25
 21
25.05
 31
0.0
  0
LINE
  8
0
 62
0
 10
102.25
 20
25.05
 30
0.0
 11
103.05
 21
25.05
 31
0.0
  0
LINE
  8
0
 62
0
 10
87.45
 20
21.55
 30
0.0
 11
87.45
 21
25.05
 31
0.0
  0
LINE
  8
0
 62
0
 10
103.05
 20
25.05
 30
0.0
 11
103.05
 21
21.55
 31
0.0
  0
LINE
  8
0
 62
0
 10
88.25
 20
21.55
 30
0.0
 11
87.45
 21
21.55
 31
0.0
  0
LINE
  8
0
 62
0
 10
103.05
 20
21.55
 30
0.0
 11
102.25
 21
21.55
 31
0.0
  0
LINE
  8
0
 62
0
 10
88.25
 20
16.55
 30
0.0
 11
88.25
 21
21.55
 31
0.0
  0
LINE
  8
0
 62
0
 10
102.25
 20
21.55
 30
0.0
 11
102.25
 21
16.55
 31
0.0
  0
LINE
  8
0
 62
0
 10
87.45
 20
16.55
 30
0.0
 11
88.25
 21
16.55
 31
0.0
  0
LINE
  8
0
 62
0
 10
102.25
 20
16.55
 30
0.0
 11
103.05
 21
16.55
 31
0.0
  0
LINE
  8
0
 62
0
 10
87.45
 20
13.05
 30
0.0
 11
87.45
 21
16.55
 31
0.0
  0
LINE
  8
0
 62
0
 10
103.05
 20
16.55
 30
0.0
 11
103.05
 21
13.05
 31
0.0
  0
LINE
  8
0
 62
0
 10
88.25
 20
13.05
 30
0.0
 11
87.45
 21
13.05
 31
0.0
  0
LINE
  8
0
 62
0
 10
103.05
 20
13.05
 30
0.0
 11
102.25
 21
13.05
 31
0.0
  0
LINE
  8
0
 62
0
 10
88.25
 20
12.05
 30
0.0
 11
88.25
 21
13.05
 31
0.0
  0
LINE
  8
0
 62
0
 10
102.25
 20
13.05
 30
0.0
 11
102.25
 21
12.05
 31
0.0
  0
LINE
  8
0
 62
0
 10
102.25
 20
12.05
 30
0.0
 11
88.25
 21
12.05
 31
0.0
  0
LINE
  8
0
 62
0
 10
50.150000000000006
 20
26.05
 30
0.0
 11
64.15
 21
26.05
 31
0.0
  0
LINE
  8
0
 62
0
 10
50.150000000000006
 20
25.05
 30
0.0
 11
50.150000000000006
 21
26.05
 31
0.0
  0
LINE
  8
0
 62
0
 10
64.15
 20
26.05
 30
0.0
 11
64.15
 21
25.05
 31
0.0
  0
LINE
  8
0
 62
0
 10
49.35000000000001
 20
25.05
 30
0.0
 11
50.150000000000006
 21
25.05
 31
0.0
  0
LINE
  8
0
 62
0
 10
64.15
 20
25.05
 30
0.0
 11
64.95
 21
25.05
 31
0.0
  0
LINE
  8
0
 62
0
 10
49.35000000000001
 20
21.55
 30
0.0
 11
49.35000000000001
 21
25.05
 31
0.0
  0
LINE
  8
0
 62
0
 10
64.95
 20
25.05
 30
0.0
 11
64.95
 21
21.55
 31
0.0
  0
LINE
  8
0
 62
0
 10
50.150000000000006
 20
21.55
 30
0.0
 11
49.35000000000001
 21
21.55
 31
0.0
  0
LINE
  8
0
 62
0
 10
64.95
 20
21.55
 30
0.0
 11
64.15
 21
21.55
 31
0.0
  0
LINE
  8
0
 62
0
 10
50.150000000000006
 20
16.55
 30
0.0
 11
50.150000000000006
 21
21.55
 31
0.0
  0
LINE
  8
0
 62
0
 10
64.15
 20
21.55
 30
0.0
 11
64.15
 21
16.55
 31
0.0
  0
LINE
  8
0
 62
0
 10
49.35000000000001
 20
16.55
 30
0.0
 11
50.150000000000006
 21
16.55
 31
0.0
  0
LINE
  8
0
 62
0
 10
64.15
 20
16.55
 30
0.0
 11
64.95
 21
16.55
 31
0.0
  0
LINE
  8
0
 62
0
 10
49.35000000000001
 20
13.05
 30
0.0
 11
49.35000000000001
 21
16.55
 31
0.0
  0
LINE
  8
0
 62
0
 10
64.95
 20
16.55
 30
0.0
 11
64.95
 21
13.05
 31
0.0
  0
LINE
  8
0
 62
0
 10
50.150000000000006
 20
13.05
 30
0.0
 11
49.35000000000001
 21
13.05
 31
0.0
  0
LINE
  8
0
 62
0
 10
64.95
 20
13.05
 30
0.0
 11
64.15
 21
13.05
 31
0.0
  0
LINE
  8
0
 62
0
 10
50.150000000000006
 20
12.05
 30
0.0
 11
50.150000000000006
 21
13.05
 31
0.0
  0
LINE
  8
0
 62
0
 10
64.15
 20
13.05
 30
0.0
 11
64.15
 21
12.05
 31
0.0
  0
LINE
  8
0
 62
0
 10
64.15
 20
12.05
 30
0.0
 11
50.150000000000006
 21
12.05
 31
0.0
  0
LINE
  8
0
 62
0
 10
50.150000000000006
 20
7.0
 30
0.0
 11
64.15
 21
7.0
 31
0.0
  0
LINE
  8
0
 62
0
 10
50.150000000000006
 20
6.0
 30
0.0
 11
50.150000000000006
 21
7.0
 31
0.0
  0
LINE
  8
0
 62
0
 10
64.15
 20
7.0
 30
0.0
 11
64.15
 21
6.0
 31
0.0
  0
LINE
  8
0
 62
0
 10
49.35000000000001
 20
6.0
 30
0.0
 11
50.150000000000006
 21
6.0
 31
0.0
  0
LINE
  8
0
 62
0
 10
64.15
 20
6.0
 30
0.0
 11
64.95
 21
6.0
 31
0.0
  0
LINE
  8
0
 62
0
 10
49.35000000000001
 20
2.5
 30
0.0
 11
49.35000000000001
 21
6.0
 31
0.0
  0
LINE
  8
0
 62
0
 10
64.95
 20
6.0
 30
0.0
 11
64.95
 21
2.5
 31
0.0
  0
LINE
  8
0
 62
0
 10
50.150000000000006
 20
2.5
 30
0.0
 11
49.35000000000001
 21
2.5
 31
0.0
  0
LINE
  8
0
 62
0
 10
64.95
 20
2.5
 30
0.0
 11
64.15
 21
2.5
 31
0.0
  0
LINE
  8
0
 62
0
 10
50.150000000000006
 20
-2.5
 30
0.0
 11
50.150000000000006
 21
2.5
 31
0.0
  0
LINE
  8
0
 62
0
 10
64.15
 20
2.5
 30
0.0
 11
64.15
 21
-2.5
 31
0.0
  0
LINE
  8
0
 62
0
 10
49.35000000000001
 20
-2.5
 30
0.0
 11
50.150000000000006
 21
-2.5
 31
0.0
  0
LINE
  8
0
 62
0
 10
64.15
 20
-2.5
 30
0.0
 11
64.95
 21
-2.5
 31
0.0
  0
LINE
  8
0
 62
0
 10
49.35000000000001
 20
-6.0
 30
0.0
 11
49.35000000000001
 21
-2.5
 31
0.0
  0
LINE
  8
0
 62
0
 10
64.95
 20
-2.5
 30
0.0
 11
64.95
 21
-6.0
 31
0.0
  0
LINE
  8
0
 62
0
 10
50.150000000000006
 20
-6.0
 30
0.0
 11
49.35000000000001
 21
-6.0
 31
0.0
  0
LINE
  8
0
 62
0
 10
64.95
 20
-6.0
 30
0.0
 11
64.15
 21
-6.0
 31
0.0
  0
LINE
  8
0
 62
0
 10
50.150000000000006
 20
-7.0
 30
0.0
 11
50.150000000000006
 21
-6.0
 31
0.0
  0
LINE
  8
0
 62
0
 10
64.15
 20
-6.0
 30
0.0
 11
64.15
 21
-7.0
 31
0.0
  0
LINE
  8
0
 62
0
 10
64.15
 20
-7.0
 30
0.0
 11
50.150000000000006
 21
-7.0
 31
0.0
  0
LINE
  8
0
 62
0
 10
69.2
 20
7.0
 30
0.0
 11
83.2
 21
7.0
 31
0.0
  0
LINE
  8
0
 62
0
 10
69.2
 20
6.0
 30
0.0
 11
69.2
 21
7.0
 31
0.0
  0
LINE
  8
0
 62
0
 10
83.2
 20
7.0
 30
0.0
 11
83.2
 21
6.0
 31
0.0
  0
LINE
  8
0
 62
0
 10
68.4
 20
6.0
 30
0.0
 11
69.2
 21
6.0
 31
0.0
  0
LINE
  8
0
 62
0
 10
83.2
 20
6.0
 30
0.0
 11
84.0
 21
6.0
 31
0.0
  0
LINE
  8
0
 62
0
 10
68.4
 20
2.5
 30
0.0
 11
68.4
 21
6.0
 31
0.0
  0
LINE
  8
0
 62
0
 10
84.0
 20
6.0
 30
0.0
 11
84.0
 21
2.5
 31
0.0
  0
LINE
  8
0
 62
0
 10
69.2
 20
2.5
 30
0.0
 11
68.4
 21
2.5
 31
0.0
  0
LINE
  8
0
 62
0
 10
84.0
 20
2.5
 30
0.0
 11
83.2
 21
2.5
 31
0.0
  0
LINE
  8
0
 62
0
 10
69.2
 20
-2.5
 30
0.0
 11
69.2
 21
2.5
 31
0.0
  0
LINE
  8
0
 62
0
 10
83.2
 20
2.5
 30
0.0
 11
83.2
 21
-2.5
 31
0.0
  0
LINE
  8
0
 62
0
 10
68.4
 20
-2.5
 30
0.0
 11
69.2
 21
-2.5
 31
0.0
  0
LINE
  8
0
 62
0
 10
83.2
 20
-2.5
 30
0.0
 11
84.0
 21
-2.5
 31
0.0
  0
LINE
  8
0
 62
0
 10
68.4
 20
-6.0
 30
0.0
 11
68.4
 21
-2.5
 31
0.0
  0
LINE
  8
0
 62
0
 10
84.0
 20
-2.5
 30
0.0
 11
84.0
 21
-6.0
 31
0.0
  0
LINE
  8
0
 62
0
 10
69.2
 20
-6.0
 30
0.0
 11
68.4
 21
-6.0
 31
0.0
  0
LINE
  8
0
 62
0
 10
84.0
 20
-6.0
 30
0.0
 11
83.2
 21
-6.0
 31
0.0
  0
LINE
  8
0
 62
0
 10
69.2
 20
-7.0
 30
0.0
 11
69.2
 21
-6.0
 31
0.0
  0
LINE
  8
0
 62
0
 10
83.2
 20
-6.0
 30
0.0
 11
83.2
 21
-7.0
 31
0.0
  0
LINE
  8
0
 62
0
 10
83.2
 20
-7.0
 30
0.0
 11
69.2
 21
-7.0
 31
0.0
  0
LINE
  8
0
 62
0
 10
88.25
 20
7.0
 30
0.0
 11
102.25
 21
7.0
 31
0.0
  0
LINE
  8
0
 62
0
 10
88.25
 20
6.0
 30
0.0
 11
88.25
 21
7.0
 31
0.0
  0
LINE
  8
0
 62
0
 10
102.25
 20
7.0
 30
0.0
 11
102.25
 21
6.0
 31
0.0
  0
LINE
  8
0
 62
0
 10
87.45
 20
6.0
 30
0.0
 11
88.25
 21
6.0
 31
0.0
  0
LINE
  8
0
 62
0
 10
102.25
 20
6.0
 30
0.0
 11
103.05
 21
6.0
 31
0.0
  0
LINE
  8
0
 62
0
 10
87.45
 20
2.5
 30
0.0
 11
87.45
 21
6.0
 31
0.0
  0
LINE
  8
0
 62
0
 10
103.05
 20
6.0
 30
0.0
 11
103.05
 21
2.5
 31
0.0
  0
LINE
  8
0
 62
0
 10
88.25
 20
2.5
 30
0.0
 11
87.45
 21
2.5
 31
0.0
  0
LINE
  8
0
 62
0
 10
103.05
 20
2.5
 30
0.0
 11
102.25
 21
2.5
 31
0.0
  0
LINE
  8
0
 62
0
 10
88.25
 20
-2.5
 30
0.0
 11
88.25
 21
2.5
 31
0.0
  0
LINE
  8
0
 62
0
 10
102.25
 20
2.5
 30
0.0
 11
102.25
 21
-2.5
 31
0.0
  0
LINE
  8
0
 62
0
 10
87.45
 20
-2.5
 30
0.0
 11
88.25
 21
-2.5
 31
0.0
  0
LINE
  8
0
 62
0
 10
102.25
 20
-2.5
 30
0.0
 11
103.05
 21
-2.5
 31
0.0
  0
LINE
  8
0
 62
0
 10
87.45
 20
-6.0
 30
0.0
 11
87.45
 21
-2.5
 31
0.0
  0
LINE
  8
0
 62
0
 10
103.05
 20
-2.5
 30
0.0
 11
103.05
 21
-6.0
 31
0.0
  0
LINE
  8
0
 62
0
 10
88.25
 20
-6.0
 30
0.0
 11
87.45
 21
-6.0
 31
0.0
  0
LINE
  8
0
 62
0
 10
103.05
 20
-6.0
 30
0.0
 11
102.25
 21
-6.0
 31
0.0
  0
LINE
  8
0
 62
0
 10
88.25
 20
-7.0
 30
0.0
 11
88.25
 21
-6.0
 31
0.0
  0
LINE
  8
0
 62
0
 10
102.25
 20
-6.0
 30
0.0
 11
102.25
 21
-7.0
 31
0.0
  0
LINE
  8
0
 62
0
 10
102.25
 20
-7.0
 30
0.0
 11
88.25
 21
-7.0
 31
0.0
  0
LINE
  8
0
 62
0
 10
12.05
 20
7.0
 30
0.0
 11
26.05
 21
7.0
 31
0.0
  0
LINE
  8
0
 62
0
 10
12.05
 20
6.0
 30
0.0
 11
12.05
 21
7.0
 31
0.0
  0
LINE
  8
0
 62
0
 10
26.05
 20
7.0
 30
0.0
 11
26.05
 21
6.0
 31
0.0
  0
LINE
  8
0
 62
0
 10
11.25
 20
6.0
 30
0.0
 11
12.05
 21
6.0
 31
0.0
  0
LINE
  8
0
 62
0
 10
26.05
 20
6.0
 30
0.0
 11
26.85
 21
6.0
 31
0.0
  0
LINE
  8
0
 62
0
 10
11.25
 20
2.5
 30
0.0
 11
11.25
 21
6.0
 31
0.0
  0
LINE
  8
0
 62
0
 10
26.85
 20
6.0
 30
0.0
 11
26.85
 21
2.5
 31
0.0
  0
LINE
  8
0
 62
0
 10
12.05
 20
2.5
 30
0.0
 11
11.25
 21
2.5
 31
0.0
  0
LINE
  8
0
 62
0
 10
26.85
 20
2.5
 30
0.0
 11
26.05
 21
2.5
 31
0.0
  0
LINE
  8
0
 62
0
 10
12.05
 20
-2.5
 30
0.0
 11
12.05
 21
2.5
 31
0.0
  0
LINE
  8
0
 62
0
 10
26.05
 20
2.5
 30
0.0
 11
26.05
 21
-2.5
 31
0.0
  0
LINE
  8
0
 62
0
 10
11.25
 20
-2.5
 30
0.0
 11
12.05
 21
-2.5
 31
0.0
  0
LINE
  8
0
 62
0
 10
26.05
 20
-2.5
 30
0.0
 11
26.85
 21
-2.5
 31
0.0
  0
LINE
  8
0
 62
0
 10
11.25
 20
-6.0
 30
0.0
 11
11.25
 21
-2.5
 31
0.0
  0
LINE
  8
0
 62
0
 10
26.85
 20
-2.5
 30
0.0
 11
26.85
 21
-6.0
 31
0.0
  0
LINE
  8
0
 62
0
 10
12.05
 20
-6.0
 30
0.0
 11
11.25
 21
-6.0
 31
0.0
  0
LINE
  8
0
 62
0
 10
26.85
 20
-6.0
 30
0.0
 11
26.05
 21
-6.0
 31
0.0
  0
LINE
  8
0
 62
0
 10
12.05
 20
-7.0
 30
0.0
 11
12.05
 21
-6.0
 31
0.0
  0
LINE
  8
0
 62
0
 10
26.05
 20
-6.0
 30
0.0
 11
26.05
 21
-7.0
 31
0.0
  0
LINE
  8
0
 62
0
 10
26.05
 20
-7.0
 30
0.0
 11
12.05
 21
-7.0
 31
0.0
  0
LINE
  8
0
 62
0
 10
31.1
 20
7.0
 30
0.0
 11
45.1
 21
7.0
 31
0.0
  0
LINE
  8
0
 62
0
 10
31.1
 20
6.0
 30
0.0
 11
31.1
 21
7.0
 31
0.0
  0
LINE
  8
0
 62
0
 10
45.1
 20
7.0
 30
0.0
 11
45.1
 21
6.0
 31
0.0
  0
LINE
  8
0
 62
0
 10
30.3
 20
6.0
 30
0.0
 11
31.1
 21
6.0
 31
0.0
  0
LINE
  8
0
 62
0
 10
45.1
 20
6.0
 30
0.0
 11
45.900000000000006
 21
6.0
 31
0.0
  0
LINE
  8
0
 62
0
 10
30.3
 20
2.5
 30
0.0
 11
30.3
 21
6.0
 31
0.0
  0
LINE
  8
0
 62
0
 10
45.900000000000006
 20
6.0
 30
0.0
 11
45.900000000000006
 21
2.5
 31
0.0
  0
LINE
  8
0
 62
0
 10
31.1
 20
2.5
 30
0.0
 11
30.3
 21
2.5
 31
0.0
  0
LINE
  8
0
 62
0
 10
45.900000000000006
 20
2.5
 30
0.0
 11
45.10000000000001
 21
2.5
 31
0.0
  0
LINE
  8
0
 62
0
 10
31.1
 20
-2.5
 30
0.0
 11
31.1
 21
2.5
 31
0.0
  0
LINE
  8
0
 62
0
 10
45.1
 20
2.5
 30
0.0
 11
45.1
 21
-2.5
 31
0.0
  0
LINE
  8
0
 62
0
 10
30.3
 20
-2.5
 30
0.0
 11
31.1
 21
-2.5
 31
0.0
  0
LINE
  8
0
 62
0
 10
45.1
 20
-2.5
 30
0.0
 11
45.900000000000006
 21
-2.5
 31
0.0
  0
LINE
  8
0
 62
0
 10
30.3
 20
-6.0
 30
0.0
 11
30.3
 21
-2.5
 31
0.0
  0
LINE
  8
0
 62
0
 10
45.900000000000006
 20
-2.5
 30
0.0
 11
45.900000000000006
 21
-6.0
 31
0.0
  0
LINE
  8
0
 62
0
 10
31.1
 20
-6.0
 30
0.0
 11
30.3
 21
-6.0
 31
0.0
  0
LINE
  8
0
 62
0
 10
45.900000000000006
 20
-6.0
 30
0.0
 11
45.10000000000001
 21
-6.0
 31
0.0
  0
LINE
  8
0
 62
0
 10
31.1
 20
-7.0
 30
0.0
 11
31.1
 21
-6.0
 31
0.0
  0
LINE
  8
0
 62
0
 10
45.1
 20
-6.0
 30
0.0
 11
45.1
 21
-7.0
 31
0.0
  0
LINE
  8
0
 62
0
 10
45.1
 20
-7.0
 30
0.0
 11
31.1
 21
-7.0
 31
0.0
  0
CIRCLE
  8
0
 62
0
 10
9.525
 20
9.525
 30
0.0
 40
1.175
  0
LINE
  8
0
 62
0
 10
107.30000000000001
 20
7.0
 30
0.0
 11
121.30000000000001
 21
7.0
 31
0.0
  0
LINE
  8
0
 62
0
 10
107.30000000000001
 20
6.0
 30
0.0
 11
107.30000000000001
 21
7.0
 31
0.0
  0
LINE
  8
0
 62
0
 10
121.30000000000001
 20
7.0
 30
0.0
 11
121.30000000000001
 21
6.0
 31
0.0
  0
LINE
  8
0
 62
0
 10
106.50000000000001
 20
6.0
 30
0.0
 11
107.30000000000001
 21
6.0
 31
0.0
  0
LINE
  8
0
 62
0
 10
121.30000000000001
 20
6.0
 30
0.0
 11
122.10000000000001
 21
6.0
 31
0.0
  0
LINE
  8
0
 62
0
 10
106.50000000000001
 20
2.5
 30
0.0
 11
106.50000000000001
 21
6.0
 31
0.0
  0
LINE
  8
0
 62
0
 10
122.10000000000001
 20
6.0
 30
0.0
 11
122.10000000000001
 21
2.5
 31
0.0
  0
LINE
  8
0
 62
0
 10
107.30000000000001
 20
2.5
 30
0.0
 11
106.50000000000001
 21
2.5
 31
0.0
  0
LINE
  8
0
 62
0
 10
122.10000000000001
 20
2.5
 30
0.0
 11
121.30000000000001
 21
2.5
 31
0.0
  0
LINE
  8
0
 62
0
 10
107.30000000000001
 20
-2.5
 30
0.0
 11
107.30000000000001
 21
2.5
 31
0.0
  0
LINE
  8
0
 62
0
 10
121.30000000000001
 20
2.5
 30
0.0
 11
121.30000000000001
 21
-2.5
 31
0.0
  0
LINE
  8
0
 62
0
 10
106.50000000000001
 20
-2.5
 30
0.0
 11
107.30000000000001
 21
-2.5
 31
0.0
  0
LINE
  8
0
 62
0
 10
121.30000000000001
 20
-2.5
 30
0.0
 11
122.10000000000001
 21
-2.5
 31
0.0
  0
LINE
  8
0
 62
0
 10
106.50000000000001
 20
-6.0
 30
0.0
 11
106.50000000000001
 21
-2.5
 31
0.0
  0
LINE
  8
0
 62
0
 10
122.10000000000001
 20
-2.5
 30
0.0
 11
122.10000000000001
 21
-6.0
 31
0.0
  0
LINE
  8
0
 62
0
 10
107.30000000000001
 20
-6.0
 30
0.0
 11
106.50000000000001
 21
-6.0
 31
0.0
  0
LINE
  8
0
 62
0
 10
122.10000000000001
 20
-6.0
 30
0.0
 11
121.30000000000001
 21
-6.0
 31
0.0
  0
LINE
  8
0
 62
0
 10
107.30000000000001
 20
-7.0
 30
0.0
 11
107.30000000000001
 21
-6.0
 31
0.0
  0
LINE
  8
0
 62
0
 10
121.30000000000001
 20
-6.0
 30
0.0
 11
121.30000000000001
 21
-7.0
 31
0.0
  0
LINE
  8
0
 62
0
 10
121.30000000000001
 20
-7.0
 30
0.0
 11
107.30000000000001
 21
-7.0
 31
0.0
  0
CIRCLE
  8
0
 62
0
 10
104.775
 20
9.525
 30
0.0
 40
1.175
  0
LINE
  8
0
 62
0
 10
-7.000000000000001
 20
7.0
 30
0.0
 11
6.999999999999999
 21
7.0
 31
0.0
  0
LINE
  8
0
 62
0
 10
-7.000000000000001
 20
6.0
 30
0.0
 11
-7.000000000000001
 21
7.0
 31
0.0
  0
LINE
  8
0
 62
0
 10
6.999999999999999
 20
7.0
 30
0.0
 11
6.999999999999999
 21
6.0
 31
0.0
  0
LINE
  8
0
 62
0
 10
-7.800000000000001
 20
6.0
 30
0.0
 11
-7.000000000000001
 21
6.0
 31
0.0
  0
LINE
  8
0
 62
0
 10
6.999999999999999
 20
6.0
 30
0.0
 11
7.800000000000001
 21
6.0
 31
0.0
  0
LINE
  8
0
 62
0
 10
-7.800000000000001
 20
2.5
 30
0.0
 11
-7.800000000000001
 21
6.0
 31
0.0
  0
LINE
  8
0
 62
0
 10
7.800000000000001
 20
6.0
 30
0.0
 11
7.800000000000001
 21
2.5
 31
0.0
  0
LINE
  8
0
 62
0
 10
-7.000000000000001
 20
2.5
 30
0.0
 11
-7.800000000000001
 21
2.5
 31
0.0
  0
LINE
  8
0
 62
0
 10
7.800000000000001
 20
2.5
 30
0.0
 11
7.0
 21
2.5
 31
0.0
  0
LINE
  8
0
 62
0
 10
-7.000000000000001
 20
-2.5
 30
0.0
 11
-7.000000000000001
 21
2.5
 31
0.0
  0
LINE
  8
0
 62
0
 10
7.0
 20
2.5
 30
0.0
 11
7.0
 21
-2.5
 31
0.0
  0
LINE
  8
0
 62
0
 10
-7.800000000000001
 20
-2.5
 30
0.0
 11
-7.000000000000001
 21
-2.5
 31
0.0
  0
LINE
  8
0
 62
0
 10
7.0
 20
-2.5
 30
0.0
 11
7.800000000000001
 21
-2.5
 31
0.0
  0
LINE
  8
0
 62
0
 10
-7.800000000000001
 20
-6.0
 30
0.0
 11
-7.800000000000001
 21
-2.5
 31
0.0
  0
LINE
  8
0
 62
0
 10
7.800000000000001
 20
-2.5
 30
0.0
 11
7.800000000000001
 21
-6.0
 31
0.0
  0
LINE
  8
0
 62
0
 10
-7.000000000000001
 20
-6.0
 30
0.0
 11
-7.800000000000001
 21
-6.0
 31
0.0
  0
LINE
  8
0
 62
0
 10
7.800000000000001
 20
-6.0
 30
0.0
 11
7.0
 21
-6.0
 31
0.0
  0
LINE
  8
0
 62
0
 10
-7.000000000000001
 20
-7.0
 30
0.0
 11
-7.000000000000001
 21
-6.0
 31
0.0
  0
LINE
  8
0
 62
0
 10
7.0
 20
-6.0
 30
0.0
 11
7.0
 21
-7.0
 31
0.0
  0
LINE
  8
0
 62
0
 10
7.0
 20
-7.0
 30
0.0
 11
-7.0
 21
-7.0
 31
0.0
  0
CIRCLE
  8
0
 62
0
 10
9.525
 20
47.625
 30
0.0
 40
1.175
  0
CIRCLE
  8
0
 62
0
 10
104.775
 20
47.625
 30
0.0
 40
1.175
  0
LINE
  8
0
 62
0
 10
88.25
 20
64.15
 30
0.0
 11
102.25
 21
64.15
 31
0.0
  0
LINE
  8
0
 62
0
 10
88.25
 20
63.150000000000006
 30
0.0
 11
88.25
 21
64.15
 31
0.0
  0
LINE
  8
0
 62
0
 10
102.25
 20
64.15
 30
0.0
 11
102.25
 21
63.150000000000006
 31
0.0
  0
LINE
  8
0
 62
0
 10
87.45
 20
63.150000000000006
 30
0.0
 11
88.25
 21
63.150000000000006
 31
0.0
  0
LINE
  8
0
 62
0
 10
102.25
 20
63.150000000000006
 30
0.0
 11
103.05
 21
63.150000000000006
 31
0.0
  0
LINE
  8
0
 62
0
 10
87.45
 20
59.650000000000006
 30
0.0
 11
87.45
 21
63.150000000000006
 31
0.0
  0
LINE
  8
0
 62
0
 10
103.05
 20
63.150000000000006
 30
0.0
 11
103.05
 21
59.650000000000006
 31
0.0
  0
LINE
  8
0
 62
0
 10
88.25
 20
59.650000000000006
 30
0.0
 11
87.45
 21
59.650000000000006
 31
0.0
  0
LINE
  8
0
 62
0
 10
103.05
 20
59.650000000000006
 30
0.0
 11
102.25
 21
59.650000000000006
 31
0.0
  0
LINE
  8
0
 62
0
 10
88.25
 20
54.650000000000006
 30
0.0
 11
88.25
 21
59.650000000000006
 31
0.0
  0
LINE
  8
0
 62
0
 10
102.25
 20
59.650000000000006
 30
0.0
 11
102.25
 21
54.650000000000006
 31
0.0
  0
LINE
  8
0
 62
0
 10
87.45
 20
54.650000000000006
 30
0.0
 11
88.25
 21
54.650000000000006
 31
0.0
  0
LINE
  8
0
 62
0
 10
102.25
 20
54.650000000000006
 30
0.0
 11
103.05
 21
54.650000000000006
 31
0.0
  0
LINE
  8
0
 62
0
 10
87.45
 20
51.150000000000006
 30
0.0
 11
87.45
 21
54.650000000000006
 31
0.0
  0
LINE
  8
0
 62
0
 10
103.05
 20
54.650000000000006
 30
0.0
 11
103.05
 21
51.150000000000006
 31
0.0
  0
LINE
  8
0
 62
0
 10
88.25
 20
51.150000000000006
 30
0.0
 11
87.45
 21
51.150000000000006
 31
0.0
  0
LINE
  8
0
 62
0
 10
103.05
 20
51.150000000000006
 30
0.0
 11
102.25
 21
51.150000000000006
 31
0.0
  0
LINE
  8
0
 62
0
 10
88.25
 20
50.150000000000006
 30
0.0
 11
88.25
 21
51.150000000000006
 31
0.0
  0
LINE
  8
0
 62
0
 10
102.25
 20
51.150000000000006
 30
0.0
 11
102.25
 21
50.150000000000006
 31
0.0
  0
LINE
  8
0
 62
0
 10
102.25
 20
50.150000000000006
 30
0.0
 11
88.25
 21
50.150000000000006
 31
0.0
  0
LINE
  8
0
 62
0
 10
69.2
 20
64.15
 30
0.0
 11
83.2
 21
64.15
 31
0.0
  0
LINE
  8
0
 62
0
 10
69.2
 20
63.150000000000006
 30
0.0
 11
69.2
 21
64.15
 31
0.0
  0
LINE
  8
0
 62
0
 10
83.2
 20
64.15
 30
0.0
 11
83.2
 21
63.150000000000006
 31
0.0
  0
LINE
  8
0
 62
0
 10
68.4
 20
63.150000000000006
 30
0.0
 11
69.2
 21
63.150000000000006
 31
0.0
  0
LINE
  8
0
 62
0
 10
83.2
 20
63.150000000000006
 30
0.0
 11
84.0
 21
63.150000000000006
 31
0.0
  0
LINE
  8
0
 62
0
 10
68.4
 20
59.650000000000006
 30
0.0
 11
68.4
 21
63.150000000000006
 31
0.0
  0
LINE
  8
0
 62
0
 10
84.0
 20
63.150000000000006
 30
0.0
 11
84.0
 21
59.650000000000006
 31
0.0
  0
LINE
  8
0
 62
0
 10
69.2
 20
59.650000000000006
 30
0.0
 11
68.4
 21
59.650000000000006
 31
0.0
  0
LINE
  8
0
 62
0
 10
84.0
 20
59.650000000000006
 30
0.0
 11
83.2
 21
59.650000000000006
 31
0.0
  0
LINE
  8
0
 62
0
 10
69.2
 20
54.650000000000006
 30
0.0
 11
69.2
 21
59.650000000000006
 31
0.0
  0
LINE
  8
0
 62
0
 10
83.2
 20
59.650000000000006
 30
0.0
 11
83.2
 21
54.650000000000006
 31
0.0
  0
LINE
  8
0
 62
0
 10
68.4
 20
54.650000000000006
 30
0.0
 11
69.2
 21
54.650000000000006
 31
0.0
  0
LINE
  8
0
 62
0
 10
83.2
 20
54.650000000000006
 30
0.0
 11
84.0
 21
54.650000000000006
 31
0.0
  0
LINE
  8
0
 62
0
 10
68.4
 20
51.150000000000006
 30
0.0
 11
68.4
 21
54.650000000000006
 31
0.0
  0
LINE
  8
0
 62
0
 10
84.0
 20
54.650000000000006
 30
0.0
 11
84.0
 21
51.150000000000006
 31
0.0
  0
LINE
  8
0
 62
0
 10
69.2
 20
51.150000000000006
 30
0.0
 11
68.4
 21
51.150000000000006
 31
0.0
  0
LINE
  8
0
 62
0
 10
84.0
 20
51.150000000000006
 30
0.0
 11
83.2
 21
51.150000000000006
 31
0.0
  0
LINE
  8
0
 62
0
 10
69.2
 20
50.150000000000006
 30
0.0
 11
69.2
 21
51.150000000000006
 31
0.0
  0
LINE
  8
0
 62
0
 10
83.2
 20
51.150000000000006
 30
0.0
 11
83.2
 21
50.150000000000006
 31
0.0
  0
LINE
  8
0
 62
0
 10
83.2
 20
50.150000000000006
 30
0.0
 11
69.2
 21
50.150000000000006
 31
0.0
  0
LINE
  8
0
 62
0
 10
31.1
 20
64.15
 30
0.0
 11
45.1
 21
64.15
 31
0.0
  0
LINE
  8
0
 62
0
 10
31.1
 20
63.150000000000006
 30
0.0
 11
31.1
 21
64.15
 31
0.0
  0
LINE
  8
0
 62
0
 10
45.1
 20
64.15
 30
0.0
 11
45.1
 21
63.150000000000006
 31
0.0
  0
LINE
  8
0
 62
0
 10
30.3
 20
63.150000000000006
 30
0.0
 11
31.1
 21
63.150000000000006
 31
0.0
  0
LINE
  8
0
 62
0
 10
45.1
 20
63.150000000000006
 30
0.0
 11
45.900000000000006
 21
63.150000000000006
 31
0.0
  0
LINE
  8
0
 62
0
 10
30.3
 20
59.650000000000006
 30
0.0
 11
30.3
 21
63.150000000000006
 31
0.0
  0
LINE
  8
0
 62
0
 10
45.900000000000006
 20
63.150000000000006
 30
0.0
 11
45.900000000000006
 21
59.650000000000006
 31
0.0
  0
LINE
  8
0
 62
0
 10
31.1
 20
59.650000000000006
 30
0.0
 11
30.3
 21
59.650000000000006
 31
0.0
  0
LINE
  8
0
 62
0
 10
45.900000000000006
 20
59.650000000000006
 30
0.0
 11
45.10000000000001
 21
59.650000000000006
 31
0.0
  0
LINE
  8
0
 62
0
 10
31.1
 20
54.650000000000006
 30
0.0
 11
31.1
 21
59.650000000000006
 31
0.0
  0
LINE
  8
0
 62
0
 10
45.1
 20
59.650000000000006
 30
0.0
 11
45.1
 21
54.650000000000006
 31
0.0
  0
LINE
  8
0
 62
0
 10
30.3
 20
54.650000000000006
 30
0.0
 11
31.1
 21
54.650000000000006
 31
0.0
  0
LINE
  8
0
 62
0
 10
45.1
 20
54.650000000000006
 30
0.0
 11
45.900000000000006
 21
54.650000000000006
 31
0.0
  0
LINE
  8
0
 62
0
 10
30.3
 20
51.150000000000006
 30
0.0
 11
30.3
 21
54.650000000000006
 31
0.0
  0
LINE
  8
0
 62
0
 10
45.900000000000006
 20
54.650000000000006
 30
0.0
 11
45.900000000000006
 21
51.150000000000006
 31
0.0
  0
LINE
  8
0
 62
0
 10
31.1
 20
51.150000000000006
 30
0.0
 11
30.3
 21
51.150000000000006
 31
0.0
  0
LINE
  8
0
 62
0
 10
45.900000000000006
 20
51.150000000000006
 30
0.0
 11
45.10000000000001
 21
51.150000000000006
 31
0.0
  0
LINE
  8
0
 62
0
 10
31.1
 20
50.150000000000006
 30
0.0
 11
31.1
 21
51.150000000000006
 31
0.0
  0
LINE
  8
0
 62
0
 10
45.1
 20
51.150000000000006
 30
0.0
 11
45.1
 21
50.150000000000006
 31
0.0
  0
LINE
  8
0
 62
0
 10
45.1
 20
50.150000000000006
 30
0.0
 11
31.1
 21
50.150000000000006
 31
0.0
  0
LINE
  8
0
 62
0
 10
50.150000000000006
 20
64.15
 30
0.0
 11
64.15
 21
64.15
 31
0.0
  0
LINE
  8
0
 62
0
 10
50.150000000000006
 20
63.150000000000006
 30
0.0
 11
50.150000000000006
 21
64.15
 31
0.0
  0
LINE
  8
0
 62
0
 10
64.15
 20
64.15
 30
0.0
 11
64.15
 21
63.150000000000006
 31
0.0
  0
LINE
  8
0
 62
0
 10
49.35000000000001
 20
63.150000000000006
 30
0.0
 11
50.150000000000006
 21
63.150000000000006
 31
0.0
  0
LINE
  8
0
 62
0
 10
64.15
 20
63.150000000000006
 30
0.0
 11
64.95
 21
63.150000000000006
 31
0.0
  0
LINE
  8
0
 62
0
 10
49.35000000000001
 20
59.650000000000006
 30
0.0
 11
49.35000000000001
 21
63.150000000000006
 31
0.0
  0
LINE
  8
0
 62
0
 10
64.95
 20
63.150000000000006
 30
0.0
 11
64.95
 21
59.650000000000006
 31
0.0
  0
LINE
  8
0
 62
0
 10
50.150000000000006
 20
59.650000000000006
 30
0.0
 11
49.35000000000001
 21
59.650000000000006
 31
0.0
  0
LINE
  8
0
 62
0
 10
64.95
 20
59.650000000000006
 30
0.0
 11
64.15
 21
59.650000000000006
 31
0.0
  0
LINE
  8
0
 62
0
 10
50.150000000000006
 20
54.650000000000006
 30
0.0
 11
50.150000000000006
 21
59.650000000000006
 31
0.0
  0
LINE
  8
0
 62
0
 10
64.15
 20
59.650000000000006
 30
0.0
 11
64.15
 21
54.650000000000006
 31
0.0
  0
LINE
  8
0
 62
0
 10
49.35000000000001
 20
54.650000000000006
 30
0.0
 11
50.150000000000006
 21
54.650000000000006
 31
0.0
  0
LINE
  8
0
 62
0
 10
64.15
 20
54.650000000000006
 30
0.0
 11
64.95
 21
54.650000000000006
 31
0.0
  0
LINE
  8
0
 62
0
 10
49.35000000000001
 20
51.150000000000006
 30
0.0
 11
49.35000000000001
 21
54.650000000000006
 31
0.0
  0
LINE
  8
0
 62
0
 10
64.95
 20
54.650000000000006
 30
0.0
 11
64.95
 21
51.150000000000006
 31
0.0
  0
LINE
  8
0
 62
0
 10
50.150000000000006
 20
51.150000000000006
 30
0.0
 11
49.35000000000001
 21
51.150000000000006
 31
0.0
  0
LINE
  8
0
 62
0
 10
64.95
 20
51.150000000000006
 30
0.0
 11
64.15
 21
51.150000000000006
 31
0.0
  0
LINE
  8
0
 62
0
 10
50.150000000000006
 20
50.150000000000006
 30
0.0
 11
50.150000000000006
 21
51.150000000000006
 31
0.0
  0
LINE
  8
0
 62
0
 10
64.15
 20
51.150000000000006
 30
0.0
 11
64.15
 21
50.150000000000006
 31
0.0
  0
LINE
  8
0
 62
0
 10
64.15
 20
50.150000000000006
 30
0.0
 11
50.150000000000006
 21
50.150000000000006
 31
0.0
  0
LINE
  8
0
 62
0
 10
107.30000000000001
 20
64.15
 30
0.0
 11
121.30000000000001
 21
64.15
 31
0.0
  0
LINE
  8
0
 62
0
 10
121.30000000000001
 20
64.15
 30
0.0
 11
121.30000000000001
 21
63.150000000000006
 31
0.0
  0
LINE
  8
0
 62
0
 10
121.30000000000001
 20
63.150000000000006
 30
0.0
 11
122.10000000000001
 21
63.150000000000006
 31
0.0
  0
LINE
  8
0
 62
0
 10
122.10000000000001
 20
63.150000000000006
 30
0.0
 11
122.10000000000001
 21
59.650000000000006
 31
0.0
  0
LINE
  8
0
 62
0
 10
122.10000000000001
 20
59.650000000000006
 30
0.0
 11
121.30000000000001
 21
59.650000000000006
 31
0.0
  0
LINE
  8
0
 62
0
 10
121.30000000000001
 20
59.650000000000006
 30
0.0
 11
121.30000000000001
 21
54.650000000000006
 31
0.0
  0
LINE
  8
0
 62
0
 10
121.30000000000001
 20
54.650000000000006
 30
0.0
 11
122.10000000000001
 21
54.650000000000006
 31
0.0
  0
LINE
  8
0
 62
0
 10
122.10000000000001
 20
54.650000000000006
 30
0.0
 11
122.10000000000001
 21
51.150000000000006
 31
0.0
  0
LINE
  8
0
 62
0
 10
122.10000000000001
 20
51.150000000000006
 30
0.0
 11
121.30000000000001
 21
51.150000000000006
 31
0.0
  0
LINE
  8
0
 62
0
 10
121.30000000000001
 20
51.150000000000006
 30
0.0
 11
121.30000000000001
 21
50.150000000000006
 31
0.0
  0
LINE
  8
0
 62
0
 10
121.30000000000001
 20
50.150000000000006
 30
0.0
 11
107.30000000000001
 21
50.150000000000006
 31
0.0
  0
LINE
  8
0
 62
0
 10
107.30000000000001
 20
50.150000000000006
 30
0.0
 11
107.30000000000001
 21
51.150000000000006
 31
0.0
  0
LINE
  8
0
 62
0
 10
107.30000000000001
 20
51.150000000000006
 30
0.0
 11
106.50000000000001
 21
51.150000000000006
 31
0.0
  0
LINE
  8
0
 62
0
 10
106.50000000000001
 20
51.150000000000006
 30
0.0
 11
106.50000000000001
 21
54.650000000000006
 31
0.0
  0
LINE
  8
0
 62
0
 10
106.50000000000001
 20
54.650000000000006
 30
0.0
 11
107.30000000000001
 21
54.650000000000006
 31
0.0
  0
LINE
  8
0
 62
0
 10
107.30000000000001
 20
54.650000000000006
 30
0.0
 11
107.30000000000001
 21
59.650000000000006
 31
0.0
  0
LINE
  8
0
 62
0
 10
107.30000000000001
 20
59.650000000000006
 30
0.0
 11
106.50000000000001
 21
59.650000000000006
 31
0.0
  0
LINE
  8
0
 62
0
 10
106.50000000000001
 20
59.650000000000006
 30
0.0
 11
106.50000000000001
 21
63.150000000000006
 31
0.0
  0
LINE
  8
0
 62
0
 10
106.50000000000001
 20
63.150000000000006
 30
0.0
 11
107.30000000000001
 21
63.150000000000006
 31
0.0
  0
LINE
  8
0
 62
0
 10
107.30000000000001
 20
63.150000000000006
 30
0.0
 11
107.30000000000001
 21
64.15
 31
0.0
  0
LINE
  8
0
 62
0
 10
-7.000000000000001
 20
64.15
 30
0.0
 11
6.999999999999999
 21
64.15
 31
0.0
  0
LINE
  8
0
 62
0
 10
-7.000000000000001
 20
63.150000000000006
 30
0.0
 11
-7.000000000000001
 21
64.15
 31
0.0
  0
LINE
  8
0
 62
0
 10
6.999999999999999
 20
64.15
 30
0.0
 11
6.999999999999999
 21
63.150000000000006
 31
0.0
  0
LINE
  8
0
 62
0
 10
-7.800000000000001
 20
63.150000000000006
 30
0.0
 11
-7.000000000000001
 21
63.150000000000006
 31
0.0
  0
LINE
  8
0
 62
0
 10
6.999999999999999
 20
63.150000000000006
 30
0.0
 11
7.800000000000001
 21
63.150000000000006
 31
0.0
  0
LINE
  8
0
 62
0
 10
-7.800000000000001
 20
59.650000000000006
 30
0.0
 11
-7.800000000000001
 21
63.150000000000006
 31
0.0
  0
LINE
  8
0
 62
0
 10
7.800000000000001
 20
63.150000000000006
 30
0.0
 11
7.800000000000001
 21
59.650000000000006
 31
0.0
  0
LINE
  8
0
 62
0
 10
-7.000000000000001
 20
59.650000000000006
 30
0.0
 11
-7.800000000000001
 21
59.650000000000006
 31
0.0
  0
LINE
  8
0
 62
0
 10
7.800000000000001
 20
59.650000000000006
 30
0.0
 11
7.0
 21
59.650000000000006
 31
0.0
  0
LINE
  8
0
 62
0
 10
-7.000000000000001
 20
54.650000000000006
 30
0.0
 11
-7.000000000000001
 21
59.650000000000006
 31
0.0
  0
LINE
  8
0
 62
0
 10
7.0
 20
59.650000000000006
 30
0.0
 11
7.0
 21
54.650000000000006
 31
0.0
  0
LINE
  8
0
 62
0
 10
-7.800000000000001
 20
54.650000000000006
 30
0.0
 11
-7.000000000000001
 21
54.650000000000006
 31
0.0
  0
LINE
  8
0
 62
0
 10
7.0
 20
54.650000000000006
 30
0.0
 11
7.800000000000001
 21
54.650000000000006
 31
0.0
  0
LINE
  8
0
 62
0
 10
-7.800000000000001
 20
51.150000000000006
 30
0.0
 11
-7.800000000000001
 21
54.650000000000006
 31
0.0
  0
LINE
  8
0
 62
0
 10
7.800000000000001
 20
54.650000000000006
 30
0.0
 11
7.800000000000001
 21
51.150000000000006
 31
0.0
  0
LINE
  8
0
 62
0
 10
-7.000000000000001
 20
51.150000000000006
 30
0.0
 11
-7.800000000000001
 21
51.150000000000006
 31
0.0
  0
LINE
  8
0
 62
0
 10
7.800000000000001
 20
51.150000000000006
 30
0.0
 11
7.0
 21
51.150000000000006
 31
0.0
  0
LINE
  8
0
 62
0
 10
-7.000000000000001
 20
50.150000000000006
 30
0.0
 11
-7.000000000000001
 21
51.150000000000006
 31
0.0
  0
LINE
  8
0
 62
0
 10
7.0
 20
51.150000000000006
 30
0.0
 11
7.0
 21
50.150000000000006
 31
0.0
  0
LINE
  8
0
 62
0
 10
7.0
 20
50.150000000000006
 30
0.0
 11
-7.0
 21
50.150000000000006
 31
0.0
  0
LINE
  8
0
 62
0
 10
12.05
 20
64.15
 30
0.0
 11
26.05
 21
64.15
 31
0.0
  0
LINE
  8
0
 62
0
 10
12.05
 20
63.150000000000006
 30
0.0
 11
12.05
 21
64.15
 31
0.0
  0
LINE
  8
0
 62
0
 10
26.05
 20
64.15
 30
0.0
 11
26.05
 21
63.150000000000006
 31
0.0
  0
LINE
  8
0
 62
0
 10
11.25
 20
63.150000000000006
 30
0.0
 11
12.05
 21
63.150000000000006
 31
0.0
  0
LINE
  8
0
 62
0
 10
26.05
 20
63.150000000000006
 30
0.0
 11
26.85
 21
63.150000000000006
 31
0.0
  0
LINE
  8
0
 62
0
 10
11.25
 20
59.650000000000006
 30
0.0
 11
11.25
 21
63.150000000000006
 31
0.0
  0
LINE
  8
0
 62
0
 10
26.85
 20
63.150000000000006
 30
0.0
 11
26.85
 21
59.650000000000006
 31
0.0
  0
LINE
  8
0
 62
0
 10
12.05
 20
59.650000000000006
 30
0.0
 11
11.25
 21
59.650000000000006
 31
0.0
  0
LINE
  8
0
 62
0
 10
26.85
 20
59.650000000000006
 30
0.0
 11
26.05
 21
59.650000000000006
 31
0.0
  0
LINE
  8
0
 62
0
 10
12.05
 20
54.650000000000006
 30
0.0
 11
12.05
 21
59.650000000000006
 31
0.0
  0
LINE
  8
0
 62
0
 10
26.05
 20
59.650000000000006
 30
0.0
 11
26.05
 21
54.650000000000006
 31
0.0
  0
LINE
  8
0
 62
0
 10
11.25
 20
54.650000000000006
 30
0.0
 11
12.05
 21
54.650000000000006
 31
0.0
  0
LINE
  8
0
 62
0
 10
26.05
 20
54.650000000000006
 30
0.0
 11
26.85
 21
54.650000000000006
 31
0.0
  0
LINE
  8
0
 62
0
 10
11.25
 20
51.150000000000006
 30
0.0
 11
11.25
 21
54.650000000000006
 31
0.0
  0
LINE
  8
0
 62
0
 10
26.85
 20
54.650000000000006
 30
0.0
 11
26.85
 21
51.150000000000006
 31
0.0
  0
LINE
  8
0
 62
0
 10
12.05
 20
51.150000000000006
 30
0.0
 11
11.25
 21
51.150000000000006
 31
0.0
  0
LINE
  8
0
 62
0
 10
26.85
 20
51.150000000000006
 30
0.0
 11
26.05
 21
51.150000000000006
 31
0.0
  0
LINE
  8
0
 62
0
 10
12.05
 20
50.150000000000006
 30
0.0
 11
12.05
 21
51.150000000000006
 31
0.0
  0
LINE
  8
0
 62
0
 10
26.05
 20
51.150000000000006
 30
0.0
 11
26.05
 21
50.150000000000006
 31
0.0
  0
LINE
  8
0
 62
0
 10
26.05
 20
50.150000000000006
 30
0.0
 11
12.05
 21
50.150000000000006
 31
0.0
  0
ENDBLK
  0
ENDSEC
  0
SECTION
  2
ENTITIES
  0
INSERT
  2
BODY001
  8
0
 62
0
 10
0.0
 20
0.0
 30
0.0
  0
ENDSEC
  0
EOF
