<?xml version="1.0" encoding="UTF-8" standalone="no"?>
<!-- Created with Inkscape (http://www.inkscape.org/) -->

<svg
   xmlns:dc="http://purl.org/dc/elements/1.1/"
   xmlns:cc="http://creativecommons.org/ns#"
   xmlns:rdf="http://www.w3.org/1999/02/22-rdf-syntax-ns#"
   xmlns:svg="http://www.w3.org/2000/svg"
   xmlns="http://www.w3.org/2000/svg"
   xmlns:sodipodi="http://sodipodi.sourceforge.net/DTD/sodipodi-0.dtd"
   xmlns:inkscape="http://www.inkscape.org/namespaces/inkscape"
   version="1.1"
   id="svg2"
   xml:space="preserve"
   width="1209.4493"
   height="1020.472"
   viewBox="0 0 1209.4493 1020.472"
   sodipodi:docname="ergo42-case-3_0_0_elecrow.svg"
   inkscape:version="0.92.4 5da689c313, 2019-01-14"><metadata
     id="metadata8"><rdf:RDF><cc:Work
         rdf:about=""><dc:format>image/svg+xml</dc:format><dc:type
           rdf:resource="http://purl.org/dc/dcmitype/StillImage" /><dc:title /></cc:Work></rdf:RDF></metadata><defs
     id="defs6"><clipPath
       clipPathUnits="userSpaceOnUse"
       id="clipPath130"><path
         d="M 0,765.354 H 907.087 V 0 H 0 Z"
         id="path128"
         inkscape:connector-curvature="0" /></clipPath></defs><sodipodi:namedview
     pagecolor="#ffffff"
     bordercolor="#666666"
     borderopacity="1"
     objecttolerance="10"
     gridtolerance="10"
     guidetolerance="10"
     inkscape:pageopacity="0"
     inkscape:pageshadow="2"
     inkscape:window-width="459"
     inkscape:window-height="1034"
     id="namedview4"
     showgrid="false"
     inkscape:zoom="0.46253107"
     inkscape:cx="358.52858"
     inkscape:cy="569.54243"
     inkscape:window-x="1447"
     inkscape:window-y="412"
     inkscape:window-maximized="0"
     inkscape:current-layer="g10" /><g
     id="g10"
     inkscape:groupmode="layer"
     inkscape:label="ergo42-case-3_0_0_elecrow"
     transform="matrix(1.3333333,0,0,-1.3333333,0,1020.472)"><g
       id="g1972"
       transform="translate(278.90019,-81.075637)"><path
         d="m 425.18707,541.12548 v 2.834 h 2.268 v 8.788 h -2.268 v 16.441 h 2.268 v 8.788 h -2.268 v 2.834 h -39.685 v -2.834 h -2.265 v -8.788 h 2.265 v -16.441 h -2.265 v -8.788 h 2.265 v -2.834 z"
         style="fill:none;stroke:#ff0000;stroke-width:0.75;stroke-linecap:butt;stroke-linejoin:miter;stroke-miterlimit:4;stroke-dasharray:none;stroke-opacity:1"
         id="path14"
         inkscape:connector-curvature="0" /><path
         d="m 425.18707,595.12688 v 2.834 h 2.268 v 8.788 h -2.268 v 16.441 h 2.268 v 8.787 h -2.268 v 2.835 h -39.685 v -2.835 h -2.265 v -8.787 h 2.265 v -16.441 h -2.265 v -8.788 h 2.265 v -2.834 z"
         style="fill:none;stroke:#ff0000;stroke-width:0.75;stroke-linecap:butt;stroke-linejoin:miter;stroke-miterlimit:4;stroke-dasharray:none;stroke-opacity:1"
         id="path18"
         inkscape:connector-curvature="0" /><path
         d="m 425.18707,649.12838 v 2.834 h 2.268 v 8.788 h -2.268 v 16.441 h 2.268 v 8.787 h -2.268 v 2.835 h -39.685 v -2.835 h -2.265 v -8.787 h 2.265 v -16.441 h -2.265 v -8.788 h 2.265 v -2.834 z"
         style="fill:none;stroke:#ff0000;stroke-width:0.75;stroke-linecap:butt;stroke-linejoin:miter;stroke-miterlimit:4;stroke-dasharray:none;stroke-opacity:1"
         id="path22"
         inkscape:connector-curvature="0" /><path
         d="m 425.18707,703.12688 v 2.834 h 2.268 v 8.788 h -2.268 v 16.441 h 2.268 v 8.788 h -2.268 v 2.834 h -39.685 v -2.834 h -2.265 v -8.788 h 2.265 v -16.441 h -2.265 v -8.788 h 2.265 v -2.834 z"
         style="fill:none;stroke:#ff0000;stroke-width:0.75;stroke-linecap:butt;stroke-linejoin:miter;stroke-miterlimit:4;stroke-dasharray:none;stroke-opacity:1"
         id="path26"
         inkscape:connector-curvature="0" /><path
         d="m 371.18707,541.12498 v 2.834 h 2.268 v 8.788 h -2.268 v 16.441 h 2.268 v 8.787 h -2.268 v 2.835 h -39.685 v -2.835 h -2.265 v -8.787 h 2.265 v -16.441 h -2.265 v -8.788 h 2.265 v -2.834 z"
         style="fill:none;stroke:#ff0000;stroke-width:0.75;stroke-linecap:butt;stroke-linejoin:miter;stroke-miterlimit:4;stroke-dasharray:none;stroke-opacity:1"
         id="path30"
         inkscape:connector-curvature="0" /><path
         d="m 371.18707,595.12588 v 2.835 h 2.268 v 8.787 h -2.268 v 16.441 h 2.268 v 8.788 h -2.268 v 2.834 h -39.685 v -2.834 h -2.265 v -8.788 h 2.265 v -16.441 h -2.265 v -8.787 h 2.265 v -2.835 z"
         style="fill:none;stroke:#ff0000;stroke-width:0.75;stroke-linecap:butt;stroke-linejoin:miter;stroke-miterlimit:4;stroke-dasharray:none;stroke-opacity:1"
         id="path34"
         inkscape:connector-curvature="0" /><path
         d="m 371.18707,649.12738 v 2.835 h 2.268 v 8.787 h -2.268 v 16.441 h 2.268 v 8.788 h -2.268 v 2.834 h -39.685 v -2.834 h -2.265 v -8.788 h 2.265 v -16.441 h -2.265 v -8.787 h 2.265 v -2.835 z"
         style="fill:none;stroke:#ff0000;stroke-width:0.75;stroke-linecap:butt;stroke-linejoin:miter;stroke-miterlimit:4;stroke-dasharray:none;stroke-opacity:1"
         id="path38"
         inkscape:connector-curvature="0" /><path
         d="m 371.18707,703.12588 v 2.835 h 2.268 v 8.787 h -2.268 v 16.441 h 2.268 v 8.788 h -2.268 v 2.834 h -39.685 v -2.834 h -2.265 v -8.788 h 2.265 v -16.441 h -2.265 v -8.787 h 2.265 v -2.835 z"
         style="fill:none;stroke:#ff0000;stroke-width:0.75;stroke-linecap:butt;stroke-linejoin:miter;stroke-miterlimit:4;stroke-dasharray:none;stroke-opacity:1"
         id="path42"
         inkscape:connector-curvature="0" /><path
         d="m 317.18857,541.11908 v 2.834 h 2.268 v 8.788 h -2.268 v 16.441 h 2.268 v 8.787 h -2.268 v 2.835 h -39.685 v -2.835 h -2.265 v -8.787 h 2.265 v -16.441 h -2.265 v -8.788 h 2.265 v -2.834 z"
         style="fill:none;stroke:#ff0000;stroke-width:0.75;stroke-linecap:butt;stroke-linejoin:miter;stroke-miterlimit:4;stroke-dasharray:none;stroke-opacity:1"
         id="path46"
         inkscape:connector-curvature="0" /><path
         d="m 317.18857,595.12058 v 2.834 h 2.268 v 8.788 h -2.268 v 16.441 h 2.268 v 8.787 h -2.268 v 2.835 h -39.685 v -2.835 h -2.265 v -8.787 h 2.265 v -16.441 h -2.265 v -8.788 h 2.265 v -2.834 z"
         style="fill:none;stroke:#ff0000;stroke-width:0.75;stroke-linecap:butt;stroke-linejoin:miter;stroke-miterlimit:4;stroke-dasharray:none;stroke-opacity:1"
         id="path50"
         inkscape:connector-curvature="0" /><path
         d="m 317.18857,649.12198 v 2.834 h 2.268 v 8.788 h -2.268 v 16.441 h 2.268 v 8.787 h -2.268 v 2.835 h -39.685 v -2.835 h -2.265 v -8.787 h 2.265 v -16.441 h -2.265 v -8.788 h 2.265 v -2.834 z"
         style="fill:none;stroke:#ff0000;stroke-width:0.75;stroke-linecap:butt;stroke-linejoin:miter;stroke-miterlimit:4;stroke-dasharray:none;stroke-opacity:1"
         id="path54"
         inkscape:connector-curvature="0" /><path
         d="m 317.18857,703.12058 v 2.834 h 2.268 v 8.788 h -2.268 v 16.441 h 2.268 v 8.787 h -2.268 v 2.835 h -39.685 v -2.835 h -2.265 v -8.787 h 2.265 v -16.441 h -2.265 v -8.788 h 2.265 v -2.834 z"
         style="fill:none;stroke:#ff0000;stroke-width:0.75;stroke-linecap:butt;stroke-linejoin:miter;stroke-miterlimit:4;stroke-dasharray:none;stroke-opacity:1"
         id="path58"
         inkscape:connector-curvature="0" /><path
         d="m 263.18907,541.11818 v 2.835 h 2.268 v 8.787 h -2.268 v 16.441 h 2.268 v 8.788 h -2.268 v 2.834 h -39.685 v -2.834 h -2.265 v -8.788 h 2.265 v -16.441 h -2.265 v -8.787 h 2.265 v -2.835 z"
         style="fill:none;stroke:#ff0000;stroke-width:0.75;stroke-linecap:butt;stroke-linejoin:miter;stroke-miterlimit:4;stroke-dasharray:none;stroke-opacity:1"
         id="path62"
         inkscape:connector-curvature="0" /><path
         d="m 263.18907,595.11958 v 2.835 h 2.268 v 8.787 h -2.268 v 16.441 h 2.268 v 8.788 h -2.268 v 2.834 h -39.685 v -2.834 h -2.265 v -8.788 h 2.265 v -16.441 h -2.265 v -8.787 h 2.265 v -2.835 z"
         style="fill:none;stroke:#ff0000;stroke-width:0.75;stroke-linecap:butt;stroke-linejoin:miter;stroke-miterlimit:4;stroke-dasharray:none;stroke-opacity:1"
         id="path66"
         inkscape:connector-curvature="0" /><path
         d="m 263.18907,649.12108 v 2.834 h 2.268 v 8.788 h -2.268 v 16.441 h 2.268 v 8.788 h -2.268 v 2.834 h -39.685 v -2.834 h -2.265 v -8.788 h 2.265 v -16.441 h -2.265 v -8.788 h 2.265 v -2.834 z"
         style="fill:none;stroke:#ff0000;stroke-width:0.75;stroke-linecap:butt;stroke-linejoin:miter;stroke-miterlimit:4;stroke-dasharray:none;stroke-opacity:1"
         id="path70"
         inkscape:connector-curvature="0" /><path
         d="m 263.18907,703.11958 v 2.835 h 2.268 v 8.787 h -2.268 v 16.441 h 2.268 v 8.788 h -2.268 v 2.834 h -39.685 v -2.834 h -2.265 v -8.788 h 2.265 v -16.441 h -2.265 v -8.787 h 2.265 v -2.835 z"
         style="fill:none;stroke:#ff0000;stroke-width:0.75;stroke-linecap:butt;stroke-linejoin:miter;stroke-miterlimit:4;stroke-dasharray:none;stroke-opacity:1"
         id="path74"
         inkscape:connector-curvature="0" /><path
         d="m 209.18807,541.12788 v 2.835 h 2.268 v 8.787 h -2.268 v 16.441 h 2.268 v 8.788 h -2.268 v 2.834 h -39.685 v -2.834 h -2.265 v -8.788 h 2.265 v -16.441 h -2.265 v -8.787 h 2.265 v -2.835 z"
         style="fill:none;stroke:#ff0000;stroke-width:0.75;stroke-linecap:butt;stroke-linejoin:miter;stroke-miterlimit:4;stroke-dasharray:none;stroke-opacity:1"
         id="path78"
         inkscape:connector-curvature="0" /><path
         d="m 209.18807,595.12938 v 2.834 h 2.268 v 8.788 h -2.268 v 16.441 h 2.268 v 8.788 h -2.268 v 2.834 h -39.685 v -2.834 h -2.265 v -8.788 h 2.265 v -16.441 h -2.265 v -8.788 h 2.265 v -2.834 z"
         style="fill:none;stroke:#ff0000;stroke-width:0.75;stroke-linecap:butt;stroke-linejoin:miter;stroke-miterlimit:4;stroke-dasharray:none;stroke-opacity:1"
         id="path82"
         inkscape:connector-curvature="0" /><path
         d="m 209.18807,649.13078 v 2.834 h 2.268 v 8.788 h -2.268 v 16.441 h 2.268 v 8.788 h -2.268 v 2.834 h -39.685 v -2.834 h -2.265 v -8.788 h 2.265 v -16.441 h -2.265 v -8.788 h 2.265 v -2.834 z"
         style="fill:none;stroke:#ff0000;stroke-width:0.75;stroke-linecap:butt;stroke-linejoin:miter;stroke-miterlimit:4;stroke-dasharray:none;stroke-opacity:1"
         id="path86"
         inkscape:connector-curvature="0" /><path
         d="m 209.18807,703.12938 v 2.834 h 2.268 v 8.788 h -2.268 v 16.441 h 2.268 v 8.788 h -2.268 v 2.834 h -39.685 v -2.834 h -2.265 v -8.788 h 2.265 v -16.441 h -2.265 v -8.788 h 2.265 v -2.834 z"
         style="fill:none;stroke:#ff0000;stroke-width:0.75;stroke-linecap:butt;stroke-linejoin:miter;stroke-miterlimit:4;stroke-dasharray:none;stroke-opacity:1"
         id="path90"
         inkscape:connector-curvature="0" /><path
         d="m 155.18907,541.12208 v 2.835 h 2.268 v 8.787 h -2.268 v 16.441 h 2.268 v 8.788 h -2.268 v 2.834 h -39.685 v -2.834 h -2.265 v -8.788 h 2.265 v -16.441 h -2.265 v -8.787 h 2.265 v -2.835 z"
         style="fill:none;stroke:#ff0000;stroke-width:0.75;stroke-linecap:butt;stroke-linejoin:miter;stroke-miterlimit:4;stroke-dasharray:none;stroke-opacity:1"
         id="path94"
         inkscape:connector-curvature="0" /><path
         d="m 155.18907,595.12348 v 2.835 h 2.268 v 8.787 h -2.268 v 16.441 h 2.268 v 8.788 h -2.268 v 2.834 h -39.685 v -2.834 h -2.265 v -8.788 h 2.265 v -16.441 h -2.265 v -8.787 h 2.265 v -2.835 z"
         style="fill:none;stroke:#ff0000;stroke-width:0.75;stroke-linecap:butt;stroke-linejoin:miter;stroke-miterlimit:4;stroke-dasharray:none;stroke-opacity:1"
         id="path98"
         inkscape:connector-curvature="0" /><path
         d="m 155.18907,649.12498 v 2.835 h 2.268 v 8.787 h -2.268 v 16.441 h 2.268 v 8.788 h -2.268 v 2.834 h -39.685 v -2.834 h -2.265 v -8.788 h 2.265 v -16.441 h -2.265 v -8.787 h 2.265 v -2.835 z"
         style="fill:none;stroke:#ff0000;stroke-width:0.75;stroke-linecap:butt;stroke-linejoin:miter;stroke-miterlimit:4;stroke-dasharray:none;stroke-opacity:1"
         id="path102"
         inkscape:connector-curvature="0" /><path
         d="m 155.18907,703.12348 v 2.835 h 2.268 v 8.787 h -2.268 v 16.441 h 2.268 v 8.788 h -2.268 v 2.834 h -39.685 v -2.834 h -2.265 v -8.788 h 2.265 v -16.441 h -2.265 v -8.787 h 2.265 v -2.835 z"
         style="fill:none;stroke:#ff0000;stroke-width:0.75;stroke-linecap:butt;stroke-linejoin:miter;stroke-miterlimit:4;stroke-dasharray:none;stroke-opacity:1"
         id="path106"
         inkscape:connector-curvature="0" /><path
         d="m 101.18957,541.12158 v 2.834 h 2.268 v 8.788 h -2.268 v 16.441 h 2.268 v 8.787 h -2.268 v 2.835 H 61.504569 v -2.835 h -2.265 v -8.787 h 2.265 v -16.441 h -2.265 v -8.788 h 2.265 v -2.834 z"
         style="fill:none;stroke:#ff0000;stroke-width:0.75;stroke-linecap:butt;stroke-linejoin:miter;stroke-miterlimit:4;stroke-dasharray:none;stroke-opacity:1"
         id="path110"
         inkscape:connector-curvature="0" /><path
         d="m 101.18957,595.12298 v 2.834 h 2.268 v 8.788 h -2.268 v 16.441 h 2.268 v 8.787 h -2.268 v 2.835 H 61.504569 v -2.835 h -2.265 v -8.787 h 2.265 v -16.441 h -2.265 v -8.788 h 2.265 v -2.834 z"
         style="fill:none;stroke:#ff0000;stroke-width:0.75;stroke-linecap:butt;stroke-linejoin:miter;stroke-miterlimit:4;stroke-dasharray:none;stroke-opacity:1"
         id="path114"
         inkscape:connector-curvature="0" /><path
         d="m 101.18957,649.12448 v 2.834 h 2.268 v 8.788 h -2.268 v 16.441 h 2.268 v 8.787 h -2.268 v 2.835 H 61.504569 v -2.835 h -2.265 v -8.787 h 2.265 v -16.441 h -2.265 v -8.788 h 2.265 v -2.834 z"
         style="fill:none;stroke:#ff0000;stroke-width:0.75;stroke-linecap:butt;stroke-linejoin:miter;stroke-miterlimit:4;stroke-dasharray:none;stroke-opacity:1"
         id="path118"
         inkscape:connector-curvature="0" /><path
         d="m 101.18957,703.12298 v 2.834 h 2.268 v 8.788 h -2.268 v 16.441 h 2.268 v 8.787 h -2.268 v 2.835 H 61.504569 v -2.835 h -2.265 v -8.787 h 2.265 v -16.441 h -2.265 v -8.788 h 2.265 v -2.834 z"
         style="fill:none;stroke:#ff0000;stroke-width:0.75;stroke-linecap:butt;stroke-linejoin:miter;stroke-miterlimit:4;stroke-dasharray:none;stroke-opacity:1"
         id="path122"
         inkscape:connector-curvature="0" /><path
         d="m 374.89117,587.94088 c 0,-1.837 1.489,-3.326 3.326,-3.326 1.837,0 3.326,1.489 3.326,3.326 0,1.837 -1.489,3.326 -3.326,3.326 -1.837,0 -3.326,-1.489 -3.326,-3.326 z"
         style="fill:none;stroke:#ff0000;stroke-width:0.75;stroke-linecap:round;stroke-linejoin:miter;stroke-miterlimit:4;stroke-dasharray:none;stroke-opacity:1"
         id="path134"
         inkscape:connector-curvature="0" /><path
         d="m 374.93857,695.99508 c 0,-1.837 1.49,-3.327 3.327,-3.327 1.838,0 3.327,1.49 3.327,3.327 0,1.837 -1.489,3.327 -3.327,3.327 -1.837,0 -3.327,-1.49 -3.327,-3.327 z"
         style="fill:none;stroke:#ff0000;stroke-width:0.75;stroke-linecap:round;stroke-linejoin:miter;stroke-miterlimit:4;stroke-dasharray:none;stroke-opacity:1"
         id="path138"
         inkscape:connector-curvature="0" /><path
         d="m 104.94147,695.99508 c 0,-1.836 1.488,-3.325 3.324,-3.325 1.837,0 3.325,1.489 3.325,3.325 0,1.836 -1.488,3.324 -3.325,3.324 -1.836,0 -3.324,-1.488 -3.324,-3.324 z"
         style="fill:none;stroke:#ff0000;stroke-width:0.75;stroke-linecap:round;stroke-linejoin:miter;stroke-miterlimit:4;stroke-dasharray:none;stroke-opacity:1"
         id="path142"
         inkscape:connector-curvature="0" /><path
         d="m 104.92487,587.99508 c 0,-1.843 1.494,-3.337 3.337,-3.337 1.844,0 3.338,1.494 3.338,3.337 0,1.843 -1.494,3.337 -3.338,3.337 -1.843,0 -3.337,-1.494 -3.337,-3.337 z"
         style="fill:none;stroke:#ff0000;stroke-width:0.75;stroke-linecap:round;stroke-linejoin:miter;stroke-miterlimit:4;stroke-dasharray:none;stroke-opacity:1"
         id="path146"
         inkscape:connector-curvature="0" /><path
         d="m 266.93267,641.96188 c 0,-1.839 1.491,-3.33 3.33,-3.33 1.838,0 3.329,1.491 3.329,3.33 0,1.839 -1.491,3.33 -3.329,3.33 -1.839,0 -3.33,-1.491 -3.33,-3.33 z"
         style="fill:none;stroke:#ff0000;stroke-width:0.75;stroke-linecap:round;stroke-linejoin:miter;stroke-miterlimit:4;stroke-dasharray:none;stroke-opacity:1"
         id="path150"
         inkscape:connector-curvature="0" /><path
         d="M 54.451269,757.13128 H 432.25527 c 4.005,0 7.251,-3.246 7.251,-7.251 v -215.824 c 0,-4.004 -3.246,-7.25 -7.251,-7.25 H 54.451269 c -4.004,0 -7.25,3.246 -7.25,7.25 v 215.824 c 0,4.005 3.246,7.251 7.25,7.251 z"
         style="fill:none;stroke:#ff0000;stroke-width:0.75;stroke-linecap:round;stroke-linejoin:miter;stroke-miterlimit:4;stroke-dasharray:none;stroke-opacity:1"
         id="path154"
         inkscape:connector-curvature="0" /></g><g
       id="g1980"
       transform="translate(22.701178,19.458157)"><path
         d="m 27.412458,496.18231 c 0,-1.838 1.49,-3.328 3.328,-3.328 1.837,0 3.327,1.49 3.327,3.328 0,1.838 -1.49,3.328 -3.327,3.328 -1.838,0 -3.328,-1.49 -3.328,-3.328 z"
         style="fill:none;stroke:#ff0000;stroke-width:0.75;stroke-linecap:round;stroke-linejoin:miter;stroke-miterlimit:4;stroke-dasharray:none;stroke-opacity:1"
         id="path158"
         inkscape:connector-curvature="0" /><path
         d="m 27.412458,448.18231 c 0,-1.838 1.49,-3.328 3.328,-3.328 1.837,0 3.327,1.49 3.327,3.328 0,1.838 -1.49,3.328 -3.327,3.328 -1.838,0 -3.328,-1.49 -3.328,-3.328 z"
         style="fill:none;stroke:#ff0000;stroke-width:0.75;stroke-linecap:round;stroke-linejoin:miter;stroke-miterlimit:4;stroke-dasharray:none;stroke-opacity:1"
         id="path162"
         inkscape:connector-curvature="0" /><path
         d="m 228.41246,496.18231 c 0,-1.838 1.49,-3.328 3.328,-3.328 1.837,0 3.327,1.49 3.327,3.328 0,1.838 -1.49,3.328 -3.327,3.328 -1.838,0 -3.328,-1.49 -3.328,-3.328 z"
         style="fill:none;stroke:#ff0000;stroke-width:0.75;stroke-linecap:round;stroke-linejoin:miter;stroke-miterlimit:4;stroke-dasharray:none;stroke-opacity:1"
         id="path166"
         inkscape:connector-curvature="0" /><path
         d="m 179.41246,448.18231 c 0,-1.838 1.49,-3.328 3.328,-3.328 1.837,0 3.327,1.49 3.327,3.328 0,1.838 -1.49,3.328 -3.327,3.328 -1.838,0 -3.328,-1.49 -3.328,-3.328 z"
         style="fill:none;stroke:#ff0000;stroke-width:0.75;stroke-linecap:round;stroke-linejoin:miter;stroke-miterlimit:4;stroke-dasharray:none;stroke-opacity:1"
         id="path170"
         inkscape:connector-curvature="0" /><path
         d="m 58.923158,494.96601 c 0,-1.838 1.49,-3.328 3.327,-3.328 1.838,0 3.328,1.49 3.328,3.328 0,1.838 -1.49,3.328 -3.328,3.328 -1.837,0 -3.327,-1.49 -3.327,-3.328 z"
         style="fill:none;stroke:#ff0000;stroke-width:0.75;stroke-linecap:round;stroke-linejoin:miter;stroke-miterlimit:4;stroke-dasharray:none;stroke-opacity:1"
         id="path174"
         inkscape:connector-curvature="0" /><path
         d="m 28.107758,505.78731 205.960002,0.011 c 8.5,0 11.691,-9.616 4.772,-16.514 l -46.737,-45.43 c -3.141,-3.13 -5.032,-4.88 -11.295,-4.88 H 28.107758 c -3.938,0 -7.129,3.192 -7.129,7.13 v 52.553 c 0,3.938 3.191,7.13 7.129,7.13 z"
         style="fill:none;stroke:#ff0000;stroke-width:0.75;stroke-linecap:round;stroke-linejoin:miter;stroke-miterlimit:4;stroke-dasharray:none;stroke-opacity:1"
         id="path178"
         inkscape:connector-curvature="0" /></g><g
       id="g1997"
       transform="translate(188.09548,-89.183201)"><path
         d="m 116.3979,339.3221 c 0,1.837 -1.489,3.326 -3.326,3.326 -1.837,0 -3.326,-1.489 -3.326,-3.326 0,-1.837 1.489,-3.326 3.326,-3.326 1.837,0 3.326,1.489 3.326,3.326 z"
         style="fill:none;stroke:#ff0000;stroke-width:0.75;stroke-linecap:round;stroke-linejoin:miter;stroke-miterlimit:4;stroke-dasharray:none;stroke-opacity:1"
         id="path182"
         inkscape:connector-curvature="0" /><path
         d="m 116.3506,231.2684 c 0,1.837 -1.49,3.327 -3.327,3.327 -1.838,0 -3.327,-1.49 -3.327,-3.327 0,-1.838 1.489,-3.327 3.327,-3.327 1.837,0 3.327,1.489 3.327,3.327 z"
         style="fill:none;stroke:#ff0000;stroke-width:0.75;stroke-linecap:round;stroke-linejoin:miter;stroke-miterlimit:4;stroke-dasharray:none;stroke-opacity:1"
         id="path186"
         inkscape:connector-curvature="0" /><path
         d="m 386.3477,231.2684 c 0,1.836 -1.488,3.324 -3.324,3.324 -1.837,0 -3.325,-1.488 -3.325,-3.324 0,-1.836 1.488,-3.325 3.325,-3.325 1.836,0 3.324,1.489 3.324,3.325 z"
         style="fill:none;stroke:#ff0000;stroke-width:0.75;stroke-linecap:round;stroke-linejoin:miter;stroke-miterlimit:4;stroke-dasharray:none;stroke-opacity:1"
         id="path190"
         inkscape:connector-curvature="0" /><path
         d="m 386.3643,339.2684 c 0,1.843 -1.494,3.337 -3.337,3.337 -1.844,0 -3.338,-1.494 -3.338,-3.337 0,-1.844 1.494,-3.338 3.338,-3.338 1.843,0 3.337,1.494 3.337,3.338 z"
         style="fill:none;stroke:#ff0000;stroke-width:0.75;stroke-linecap:round;stroke-linejoin:miter;stroke-miterlimit:4;stroke-dasharray:none;stroke-opacity:1"
         id="path194"
         inkscape:connector-curvature="0" /><path
         d="m 224.3564,285.3016 c 0,1.839 -1.491,3.329 -3.33,3.329 -1.838,0 -3.329,-1.49 -3.329,-3.329 0,-1.839 1.491,-3.33 3.329,-3.33 1.839,0 3.33,1.491 3.33,3.33 z"
         style="fill:none;stroke:#ff0000;stroke-width:0.75;stroke-linecap:round;stroke-linejoin:miter;stroke-miterlimit:4;stroke-dasharray:none;stroke-opacity:1"
         id="path198"
         inkscape:connector-curvature="0" /><path
         d="m 437.6543,410.0726 c 0,1.838 -1.49,3.328 -3.328,3.328 -1.837,0 -3.327,-1.49 -3.327,-3.328 0,-1.837 1.49,-3.327 3.327,-3.327 1.838,0 3.328,1.49 3.328,3.327 z"
         style="fill:none;stroke:#ff0000;stroke-width:0.75;stroke-linecap:round;stroke-linejoin:miter;stroke-miterlimit:4;stroke-dasharray:none;stroke-opacity:1"
         id="path202"
         inkscape:connector-curvature="0" /><path
         d="m 437.6543,458.0726 c 0,1.838 -1.49,3.328 -3.328,3.328 -1.837,0 -3.327,-1.49 -3.327,-3.328 0,-1.837 1.49,-3.327 3.327,-3.327 1.838,0 3.328,1.49 3.328,3.327 z"
         style="fill:none;stroke:#ff0000;stroke-width:0.75;stroke-linecap:round;stroke-linejoin:miter;stroke-miterlimit:4;stroke-dasharray:none;stroke-opacity:1"
         id="path206"
         inkscape:connector-curvature="0" /><path
         d="m 236.6543,410.0726 c 0,1.838 -1.49,3.328 -3.328,3.328 -1.837,0 -3.327,-1.49 -3.327,-3.328 0,-1.837 1.49,-3.327 3.327,-3.327 1.838,0 3.328,1.49 3.328,3.327 z"
         style="fill:none;stroke:#ff0000;stroke-width:0.75;stroke-linecap:round;stroke-linejoin:miter;stroke-miterlimit:4;stroke-dasharray:none;stroke-opacity:1"
         id="path210"
         inkscape:connector-curvature="0" /><path
         d="m 285.6543,458.0726 c 0,1.838 -1.49,3.328 -3.328,3.328 -1.837,0 -3.327,-1.49 -3.327,-3.328 0,-1.837 1.49,-3.327 3.327,-3.327 1.838,0 3.328,1.49 3.328,3.327 z"
         style="fill:none;stroke:#ff0000;stroke-width:0.75;stroke-linecap:round;stroke-linejoin:miter;stroke-miterlimit:4;stroke-dasharray:none;stroke-opacity:1"
         id="path214"
         inkscape:connector-curvature="0" /><path
         d="m 213.9585,405.0628 59.006,57.337 c 3.14,3.131 5.031,4.881 11.294,4.881 h 152.7 c 3.938,0 7.13,-3.193 7.13,-7.13 v -282.768 c 0,-4.005 -3.246,-7.251 -7.251,-7.251 H 59.0335 c -4.005,0 -7.251,3.246 -7.251,7.251 v 215.824 c 0,4.004 3.246,7.251 7.251,7.251 h 142.3 c 5.75,-0.02 8.208,0.772 12.625,4.605 z"
         style="fill:none;stroke:#ff0000;stroke-width:0.75;stroke-linecap:round;stroke-linejoin:miter;stroke-miterlimit:4;stroke-dasharray:none;stroke-opacity:1"
         id="path218"
         inkscape:connector-curvature="0" /></g></g></svg>