<?xml version="1.0" encoding="UTF-8" standalone="no"?>
<!-- Created with Inkscape (http://www.inkscape.org/) -->

<svg
   xmlns:dc="http://purl.org/dc/elements/1.1/"
   xmlns:cc="http://creativecommons.org/ns#"
   xmlns:rdf="http://www.w3.org/1999/02/22-rdf-syntax-ns#"
   xmlns:svg="http://www.w3.org/2000/svg"
   xmlns="http://www.w3.org/2000/svg"
   xmlns:sodipodi="http://sodipodi.sourceforge.net/DTD/sodipodi-0.dtd"
   xmlns:inkscape="http://www.inkscape.org/namespaces/inkscape"
   width="150.0mm"
   height="150.0mm"
   viewBox="0 0 150.0 150.0"
   version="1.1"
   id="svg8"
   inkscape:version="0.92.4 5da689c313, 2019-01-14"
   sodipodi:docname="bottom.svg">
  <defs
     id="defs2" />
  <sodipodi:namedview
     id="base"
     pagecolor="#ffffff"
     bordercolor="#666666"
     borderopacity="1.0"
     inkscape:pageopacity="0.0"
     inkscape:pageshadow="2"
     inkscape:zoom="0.70710678"
     inkscape:cx="236.02179"
     inkscape:cy="91.48963"
     inkscape:document-units="mm"
     inkscape:current-layer="g836"
     showgrid="false"
     inkscape:window-width="1419"
     inkscape:window-height="1034"
     inkscape:window-x="487"
     inkscape:window-y="412"
     inkscape:window-maximized="0"
     borderlayer="true"
     inkscape:snap-global="false">
    <inkscape:grid
       id="grid816"
       units="mm"
       type="xygrid"
       empspacing="1"
       spacingy="2.54"
       spacingx="2.54" />
    <inkscape:grid
       spacingx="2.54"
       spacingy="2.54"
       empspacing="1"
       type="xygrid"
       units="mm"
       id="grid854" />
    <inkscape:grid
       id="grid874"
       units="mm"
       type="xygrid"
       empspacing="1"
       spacingy="2.54"
       spacingx="2.54" />
    <inkscape:grid
       spacingx="2.54"
       spacingy="2.54"
       empspacing="1"
       type="xygrid"
       units="mm"
       id="grid896" />
    <inkscape:grid
       id="grid920"
       units="mm"
       type="xygrid"
       empspacing="1"
       spacingy="2.54"
       spacingx="2.54" />
  </sodipodi:namedview>
  <metadata
     id="metadata5">
    <rdf:RDF>
      <cc:Work
         rdf:about="">
        <dc:format>image/svg+xml</dc:format>
        <dc:type
           rdf:resource="http://purl.org/dc/dcmitype/StillImage" />
        <dc:title />
      </cc:Work>
    </rdf:RDF>
  </metadata>
  <g
     id="g822"
     sodipodi:insensitive="true"
     inkscape:groupmode="layer"
     inkscape:label="[fixed] BG"
     style="display:none">
    <rect
       id="rect820"
       style="fill:#ffffff;fill-opacity:1;stroke:none"
       height="150"
       width="150"
       y="0"
       x="0" />
  </g>
  <g
     id="g824"
     inkscape:groupmode="layer"
     inkscape:label="Edge.Cuts"
     style="display:inline"
     sodipodi:insensitive="true">
    <path
       sodipodi:insensitive="true"
       inkscape:connector-curvature="0"
       id="path218"
       style="fill:none;stroke:#ff0000;stroke-width:0;stroke-linecap:round;stroke-linejoin:miter;stroke-miterlimit:4;stroke-dasharray:none;stroke-opacity:1"
       d="m 57.34438,66.989279 20.816005,-20.227219 0.398614,-0.391114 0.191078,-0.177952 0.189467,-0.165964 0.190757,-0.15378 0.194956,-0.141411 0.202053,-0.128845 0.212066,-0.116095 0.224969,-0.103149 0.240789,-0.09002 0.25951,-0.07669 0.281132,-0.06317 0.305665,-0.04947 0.333096,-0.03557 0.363439,-0.02148 0.396681,-0.0072 h 53.869163 l 0.12945,0.0032 0.12774,0.0097 0.12589,0.01602 0.12386,0.02212 0.1217,0.02808 0.11936,0.0339 0.11688,0.03955 0.11423,0.04504 0.11141,0.05038 0.10846,0.05555 0.10533,0.06058 0.10205,0.06543 0.0986,0.07014 0.095,0.07468 0.0913,0.07906 0.0874,0.08329 0.0833,0.08736 0.0791,0.09127 0.0747,0.09502 0.0701,0.09862 0.0654,0.102055 0.0606,0.105333 0.0555,0.10845 0.0504,0.111418 0.045,0.114216 0.0395,0.116864 0.0339,0.119352 0.0281,0.121677 0.0221,0.123849 0.016,0.125864 0.01,0.127717 0.003,0.129413 v 99.754262 l -0.003,0.13165 -0.01,0.12992 -0.0163,0.12802 -0.0225,0.12598 -0.0286,0.12376 -0.0345,0.12139 -0.0402,0.11886 -0.0458,0.11617 -0.0512,0.11331 -0.0565,0.11029 -0.0616,0.10712 -0.0665,0.10379 -0.0713,0.10029 -0.0759,0.0966 -0.0804,0.0928 -0.0847,0.0888 -0.0888,0.0847 -0.0928,0.0804 -0.0966,0.0759 -0.10029,0.0713 -0.10378,0.0665 -0.10712,0.0616 -0.1103,0.0565 -0.11331,0.0512 -0.11617,0.0458 -0.11885,0.0402 -0.12139,0.0345 -0.12377,0.0286 -0.12598,0.0225 -0.12802,0.0163 -0.12992,0.01 -0.13164,0.003 H 2.6902835 l -0.1316457,-0.003 -0.1299165,-0.01 -0.1280258,-0.0163 -0.1259752,-0.0225 -0.123764,-0.0286 -0.1213915,-0.0345 -0.1188586,-0.0402 -0.1161655,-0.0458 -0.1133111,-0.0512 -0.1102967,-0.0565 -0.107121,-0.0616 -0.1037851,-0.0665 -0.1002887,-0.0713 -0.096631,-0.0759 -0.0928131,-0.0804 -0.0888344,-0.0847 -0.0846952,-0.0888 -0.0803952,-0.0928 -0.0759347,-0.0966 -0.0713133,-0.10029 -0.0665318,-0.10379 -0.061589,-0.10712 -0.0564857,-0.11029 -0.0512219,-0.11331 -0.0457976,-0.11617 -0.0402124,-0.11886 -0.0344664,-0.12139 -0.0285609,-0.12376 -0.0224931,-0.12598 -0.0162666,-0.12802 -0.009878,-0.12992 -0.003316,-0.13165 V 71.171703 l 0.003316,-0.131615 0.009878,-0.129889 0.0162666,-0.128002 0.0224931,-0.125956 0.0285609,-0.123747 0.0344664,-0.12138 0.0402124,-0.118848 0.0457976,-0.116159 0.0512219,-0.113305 0.0564857,-0.110292 0.061589,-0.107121 0.0665318,-0.103788 0.0713133,-0.100291 0.0759347,-0.09664 0.0803952,-0.09282 0.0846952,-0.08884 0.0888344,-0.08471 0.0928131,-0.0804 0.096631,-0.07595 0.1002887,-0.07133 0.1037851,-0.06654 0.107121,-0.0616 0.1102967,-0.0565 0.1133111,-0.05123 0.1161655,-0.04581 0.1188586,-0.04022 0.1213915,-0.03447 0.123764,-0.02858 L 2.3006955,68.64316 2.4287213,68.6269 2.5586378,68.617 2.6902835,68.6138 H 52.89056 l 0.367182,-0.0021 0.342674,-0.01009 0.320887,-0.01912 0.301805,-0.02928 0.285439,-0.0406 0.271791,-0.05307 0.260851,-0.0667 0.252624,-0.08147 0.247117,-0.09741 0.24432,-0.114483 0.244235,-0.132719 0.246867,-0.1521 0.252208,-0.172635 0.260265,-0.194328 0.271036,-0.217166 0.284519,-0.241156 v 0" />
  </g>
  <g
     id="g826"
     inkscape:groupmode="layer"
     inkscape:label="B.Cu-disabled"
     style="display:none"
     sodipodi:insensitive="true" />
  <g
     id="g828"
     inkscape:groupmode="layer"
     inkscape:label="B.Mask-disabled"
     style="display:none"
     sodipodi:insensitive="true" />
  <g
     id="g830"
     inkscape:groupmode="layer"
     inkscape:label="B.Silk-disabled"
     style="display:none"
     sodipodi:insensitive="true" />
  <g
     id="g832"
     inkscape:groupmode="layer"
     inkscape:label="F.Cu"
     style="display:none"
     sodipodi:insensitive="true" />
  <g
     id="g834"
     inkscape:groupmode="layer"
     inkscape:label="F.Mask-disabled"
     style="display:none"
     sodipodi:insensitive="true" />
  <g
     id="g836"
     inkscape:groupmode="layer"
     inkscape:label="F.Silk-disabled"
     style="display:none"
     sodipodi:insensitive="true" />
  <g
     id="g838"
     inkscape:groupmode="layer"
     inkscape:label="Drill"
     style="display:inline">
    <path
       transform="matrix(0.35277777,0,0,-0.35277777,-18.135423,209.88643)"
       d="m 116.3979,339.3221 c 0,1.837 -1.489,3.326 -3.326,3.326 -1.837,0 -3.326,-1.489 -3.326,-3.326 0,-1.837 1.489,-3.326 3.326,-3.326 1.837,0 3.326,1.489 3.326,3.326 z"
       style="fill:none;stroke:#ff0000;stroke-width:0;stroke-linecap:round;stroke-linejoin:miter;stroke-miterlimit:4;stroke-dasharray:none;stroke-opacity:1"
       id="path182"
       inkscape:connector-curvature="0"
       sodipodi:insensitive="true"
       inkscape:label="path182" />
    <path
       transform="matrix(0.35277777,0,0,-0.35277777,-18.135423,209.88643)"
       d="m 116.3506,231.2684 c 0,1.837 -1.49,3.327 -3.327,3.327 -1.838,0 -3.327,-1.49 -3.327,-3.327 0,-1.838 1.489,-3.327 3.327,-3.327 1.837,0 3.327,1.489 3.327,3.327 z"
       style="fill:none;stroke:#ff0000;stroke-width:0;stroke-linecap:round;stroke-linejoin:miter;stroke-miterlimit:4;stroke-dasharray:none;stroke-opacity:1"
       id="path186"
       inkscape:connector-curvature="0"
       sodipodi:insensitive="true" />
    <path
       transform="matrix(0.35277777,0,0,-0.35277777,-18.135423,209.88643)"
       d="m 386.3477,231.2684 c 0,1.836 -1.488,3.324 -3.324,3.324 -1.837,0 -3.325,-1.488 -3.325,-3.324 0,-1.836 1.488,-3.325 3.325,-3.325 1.836,0 3.324,1.489 3.324,3.325 z"
       style="fill:none;stroke:#ff0000;stroke-width:0;stroke-linecap:round;stroke-linejoin:miter;stroke-miterlimit:4;stroke-dasharray:none;stroke-opacity:1"
       id="path190"
       inkscape:connector-curvature="0"
       sodipodi:insensitive="true" />
    <path
       transform="matrix(0.35277777,0,0,-0.35277777,-18.135423,209.88643)"
       d="m 386.3643,339.2684 c 0,1.843 -1.494,3.337 -3.337,3.337 -1.844,0 -3.338,-1.494 -3.338,-3.337 0,-1.844 1.494,-3.338 3.338,-3.338 1.843,0 3.337,1.494 3.337,3.338 z"
       style="fill:none;stroke:#ff0000;stroke-width:0;stroke-linecap:round;stroke-linejoin:miter;stroke-miterlimit:4;stroke-dasharray:none;stroke-opacity:1"
       id="path194"
       inkscape:connector-curvature="0"
       sodipodi:insensitive="true" />
    <path
       transform="matrix(0.35277777,0,0,-0.35277777,-18.135423,209.88643)"
       d="m 224.3564,285.3016 c 0,1.839 -1.491,3.329 -3.33,3.329 -1.838,0 -3.329,-1.49 -3.329,-3.329 0,-1.839 1.491,-3.33 3.329,-3.33 1.839,0 3.33,1.491 3.33,3.33 z"
       style="fill:none;stroke:#ff0000;stroke-width:0;stroke-linecap:round;stroke-linejoin:miter;stroke-miterlimit:4;stroke-dasharray:none;stroke-opacity:1"
       id="path198"
       inkscape:connector-curvature="0"
       sodipodi:insensitive="true" />
    <path
       transform="matrix(0.35277777,0,0,-0.35277777,-18.135423,209.88643)"
       d="m 437.6543,410.0726 c 0,1.838 -1.49,3.328 -3.328,3.328 -1.837,0 -3.327,-1.49 -3.327,-3.328 0,-1.837 1.49,-3.327 3.327,-3.327 1.838,0 3.328,1.49 3.328,3.327 z"
       style="fill:none;stroke:#ff0000;stroke-width:0;stroke-linecap:round;stroke-linejoin:miter;stroke-miterlimit:4;stroke-dasharray:none;stroke-opacity:1"
       id="path202"
       inkscape:connector-curvature="0"
       sodipodi:insensitive="true" />
    <path
       style="fill:none;stroke:#ff0000;stroke-width:0;stroke-linecap:round;stroke-linejoin:miter;stroke-miterlimit:4;stroke-dasharray:none;stroke-opacity:1"
       d="m 510.55859,178.07031 c -2.44933,0 -4.43554,1.98684 -4.43554,4.4375 0,2.44934 1.98621,4.43555 4.43554,4.43555 2.45067,0 4.4375,-1.98621 4.4375,-4.43555 0,-2.45066 -1.98683,-4.4375 -4.4375,-4.4375 z"
       transform="scale(0.26458333)"
       id="path206"
       inkscape:connector-curvature="0"
       sodipodi:insensitive="true" />
    <path
       transform="matrix(0.35277777,0,0,-0.35277777,-18.135423,209.88643)"
       d="m 236.6543,410.0726 c 0,1.838 -1.49,3.328 -3.328,3.328 -1.837,0 -3.327,-1.49 -3.327,-3.328 0,-1.837 1.49,-3.327 3.327,-3.327 1.838,0 3.328,1.49 3.328,3.327 z"
       style="display:inline;fill:none;stroke:#ff0000;stroke-width:0;stroke-linecap:round;stroke-linejoin:miter;stroke-miterlimit:4;stroke-dasharray:none;stroke-opacity:1"
       id="path210"
       inkscape:connector-curvature="0"
       sodipodi:insensitive="true" />
    <path
       d="m 82.638193,48.2886 c 0,-0.648406 -0.525639,-1.174045 -1.174044,-1.174045 -0.648053,0 -1.173692,0.525639 -1.173692,1.174045 0,0.648052 0.525639,1.173691 1.173692,1.173691 0.648405,0 1.174044,-0.525639 1.174044,-1.173691 z"
       style="display:inline;fill:none;stroke:#ff0000;stroke-width:0;stroke-linecap:round;stroke-linejoin:miter;stroke-miterlimit:4;stroke-dasharray:none;stroke-opacity:1"
       id="path214"
       inkscape:connector-curvature="0"
       sodipodi:insensitive="true" />
    <circle
       style="display:inline;stroke-width:0.02447916;stroke-miterlimit:4;stroke-dasharray:none"
       id="path898"
       cx="21.752169"
       cy="90.179474"
       r="1.175"
       inkscape:label="drill002" />
    <circle
       inkscape:label="drill001"
       r="1.175"
       cy="128.29877"
       cx="21.735483"
       id="circle4679"
       style="display:inline;stroke-width:0.02447916;stroke-miterlimit:4;stroke-dasharray:none" />
    <circle
       inkscape:label="drill003"
       r="1.175"
       cy="128.29807"
       cx="116.98446"
       id="circle4681"
       style="stroke-width:0.02447916;stroke-miterlimit:4;stroke-dasharray:none" />
    <circle
       inkscape:label="drill003"
       r="1.175"
       cy="90.202652"
       cx="116.99031"
       id="circle4681-3"
       style="display:inline;stroke-width:0.02447916;stroke-miterlimit:4;stroke-dasharray:none" />
    <circle
       inkscape:label="drill003"
       r="1.175"
       cy="109.23812"
       cx="59.837528"
       id="circle4681-6"
       style="display:inline;stroke-width:0.02447916;stroke-miterlimit:4;stroke-dasharray:none" />
    <circle
       inkscape:label="drill003"
       r="1.175"
       cy="65.220627"
       cx="135.08429"
       id="circle4681-7"
       style="display:inline;stroke-width:0.02447916;stroke-miterlimit:4;stroke-dasharray:none" />
    <circle
       inkscape:label="drill003"
       r="1.175"
       cy="48.287098"
       cx="135.08438"
       id="circle4681-5"
       style="display:inline;stroke-width:0.02447916;stroke-miterlimit:4;stroke-dasharray:none" />
    <circle
       inkscape:label="drill003"
       r="1.175"
       cy="65.220627"
       cx="64.175957"
       id="circle4681-35"
       style="display:inline;stroke-width:0.02447916;stroke-miterlimit:4;stroke-dasharray:none" />
    <circle
       style="display:inline;stroke-width:0.02447916;stroke-miterlimit:4;stroke-dasharray:none"
       id="path898-6"
       cx="81.465454"
       cy="48.287292"
       r="1.175"
       inkscape:label="drill002" />
  </g>
</svg>
