%TF.GenerationSoftware,KiCad,Pcbnew,5.1.2*%
%TF.CreationDate,2019-08-01T18:24:27+02:00*%
%TF.ProjectId,cover,636f7665-722e-46b6-9963-61645f706362,rev?*%
%TF.SameCoordinates,Original*%
%TF.FileFunction,Soldermask,Bot*%
%TF.FilePolarity,Negative*%
%FSLAX46Y46*%
G04 Gerber Fmt 4.6, Leading zero omitted, Abs format (unit mm)*
G04 Created by KiCad (PCBNEW 5.1.2) date 2019-08-01 18:24:27*
%MOMM*%
%LPD*%
G04 APERTURE LIST*
%ADD10C,0.100000*%
G04 APERTURE END LIST*
D10*
G36*
X185005880Y-109539776D02*
G01*
X185386593Y-109615504D01*
X185796249Y-109785189D01*
X186164929Y-110031534D01*
X186478466Y-110345071D01*
X186724811Y-110713751D01*
X186894496Y-111123407D01*
X186981000Y-111558296D01*
X186981000Y-112001704D01*
X186894496Y-112436593D01*
X186724811Y-112846249D01*
X186478466Y-113214929D01*
X186164929Y-113528466D01*
X185796249Y-113774811D01*
X185386593Y-113944496D01*
X185005880Y-114020224D01*
X184951705Y-114031000D01*
X184508295Y-114031000D01*
X184454120Y-114020224D01*
X184073407Y-113944496D01*
X183663751Y-113774811D01*
X183295071Y-113528466D01*
X182981534Y-113214929D01*
X182735189Y-112846249D01*
X182565504Y-112436593D01*
X182479000Y-112001704D01*
X182479000Y-111558296D01*
X182565504Y-111123407D01*
X182735189Y-110713751D01*
X182981534Y-110345071D01*
X183295071Y-110031534D01*
X183663751Y-109785189D01*
X184073407Y-109615504D01*
X184454120Y-109539776D01*
X184508295Y-109529000D01*
X184951705Y-109529000D01*
X185005880Y-109539776D01*
X185005880Y-109539776D01*
G37*
G36*
X112100387Y-109539776D02*
G01*
X112481100Y-109615504D01*
X112890756Y-109785189D01*
X113259436Y-110031534D01*
X113572973Y-110345071D01*
X113819318Y-110713751D01*
X113989003Y-111123407D01*
X114075507Y-111558296D01*
X114075507Y-112001704D01*
X113989003Y-112436593D01*
X113819318Y-112846249D01*
X113572973Y-113214929D01*
X113259436Y-113528466D01*
X112890756Y-113774811D01*
X112481100Y-113944496D01*
X112100387Y-114020224D01*
X112046212Y-114031000D01*
X111602802Y-114031000D01*
X111548627Y-114020224D01*
X111167914Y-113944496D01*
X110758258Y-113774811D01*
X110389578Y-113528466D01*
X110076041Y-113214929D01*
X109829696Y-112846249D01*
X109660011Y-112436593D01*
X109573507Y-112001704D01*
X109573507Y-111558296D01*
X109660011Y-111123407D01*
X109829696Y-110713751D01*
X110076041Y-110345071D01*
X110389578Y-110031534D01*
X110758258Y-109785189D01*
X111167914Y-109615504D01*
X111548627Y-109539776D01*
X111602802Y-109529000D01*
X112046212Y-109529000D01*
X112100387Y-109539776D01*
X112100387Y-109539776D01*
G37*
G36*
X173370880Y-109519776D02*
G01*
X173751593Y-109595504D01*
X174161249Y-109765189D01*
X174529929Y-110011534D01*
X174843466Y-110325071D01*
X175089811Y-110693751D01*
X175259496Y-111103407D01*
X175346000Y-111538296D01*
X175346000Y-111981704D01*
X175259496Y-112416593D01*
X175089811Y-112826249D01*
X174843466Y-113194929D01*
X174529929Y-113508466D01*
X174161249Y-113754811D01*
X173751593Y-113924496D01*
X173370880Y-114000224D01*
X173316705Y-114011000D01*
X172873295Y-114011000D01*
X172819120Y-114000224D01*
X172438407Y-113924496D01*
X172028751Y-113754811D01*
X171660071Y-113508466D01*
X171346534Y-113194929D01*
X171100189Y-112826249D01*
X170930504Y-112416593D01*
X170844000Y-111981704D01*
X170844000Y-111538296D01*
X170930504Y-111103407D01*
X171100189Y-110693751D01*
X171346534Y-110325071D01*
X171660071Y-110011534D01*
X172028751Y-109765189D01*
X172438407Y-109595504D01*
X172819120Y-109519776D01*
X172873295Y-109509000D01*
X173316705Y-109509000D01*
X173370880Y-109519776D01*
X173370880Y-109519776D01*
G37*
G36*
X185005880Y-91534776D02*
G01*
X185386593Y-91610504D01*
X185796249Y-91780189D01*
X186164929Y-92026534D01*
X186478466Y-92340071D01*
X186724811Y-92708751D01*
X186894496Y-93118407D01*
X186981000Y-93553296D01*
X186981000Y-93996704D01*
X186894496Y-94431593D01*
X186724811Y-94841249D01*
X186478466Y-95209929D01*
X186164929Y-95523466D01*
X185796249Y-95769811D01*
X185386593Y-95939496D01*
X185005880Y-96015224D01*
X184951705Y-96026000D01*
X184508295Y-96026000D01*
X184454120Y-96015224D01*
X184073407Y-95939496D01*
X183663751Y-95769811D01*
X183295071Y-95523466D01*
X182981534Y-95209929D01*
X182735189Y-94841249D01*
X182565504Y-94431593D01*
X182479000Y-93996704D01*
X182479000Y-93553296D01*
X182565504Y-93118407D01*
X182735189Y-92708751D01*
X182981534Y-92340071D01*
X183295071Y-92026534D01*
X183663751Y-91780189D01*
X184073407Y-91610504D01*
X184454120Y-91534776D01*
X184508295Y-91524000D01*
X184951705Y-91524000D01*
X185005880Y-91534776D01*
X185005880Y-91534776D01*
G37*
G36*
X130105387Y-91534776D02*
G01*
X130486100Y-91610504D01*
X130895756Y-91780189D01*
X131264436Y-92026534D01*
X131577973Y-92340071D01*
X131824318Y-92708751D01*
X131994003Y-93118407D01*
X132080507Y-93553296D01*
X132080507Y-93996704D01*
X131994003Y-94431593D01*
X131824318Y-94841249D01*
X131577973Y-95209929D01*
X131264436Y-95523466D01*
X130895756Y-95769811D01*
X130486100Y-95939496D01*
X130105387Y-96015224D01*
X130051212Y-96026000D01*
X129607802Y-96026000D01*
X129553627Y-96015224D01*
X129172914Y-95939496D01*
X128763258Y-95769811D01*
X128394578Y-95523466D01*
X128081041Y-95209929D01*
X127834696Y-94841249D01*
X127665011Y-94431593D01*
X127578507Y-93996704D01*
X127578507Y-93553296D01*
X127665011Y-93118407D01*
X127834696Y-92708751D01*
X128081041Y-92340071D01*
X128394578Y-92026534D01*
X128763258Y-91780189D01*
X129172914Y-91610504D01*
X129553627Y-91534776D01*
X129607802Y-91524000D01*
X130051212Y-91524000D01*
X130105387Y-91534776D01*
X130105387Y-91534776D01*
G37*
M02*
