%TF.GenerationSoftware,KiCad,Pcbnew,5.1.2*%
%TF.CreationDate,2019-07-10T21:07:11+02:00*%
%TF.ProjectId,cover,636f7665-722e-46b6-9963-61645f706362,rev?*%
%TF.SameCoordinates,Original*%
%TF.FileFunction,Profile,NP*%
%FSLAX46Y46*%
G04 Gerber Fmt 4.6, Leading zero omitted, Abs format (unit mm)*
G04 Created by KiCad (PCBNEW 5.1.2) date 2019-07-10 21:07:11*
%MOMM*%
%LPD*%
G04 APERTURE LIST*
%ADD10C,0.100000*%
G04 APERTURE END LIST*
D10*
X-35983295Y11244439D02*
X36674820Y11248339D01*
X36674820Y11248339D02*
X36950401Y11238533D01*
X36950401Y11238533D02*
X37214698Y11209648D01*
X37214698Y11209648D02*
X37467400Y11162479D01*
X37467400Y11162479D02*
X37708199Y11097823D01*
X37708199Y11097823D02*
X37936782Y11016477D01*
X37936782Y11016477D02*
X38152841Y10919238D01*
X38152841Y10919238D02*
X38356066Y10806903D01*
X38356066Y10806903D02*
X38546145Y10680268D01*
X38546145Y10680268D02*
X38722769Y10540129D01*
X38722769Y10540129D02*
X38885629Y10387285D01*
X38885629Y10387285D02*
X39034413Y10222531D01*
X39034413Y10222531D02*
X39168811Y10046664D01*
X39168811Y10046664D02*
X39288515Y9860480D01*
X39288515Y9860480D02*
X39393212Y9664778D01*
X39393212Y9664778D02*
X39482594Y9460352D01*
X39482594Y9460352D02*
X39556350Y9248001D01*
X39556350Y9248001D02*
X39614170Y9028520D01*
X39614170Y9028520D02*
X39655744Y8802707D01*
X39655744Y8802707D02*
X39680762Y8571358D01*
X39680762Y8571358D02*
X39688913Y8335270D01*
X39688913Y8335270D02*
X39679888Y8095239D01*
X39679888Y8095239D02*
X39653376Y7852063D01*
X39653376Y7852063D02*
X39609068Y7606538D01*
X39609068Y7606538D02*
X39546652Y7359460D01*
X39546652Y7359460D02*
X39465820Y7111627D01*
X39465820Y7111627D02*
X39366261Y6863836D01*
X39366261Y6863836D02*
X39247665Y6616882D01*
X39247665Y6616882D02*
X39109721Y6371563D01*
X39109721Y6371563D02*
X38952120Y6128675D01*
X38952120Y6128675D02*
X38774551Y5889015D01*
X38774551Y5889015D02*
X38576704Y5653380D01*
X38576704Y5653380D02*
X38358270Y5422567D01*
X38358270Y5422567D02*
X21870496Y-10604146D01*
X21870496Y-10604146D02*
X21471765Y-10995144D01*
X21471765Y-10995144D02*
X21091133Y-11338971D01*
X21091133Y-11338971D02*
X20705358Y-11634099D01*
X20705358Y-11634099D02*
X20503279Y-11762922D01*
X20503279Y-11762922D02*
X20291198Y-11878997D01*
X20291198Y-11878997D02*
X20066211Y-11982132D01*
X20066211Y-11982132D02*
X19825412Y-12072136D01*
X19825412Y-12072136D02*
X19565895Y-12148818D01*
X19565895Y-12148818D02*
X19284756Y-12211986D01*
X19284756Y-12211986D02*
X18979090Y-12261450D01*
X18979090Y-12261450D02*
X18645990Y-12297018D01*
X18645990Y-12297018D02*
X18282552Y-12318499D01*
X18282552Y-12318499D02*
X17885871Y-12325702D01*
X17885871Y-12325702D02*
X-35983295Y-12325702D01*
X-35983295Y-12325702D02*
X-36240479Y-12312717D01*
X-36240479Y-12312717D02*
X-36490223Y-12274603D01*
X-36490223Y-12274603D02*
X-36731265Y-12212625D01*
X-36731265Y-12212625D02*
X-36962342Y-12128047D01*
X-36962342Y-12128047D02*
X-37182190Y-12022133D01*
X-37182190Y-12022133D02*
X-37389547Y-11896147D01*
X-37389547Y-11896147D02*
X-37583150Y-11751352D01*
X-37583150Y-11751352D02*
X-37761736Y-11589014D01*
X-37761736Y-11589014D02*
X-37924042Y-11410395D01*
X-37924042Y-11410395D02*
X-38068804Y-11216760D01*
X-38068804Y-11216760D02*
X-38194761Y-11009373D01*
X-38194761Y-11009373D02*
X-38300648Y-10789498D01*
X-38300648Y-10789498D02*
X-38385204Y-10558398D01*
X-38385204Y-10558398D02*
X-38447164Y-10317339D01*
X-38447164Y-10317339D02*
X-38485267Y-10067584D01*
X-38485267Y-10067584D02*
X-38498248Y-9810396D01*
X-38498248Y-9810396D02*
X-38498248Y8729134D01*
X-38498248Y8729134D02*
X-38485267Y8986322D01*
X-38485267Y8986322D02*
X-38447164Y9236077D01*
X-38447164Y9236077D02*
X-38385204Y9477136D01*
X-38385204Y9477136D02*
X-38300648Y9708236D01*
X-38300648Y9708236D02*
X-38194761Y9928111D01*
X-38194761Y9928111D02*
X-38068804Y10135498D01*
X-38068804Y10135498D02*
X-37924042Y10329132D01*
X-37924042Y10329132D02*
X-37761736Y10507751D01*
X-37761736Y10507751D02*
X-37583150Y10670090D01*
X-37583150Y10670090D02*
X-37389547Y10814884D01*
X-37389547Y10814884D02*
X-37182190Y10940870D01*
X-37182190Y10940870D02*
X-36962342Y11046784D01*
X-36962342Y11046784D02*
X-36731265Y11131362D01*
X-36731265Y11131362D02*
X-36490223Y11193340D01*
X-36490223Y11193340D02*
X-36240479Y11231454D01*
X-36240479Y11231454D02*
X-35983295Y11244439D01*
X-35983295Y11244439D02*
X-35983295Y11244439D01*
X-35983295Y11244439D02*
X-35983295Y11244439D01*
M02*
