%TF.GenerationSoftware,KiCad,Pcbnew,5.1.2*%
%TF.CreationDate,2019-07-26T18:53:40+02:00*%
%TF.ProjectId,cover,636f7665-722e-46b6-9963-61645f706362,rev?*%
%TF.SameCoordinates,Original*%
%TF.FileFunction,Soldermask,Top*%
%TF.FilePolarity,Negative*%
%FSLAX46Y46*%
G04 Gerber Fmt 4.6, Leading zero omitted, Abs format (unit mm)*
G04 Created by KiCad (PCBNEW 5.1.2) date 2019-07-26 18:53:40*
%MOMM*%
%LPD*%
G04 APERTURE LIST*
%ADD10C,0.100000*%
G04 APERTURE END LIST*
D10*
G36*
X123670880Y75245224D02*
G01*
X124051593Y75169496D01*
X124461249Y74999811D01*
X124829929Y74753466D01*
X125143466Y74439929D01*
X125389811Y74071249D01*
X125559496Y73661593D01*
X125646000Y73226704D01*
X125646000Y72783296D01*
X125559496Y72348407D01*
X125389811Y71938751D01*
X125143466Y71570071D01*
X124829929Y71256534D01*
X124461249Y71010189D01*
X124051593Y70840504D01*
X123670880Y70764776D01*
X123616705Y70754000D01*
X123173295Y70754000D01*
X123119120Y70764776D01*
X122738407Y70840504D01*
X122328751Y71010189D01*
X121960071Y71256534D01*
X121646534Y71570071D01*
X121400189Y71938751D01*
X121230504Y72348407D01*
X121144000Y72783296D01*
X121144000Y73226704D01*
X121230504Y73661593D01*
X121400189Y74071249D01*
X121646534Y74439929D01*
X121960071Y74753466D01*
X122328751Y74999811D01*
X122738407Y75169496D01*
X123119120Y75245224D01*
X123173295Y75256000D01*
X123616705Y75256000D01*
X123670880Y75245224D01*
X123670880Y75245224D01*
G37*
G36*
X50765387Y75245224D02*
G01*
X51146100Y75169496D01*
X51555756Y74999811D01*
X51924436Y74753466D01*
X52237973Y74439929D01*
X52484318Y74071249D01*
X52654003Y73661593D01*
X52740507Y73226704D01*
X52740507Y72783296D01*
X52654003Y72348407D01*
X52484318Y71938751D01*
X52237973Y71570071D01*
X51924436Y71256534D01*
X51555756Y71010189D01*
X51146100Y70840504D01*
X50765387Y70764776D01*
X50711212Y70754000D01*
X50267802Y70754000D01*
X50213627Y70764776D01*
X49832914Y70840504D01*
X49423258Y71010189D01*
X49054578Y71256534D01*
X48741041Y71570071D01*
X48494696Y71938751D01*
X48325011Y72348407D01*
X48238507Y72783296D01*
X48238507Y73226704D01*
X48325011Y73661593D01*
X48494696Y74071249D01*
X48741041Y74439929D01*
X49054578Y74753466D01*
X49423258Y74999811D01*
X49832914Y75169496D01*
X50213627Y75245224D01*
X50267802Y75256000D01*
X50711212Y75256000D01*
X50765387Y75245224D01*
X50765387Y75245224D01*
G37*
G36*
X112035880Y75265224D02*
G01*
X112416593Y75189496D01*
X112826249Y75019811D01*
X113194929Y74773466D01*
X113508466Y74459929D01*
X113754811Y74091249D01*
X113924496Y73681593D01*
X114011000Y73246704D01*
X114011000Y72803296D01*
X113924496Y72368407D01*
X113754811Y71958751D01*
X113508466Y71590071D01*
X113194929Y71276534D01*
X112826249Y71030189D01*
X112416593Y70860504D01*
X112035880Y70784776D01*
X111981705Y70774000D01*
X111538295Y70774000D01*
X111484120Y70784776D01*
X111103407Y70860504D01*
X110693751Y71030189D01*
X110325071Y71276534D01*
X110011534Y71590071D01*
X109765189Y71958751D01*
X109595504Y72368407D01*
X109509000Y72803296D01*
X109509000Y73246704D01*
X109595504Y73681593D01*
X109765189Y74091249D01*
X110011534Y74459929D01*
X110325071Y74773466D01*
X110693751Y75019811D01*
X111103407Y75189496D01*
X111484120Y75265224D01*
X111538295Y75276000D01*
X111981705Y75276000D01*
X112035880Y75265224D01*
X112035880Y75265224D01*
G37*
G36*
X123670880Y93250224D02*
G01*
X124051593Y93174496D01*
X124461249Y93004811D01*
X124829929Y92758466D01*
X125143466Y92444929D01*
X125389811Y92076249D01*
X125559496Y91666593D01*
X125646000Y91231704D01*
X125646000Y90788296D01*
X125559496Y90353407D01*
X125389811Y89943751D01*
X125143466Y89575071D01*
X124829929Y89261534D01*
X124461249Y89015189D01*
X124051593Y88845504D01*
X123670880Y88769776D01*
X123616705Y88759000D01*
X123173295Y88759000D01*
X123119120Y88769776D01*
X122738407Y88845504D01*
X122328751Y89015189D01*
X121960071Y89261534D01*
X121646534Y89575071D01*
X121400189Y89943751D01*
X121230504Y90353407D01*
X121144000Y90788296D01*
X121144000Y91231704D01*
X121230504Y91666593D01*
X121400189Y92076249D01*
X121646534Y92444929D01*
X121960071Y92758466D01*
X122328751Y93004811D01*
X122738407Y93174496D01*
X123119120Y93250224D01*
X123173295Y93261000D01*
X123616705Y93261000D01*
X123670880Y93250224D01*
X123670880Y93250224D01*
G37*
G36*
X68770387Y93250224D02*
G01*
X69151100Y93174496D01*
X69560756Y93004811D01*
X69929436Y92758466D01*
X70242973Y92444929D01*
X70489318Y92076249D01*
X70659003Y91666593D01*
X70745507Y91231704D01*
X70745507Y90788296D01*
X70659003Y90353407D01*
X70489318Y89943751D01*
X70242973Y89575071D01*
X69929436Y89261534D01*
X69560756Y89015189D01*
X69151100Y88845504D01*
X68770387Y88769776D01*
X68716212Y88759000D01*
X68272802Y88759000D01*
X68218627Y88769776D01*
X67837914Y88845504D01*
X67428258Y89015189D01*
X67059578Y89261534D01*
X66746041Y89575071D01*
X66499696Y89943751D01*
X66330011Y90353407D01*
X66243507Y90788296D01*
X66243507Y91231704D01*
X66330011Y91666593D01*
X66499696Y92076249D01*
X66746041Y92444929D01*
X67059578Y92758466D01*
X67428258Y93004811D01*
X67837914Y93174496D01*
X68218627Y93250224D01*
X68272802Y93261000D01*
X68716212Y93261000D01*
X68770387Y93250224D01*
X68770387Y93250224D01*
G37*
M02*
