%TF.GenerationSoftware,KiCad,Pcbnew,5.1.2*%
%TF.CreationDate,2019-07-10T21:07:11+02:00*%
%TF.ProjectId,plate,706c6174-652e-46b6-9963-61645f706362,rev?*%
%TF.SameCoordinates,Original*%
%TF.FileFunction,Profile,NP*%
%FSLAX46Y46*%
G04 Gerber Fmt 4.6, Leading zero omitted, Abs format (unit mm)*
G04 Created by KiCad (PCBNEW 5.1.2) date 2019-07-10 21:07:11*
%MOMM*%
%LPD*%
G04 APERTURE LIST*
%ADD10C,0.100000*%
G04 APERTURE END LIST*
D10*
X-72252923Y6213545D02*
X61027930Y6213545D01*
X61027930Y6213545D02*
X61289493Y6200340D01*
X61289493Y6200340D02*
X61543495Y6161581D01*
X61543495Y6161581D02*
X61788650Y6098554D01*
X61788650Y6098554D02*
X62023675Y6012544D01*
X62023675Y6012544D02*
X62247282Y5904836D01*
X62247282Y5904836D02*
X62458189Y5776716D01*
X62458189Y5776716D02*
X62655108Y5629468D01*
X62655108Y5629468D02*
X62836755Y5464377D01*
X62836755Y5464377D02*
X63001845Y5282730D01*
X63001845Y5282730D02*
X63149093Y5085810D01*
X63149093Y5085810D02*
X63277213Y4874904D01*
X63277213Y4874904D02*
X63384920Y4651296D01*
X63384920Y4651296D02*
X63470930Y4416272D01*
X63470930Y4416272D02*
X63533957Y4171116D01*
X63533957Y4171116D02*
X63572715Y3917115D01*
X63572715Y3917115D02*
X63585920Y3655553D01*
X63585920Y3655553D02*
X63585920Y-72482360D01*
X63585920Y-72482360D02*
X63572715Y-72743860D01*
X63572715Y-72743860D02*
X63533957Y-72997806D01*
X63533957Y-72997806D02*
X63470930Y-73242914D01*
X63470930Y-73242914D02*
X63384920Y-73477898D01*
X63384920Y-73477898D02*
X63277213Y-73701472D01*
X63277213Y-73701472D02*
X63149093Y-73912350D01*
X63149093Y-73912350D02*
X63001845Y-74109246D01*
X63001845Y-74109246D02*
X62836755Y-74290875D01*
X62836755Y-74290875D02*
X62655108Y-74455951D01*
X62655108Y-74455951D02*
X62458189Y-74603189D01*
X62458189Y-74603189D02*
X62247282Y-74731302D01*
X62247282Y-74731302D02*
X62023675Y-74839004D01*
X62023675Y-74839004D02*
X61788650Y-74925011D01*
X61788650Y-74925011D02*
X61543495Y-74988037D01*
X61543495Y-74988037D02*
X61289493Y-75026795D01*
X61289493Y-75026795D02*
X61027930Y-75040000D01*
X61027930Y-75040000D02*
X-72252923Y-75040000D01*
X-72252923Y-75040000D02*
X-72514423Y-75026795D01*
X-72514423Y-75026795D02*
X-72768370Y-74988037D01*
X-72768370Y-74988037D02*
X-73013478Y-74925011D01*
X-73013478Y-74925011D02*
X-73248462Y-74839004D01*
X-73248462Y-74839004D02*
X-73472035Y-74731302D01*
X-73472035Y-74731302D02*
X-73682913Y-74603189D01*
X-73682913Y-74603189D02*
X-73879809Y-74455951D01*
X-73879809Y-74455951D02*
X-74061438Y-74290875D01*
X-74061438Y-74290875D02*
X-74226514Y-74109246D01*
X-74226514Y-74109246D02*
X-74373751Y-73912350D01*
X-74373751Y-73912350D02*
X-74501864Y-73701472D01*
X-74501864Y-73701472D02*
X-74609566Y-73477898D01*
X-74609566Y-73477898D02*
X-74695573Y-73242914D01*
X-74695573Y-73242914D02*
X-74758599Y-72997806D01*
X-74758599Y-72997806D02*
X-74797357Y-72743860D01*
X-74797357Y-72743860D02*
X-74810562Y-72482360D01*
X-74810562Y-72482360D02*
X-74810562Y3655553D01*
X-74810562Y3655553D02*
X-74797357Y3917115D01*
X-74797357Y3917115D02*
X-74758599Y4171116D01*
X-74758599Y4171116D02*
X-74695573Y4416272D01*
X-74695573Y4416272D02*
X-74609566Y4651296D01*
X-74609566Y4651296D02*
X-74501864Y4874904D01*
X-74501864Y4874904D02*
X-74373751Y5085810D01*
X-74373751Y5085810D02*
X-74226514Y5282730D01*
X-74226514Y5282730D02*
X-74061438Y5464377D01*
X-74061438Y5464377D02*
X-73879809Y5629468D01*
X-73879809Y5629468D02*
X-73682913Y5776716D01*
X-73682913Y5776716D02*
X-73472035Y5904836D01*
X-73472035Y5904836D02*
X-73248462Y6012544D01*
X-73248462Y6012544D02*
X-73013478Y6098554D01*
X-73013478Y6098554D02*
X-72768370Y6161581D01*
X-72768370Y6161581D02*
X-72514423Y6200340D01*
X-72514423Y6200340D02*
X-72252923Y6213545D01*
X-72252923Y6213545D02*
X-72252923Y6213545D01*
X-72252923Y6213545D02*
X-72252923Y6213545D01*
X58534430Y-69988500D02*
X58534430Y-68988730D01*
X58534430Y-68988730D02*
X59334530Y-68988730D01*
X59334530Y-68988730D02*
X59334530Y-65888520D01*
X59334530Y-65888520D02*
X58534430Y-65888520D01*
X58534430Y-65888520D02*
X58534430Y-60088500D01*
X58534430Y-60088500D02*
X59334530Y-60088500D01*
X59334530Y-60088500D02*
X59334530Y-56988290D01*
X59334530Y-56988290D02*
X58534430Y-56988290D01*
X58534430Y-56988290D02*
X58534430Y-55988510D01*
X58534430Y-55988510D02*
X44534440Y-55988510D01*
X44534440Y-55988510D02*
X44534440Y-56988290D01*
X44534440Y-56988290D02*
X43735400Y-56988290D01*
X43735400Y-56988290D02*
X43735400Y-60088500D01*
X43735400Y-60088500D02*
X44534440Y-60088500D01*
X44534440Y-60088500D02*
X44534440Y-65888520D01*
X44534440Y-65888520D02*
X43735400Y-65888520D01*
X43735400Y-65888520D02*
X43735400Y-68988730D01*
X43735400Y-68988730D02*
X44534440Y-68988730D01*
X44534440Y-68988730D02*
X44534440Y-69988500D01*
X44534440Y-69988500D02*
X58534430Y-69988500D01*
X58534430Y-69988500D02*
X58534430Y-69988500D01*
X58534430Y-50938010D02*
X58534430Y-49938230D01*
X58534430Y-49938230D02*
X59334530Y-49938230D01*
X59334530Y-49938230D02*
X59334530Y-46838020D01*
X59334530Y-46838020D02*
X58534430Y-46838020D01*
X58534430Y-46838020D02*
X58534430Y-41038000D01*
X58534430Y-41038000D02*
X59334530Y-41038000D01*
X59334530Y-41038000D02*
X59334530Y-37938150D01*
X59334530Y-37938150D02*
X58534430Y-37938150D01*
X58534430Y-37938150D02*
X58534430Y-36938020D01*
X58534430Y-36938020D02*
X44534440Y-36938020D01*
X44534440Y-36938020D02*
X44534440Y-37938150D01*
X44534440Y-37938150D02*
X43735400Y-37938150D01*
X43735400Y-37938150D02*
X43735400Y-41038000D01*
X43735400Y-41038000D02*
X44534440Y-41038000D01*
X44534440Y-41038000D02*
X44534440Y-46838020D01*
X44534440Y-46838020D02*
X43735400Y-46838020D01*
X43735400Y-46838020D02*
X43735400Y-49938230D01*
X43735400Y-49938230D02*
X44534440Y-49938230D01*
X44534440Y-49938230D02*
X44534440Y-50938010D01*
X44534440Y-50938010D02*
X58534430Y-50938010D01*
X58534430Y-50938010D02*
X58534430Y-50938010D01*
X58534430Y-31887480D02*
X58534430Y-30887710D01*
X58534430Y-30887710D02*
X59334530Y-30887710D01*
X59334530Y-30887710D02*
X59334530Y-27787490D01*
X59334530Y-27787490D02*
X58534430Y-27787490D01*
X58534430Y-27787490D02*
X58534430Y-21987475D01*
X58534430Y-21987475D02*
X59334530Y-21987475D01*
X59334530Y-21987475D02*
X59334530Y-18887617D01*
X59334530Y-18887617D02*
X58534430Y-18887617D01*
X58534430Y-18887617D02*
X58534430Y-17887492D01*
X58534430Y-17887492D02*
X44534440Y-17887492D01*
X44534440Y-17887492D02*
X44534440Y-18887617D01*
X44534440Y-18887617D02*
X43735400Y-18887617D01*
X43735400Y-18887617D02*
X43735400Y-21987475D01*
X43735400Y-21987475D02*
X44534440Y-21987475D01*
X44534440Y-21987475D02*
X44534440Y-27787490D01*
X44534440Y-27787490D02*
X43735400Y-27787490D01*
X43735400Y-27787490D02*
X43735400Y-30887710D01*
X43735400Y-30887710D02*
X44534440Y-30887710D01*
X44534440Y-30887710D02*
X44534440Y-31887480D01*
X44534440Y-31887480D02*
X58534430Y-31887480D01*
X58534430Y-31887480D02*
X58534430Y-31887480D01*
X58534430Y-12838007D02*
X58534430Y-11838235D01*
X58534430Y-11838235D02*
X59334530Y-11838235D01*
X59334530Y-11838235D02*
X59334530Y-8738024D01*
X59334530Y-8738024D02*
X58534430Y-8738024D01*
X58534430Y-8738024D02*
X58534430Y-2938005D01*
X58534430Y-2938005D02*
X59334530Y-2938005D01*
X59334530Y-2938005D02*
X59334530Y162206D01*
X59334530Y162206D02*
X58534430Y162206D01*
X58534430Y162206D02*
X58534430Y1161979D01*
X58534430Y1161979D02*
X44534440Y1161979D01*
X44534440Y1161979D02*
X44534440Y162206D01*
X44534440Y162206D02*
X43735400Y162206D01*
X43735400Y162206D02*
X43735400Y-2938005D01*
X43735400Y-2938005D02*
X44534440Y-2938005D01*
X44534440Y-2938005D02*
X44534440Y-8738024D01*
X44534440Y-8738024D02*
X43735400Y-8738024D01*
X43735400Y-8738024D02*
X43735400Y-11838235D01*
X43735400Y-11838235D02*
X44534440Y-11838235D01*
X44534440Y-11838235D02*
X44534440Y-12838007D01*
X44534440Y-12838007D02*
X58534430Y-12838007D01*
X58534430Y-12838007D02*
X58534430Y-12838007D01*
X39484430Y-69988680D02*
X39484430Y-68988900D01*
X39484430Y-68988900D02*
X40284530Y-68988900D01*
X40284530Y-68988900D02*
X40284530Y-65888690D01*
X40284530Y-65888690D02*
X39484430Y-65888690D01*
X39484430Y-65888690D02*
X39484430Y-60088670D01*
X39484430Y-60088670D02*
X40284530Y-60088670D01*
X40284530Y-60088670D02*
X40284530Y-56988820D01*
X40284530Y-56988820D02*
X39484430Y-56988820D01*
X39484430Y-56988820D02*
X39484430Y-55988690D01*
X39484430Y-55988690D02*
X25484440Y-55988690D01*
X25484440Y-55988690D02*
X25484440Y-56988820D01*
X25484440Y-56988820D02*
X24685399Y-56988820D01*
X24685399Y-56988820D02*
X24685399Y-60088670D01*
X24685399Y-60088670D02*
X25484440Y-60088670D01*
X25484440Y-60088670D02*
X25484440Y-65888690D01*
X25484440Y-65888690D02*
X24685399Y-65888690D01*
X24685399Y-65888690D02*
X24685399Y-68988900D01*
X24685399Y-68988900D02*
X25484440Y-68988900D01*
X25484440Y-68988900D02*
X25484440Y-69988680D01*
X25484440Y-69988680D02*
X39484430Y-69988680D01*
X39484430Y-69988680D02*
X39484430Y-69988680D01*
X39484430Y-50938360D02*
X39484430Y-49938230D01*
X39484430Y-49938230D02*
X40284530Y-49938230D01*
X40284530Y-49938230D02*
X40284530Y-46838380D01*
X40284530Y-46838380D02*
X39484430Y-46838380D01*
X39484430Y-46838380D02*
X39484430Y-41038360D01*
X39484430Y-41038360D02*
X40284530Y-41038360D01*
X40284530Y-41038360D02*
X40284530Y-37938150D01*
X40284530Y-37938150D02*
X39484430Y-37938150D01*
X39484430Y-37938150D02*
X39484430Y-36938370D01*
X39484430Y-36938370D02*
X25484440Y-36938370D01*
X25484440Y-36938370D02*
X25484440Y-37938150D01*
X25484440Y-37938150D02*
X24685399Y-37938150D01*
X24685399Y-37938150D02*
X24685399Y-41038360D01*
X24685399Y-41038360D02*
X25484440Y-41038360D01*
X25484440Y-41038360D02*
X25484440Y-46838380D01*
X25484440Y-46838380D02*
X24685399Y-46838380D01*
X24685399Y-46838380D02*
X24685399Y-49938230D01*
X24685399Y-49938230D02*
X25484440Y-49938230D01*
X25484440Y-49938230D02*
X25484440Y-50938360D01*
X25484440Y-50938360D02*
X39484430Y-50938360D01*
X39484430Y-50938360D02*
X39484430Y-50938360D01*
X39484430Y-31887830D02*
X39484430Y-30887710D01*
X39484430Y-30887710D02*
X40284530Y-30887710D01*
X40284530Y-30887710D02*
X40284530Y-27787850D01*
X40284530Y-27787850D02*
X39484430Y-27787850D01*
X39484430Y-27787850D02*
X39484430Y-21987828D01*
X39484430Y-21987828D02*
X40284530Y-21987828D01*
X40284530Y-21987828D02*
X40284530Y-18887617D01*
X40284530Y-18887617D02*
X39484430Y-18887617D01*
X39484430Y-18887617D02*
X39484430Y-17887845D01*
X39484430Y-17887845D02*
X25484440Y-17887845D01*
X25484440Y-17887845D02*
X25484440Y-18887617D01*
X25484440Y-18887617D02*
X24685399Y-18887617D01*
X24685399Y-18887617D02*
X24685399Y-21987828D01*
X24685399Y-21987828D02*
X25484440Y-21987828D01*
X25484440Y-21987828D02*
X25484440Y-27787850D01*
X25484440Y-27787850D02*
X24685399Y-27787850D01*
X24685399Y-27787850D02*
X24685399Y-30887710D01*
X24685399Y-30887710D02*
X25484440Y-30887710D01*
X25484440Y-30887710D02*
X25484440Y-31887830D01*
X25484440Y-31887830D02*
X39484430Y-31887830D01*
X39484430Y-31887830D02*
X39484430Y-31887830D01*
X39484430Y-12838360D02*
X39484430Y-11838235D01*
X39484430Y-11838235D02*
X40284530Y-11838235D01*
X40284530Y-11838235D02*
X40284530Y-8738377D01*
X40284530Y-8738377D02*
X39484430Y-8738377D01*
X39484430Y-8738377D02*
X39484430Y-2938357D01*
X39484430Y-2938357D02*
X40284530Y-2938357D01*
X40284530Y-2938357D02*
X40284530Y161854D01*
X40284530Y161854D02*
X39484430Y161854D01*
X39484430Y161854D02*
X39484430Y1161626D01*
X39484430Y1161626D02*
X25484440Y1161626D01*
X25484440Y1161626D02*
X25484440Y161854D01*
X25484440Y161854D02*
X24685399Y161854D01*
X24685399Y161854D02*
X24685399Y-2938357D01*
X24685399Y-2938357D02*
X25484440Y-2938357D01*
X25484440Y-2938357D02*
X25484440Y-8738377D01*
X25484440Y-8738377D02*
X24685399Y-8738377D01*
X24685399Y-8738377D02*
X24685399Y-11838235D01*
X24685399Y-11838235D02*
X25484440Y-11838235D01*
X25484440Y-11838235D02*
X25484440Y-12838360D01*
X25484440Y-12838360D02*
X39484430Y-12838360D01*
X39484430Y-12838360D02*
X39484430Y-12838360D01*
X20434956Y-69990760D02*
X20434956Y-68990990D01*
X20434956Y-68990990D02*
X21235056Y-68990990D01*
X21235056Y-68990990D02*
X21235056Y-65890770D01*
X21235056Y-65890770D02*
X20434956Y-65890770D01*
X20434956Y-65890770D02*
X20434956Y-60090760D01*
X20434956Y-60090760D02*
X21235056Y-60090760D01*
X21235056Y-60090760D02*
X21235056Y-56990900D01*
X21235056Y-56990900D02*
X20434956Y-56990900D01*
X20434956Y-56990900D02*
X20434956Y-55990770D01*
X20434956Y-55990770D02*
X6434971Y-55990770D01*
X6434971Y-55990770D02*
X6434971Y-56990900D01*
X6434971Y-56990900D02*
X5635929Y-56990900D01*
X5635929Y-56990900D02*
X5635929Y-60090760D01*
X5635929Y-60090760D02*
X6434971Y-60090760D01*
X6434971Y-60090760D02*
X6434971Y-65890770D01*
X6434971Y-65890770D02*
X5635929Y-65890770D01*
X5635929Y-65890770D02*
X5635929Y-68990990D01*
X5635929Y-68990990D02*
X6434971Y-68990990D01*
X6434971Y-68990990D02*
X6434971Y-69990760D01*
X6434971Y-69990760D02*
X20434956Y-69990760D01*
X20434956Y-69990760D02*
X20434956Y-69990760D01*
X20434956Y-50940230D02*
X20434956Y-49940460D01*
X20434956Y-49940460D02*
X21235056Y-49940460D01*
X21235056Y-49940460D02*
X21235056Y-46840250D01*
X21235056Y-46840250D02*
X20434956Y-46840250D01*
X20434956Y-46840250D02*
X20434956Y-41040230D01*
X20434956Y-41040230D02*
X21235056Y-41040230D01*
X21235056Y-41040230D02*
X21235056Y-37940370D01*
X21235056Y-37940370D02*
X20434956Y-37940370D01*
X20434956Y-37940370D02*
X20434956Y-36940240D01*
X20434956Y-36940240D02*
X6434971Y-36940240D01*
X6434971Y-36940240D02*
X6434971Y-37940370D01*
X6434971Y-37940370D02*
X5635929Y-37940370D01*
X5635929Y-37940370D02*
X5635929Y-41040230D01*
X5635929Y-41040230D02*
X6434971Y-41040230D01*
X6434971Y-41040230D02*
X6434971Y-46840250D01*
X6434971Y-46840250D02*
X5635929Y-46840250D01*
X5635929Y-46840250D02*
X5635929Y-49940460D01*
X5635929Y-49940460D02*
X6434971Y-49940460D01*
X6434971Y-49940460D02*
X6434971Y-50940230D01*
X6434971Y-50940230D02*
X20434956Y-50940230D01*
X20434956Y-50940230D02*
X20434956Y-50940230D01*
X20434956Y-31889740D02*
X20434956Y-30889960D01*
X20434956Y-30889960D02*
X21235056Y-30889960D01*
X21235056Y-30889960D02*
X21235056Y-27789750D01*
X21235056Y-27789750D02*
X20434956Y-27789750D01*
X20434956Y-27789750D02*
X20434956Y-21989733D01*
X20434956Y-21989733D02*
X21235056Y-21989733D01*
X21235056Y-21989733D02*
X21235056Y-18889875D01*
X21235056Y-18889875D02*
X20434956Y-18889875D01*
X20434956Y-18889875D02*
X20434956Y-17889750D01*
X20434956Y-17889750D02*
X6434971Y-17889750D01*
X6434971Y-17889750D02*
X6434971Y-18889875D01*
X6434971Y-18889875D02*
X5635929Y-18889875D01*
X5635929Y-18889875D02*
X5635929Y-21989733D01*
X5635929Y-21989733D02*
X6434971Y-21989733D01*
X6434971Y-21989733D02*
X6434971Y-27789750D01*
X6434971Y-27789750D02*
X5635929Y-27789750D01*
X5635929Y-27789750D02*
X5635929Y-30889960D01*
X5635929Y-30889960D02*
X6434971Y-30889960D01*
X6434971Y-30889960D02*
X6434971Y-31889740D01*
X6434971Y-31889740D02*
X20434956Y-31889740D01*
X20434956Y-31889740D02*
X20434956Y-31889740D01*
X20434956Y-12840230D02*
X20434956Y-11840458D01*
X20434956Y-11840458D02*
X21235056Y-11840458D01*
X21235056Y-11840458D02*
X21235056Y-8740247D01*
X21235056Y-8740247D02*
X20434956Y-8740247D01*
X20434956Y-8740247D02*
X20434956Y-2940227D01*
X20434956Y-2940227D02*
X21235056Y-2940227D01*
X21235056Y-2940227D02*
X21235056Y159631D01*
X21235056Y159631D02*
X20434956Y159631D01*
X20434956Y159631D02*
X20434956Y1159756D01*
X20434956Y1159756D02*
X6434971Y1159756D01*
X6434971Y1159756D02*
X6434971Y159631D01*
X6434971Y159631D02*
X5635929Y159631D01*
X5635929Y159631D02*
X5635929Y-2940227D01*
X5635929Y-2940227D02*
X6434971Y-2940227D01*
X6434971Y-2940227D02*
X6434971Y-8740247D01*
X6434971Y-8740247D02*
X5635929Y-8740247D01*
X5635929Y-8740247D02*
X5635929Y-11840458D01*
X5635929Y-11840458D02*
X6434971Y-11840458D01*
X6434971Y-11840458D02*
X6434971Y-12840230D01*
X6434971Y-12840230D02*
X20434956Y-12840230D01*
X20434956Y-12840230D02*
X20434956Y-12840230D01*
X1385133Y-69991080D02*
X1385133Y-68990950D01*
X1385133Y-68990950D02*
X2185233Y-68990950D01*
X2185233Y-68990950D02*
X2185233Y-65891090D01*
X2185233Y-65891090D02*
X1385133Y-65891090D01*
X1385133Y-65891090D02*
X1385133Y-60091070D01*
X1385133Y-60091070D02*
X2185233Y-60091070D01*
X2185233Y-60091070D02*
X2185233Y-56990860D01*
X2185233Y-56990860D02*
X1385133Y-56990860D01*
X1385133Y-56990860D02*
X1385133Y-55991090D01*
X1385133Y-55991090D02*
X-12614853Y-55991090D01*
X-12614853Y-55991090D02*
X-12614853Y-56990860D01*
X-12614853Y-56990860D02*
X-13413894Y-56990860D01*
X-13413894Y-56990860D02*
X-13413894Y-60091070D01*
X-13413894Y-60091070D02*
X-12614853Y-60091070D01*
X-12614853Y-60091070D02*
X-12614853Y-65891090D01*
X-12614853Y-65891090D02*
X-13413894Y-65891090D01*
X-13413894Y-65891090D02*
X-13413894Y-68990950D01*
X-13413894Y-68990950D02*
X-12614853Y-68990950D01*
X-12614853Y-68990950D02*
X-12614853Y-69991080D01*
X-12614853Y-69991080D02*
X1385133Y-69991080D01*
X1385133Y-69991080D02*
X1385133Y-69991080D01*
X1385133Y-50940580D02*
X1385133Y-49940460D01*
X1385133Y-49940460D02*
X2185233Y-49940460D01*
X2185233Y-49940460D02*
X2185233Y-46840600D01*
X2185233Y-46840600D02*
X1385133Y-46840600D01*
X1385133Y-46840600D02*
X1385133Y-41040580D01*
X1385133Y-41040580D02*
X2185233Y-41040580D01*
X2185233Y-41040580D02*
X2185233Y-37940370D01*
X2185233Y-37940370D02*
X1385133Y-37940370D01*
X1385133Y-37940370D02*
X1385133Y-36940600D01*
X1385133Y-36940600D02*
X-12614853Y-36940600D01*
X-12614853Y-36940600D02*
X-12614853Y-37940370D01*
X-12614853Y-37940370D02*
X-13413894Y-37940370D01*
X-13413894Y-37940370D02*
X-13413894Y-41040580D01*
X-13413894Y-41040580D02*
X-12614853Y-41040580D01*
X-12614853Y-41040580D02*
X-12614853Y-46840600D01*
X-12614853Y-46840600D02*
X-13413894Y-46840600D01*
X-13413894Y-46840600D02*
X-13413894Y-49940460D01*
X-13413894Y-49940460D02*
X-12614853Y-49940460D01*
X-12614853Y-49940460D02*
X-12614853Y-50940580D01*
X-12614853Y-50940580D02*
X1385133Y-50940580D01*
X1385133Y-50940580D02*
X1385133Y-50940580D01*
X1385133Y-31890050D02*
X1385133Y-30890280D01*
X1385133Y-30890280D02*
X2185233Y-30890280D01*
X2185233Y-30890280D02*
X2185233Y-27790070D01*
X2185233Y-27790070D02*
X1385133Y-27790070D01*
X1385133Y-27790070D02*
X1385133Y-21990050D01*
X1385133Y-21990050D02*
X2185233Y-21990050D01*
X2185233Y-21990050D02*
X2185233Y-18889839D01*
X2185233Y-18889839D02*
X1385133Y-18889839D01*
X1385133Y-18889839D02*
X1385133Y-17890067D01*
X1385133Y-17890067D02*
X-12614853Y-17890067D01*
X-12614853Y-17890067D02*
X-12614853Y-18889839D01*
X-12614853Y-18889839D02*
X-13413894Y-18889839D01*
X-13413894Y-18889839D02*
X-13413894Y-21990050D01*
X-13413894Y-21990050D02*
X-12614853Y-21990050D01*
X-12614853Y-21990050D02*
X-12614853Y-27790070D01*
X-12614853Y-27790070D02*
X-13413894Y-27790070D01*
X-13413894Y-27790070D02*
X-13413894Y-30890280D01*
X-13413894Y-30890280D02*
X-12614853Y-30890280D01*
X-12614853Y-30890280D02*
X-12614853Y-31890050D01*
X-12614853Y-31890050D02*
X1385133Y-31890050D01*
X1385133Y-31890050D02*
X1385133Y-31890050D01*
X1385133Y-12840583D02*
X1385133Y-11840458D01*
X1385133Y-11840458D02*
X2185233Y-11840458D01*
X2185233Y-11840458D02*
X2185233Y-8740599D01*
X2185233Y-8740599D02*
X1385133Y-8740599D01*
X1385133Y-8740599D02*
X1385133Y-2940580D01*
X1385133Y-2940580D02*
X2185233Y-2940580D01*
X2185233Y-2940580D02*
X2185233Y159631D01*
X2185233Y159631D02*
X1385133Y159631D01*
X1385133Y159631D02*
X1385133Y1159403D01*
X1385133Y1159403D02*
X-12614853Y1159403D01*
X-12614853Y1159403D02*
X-12614853Y159631D01*
X-12614853Y159631D02*
X-13413894Y159631D01*
X-13413894Y159631D02*
X-13413894Y-2940580D01*
X-13413894Y-2940580D02*
X-12614853Y-2940580D01*
X-12614853Y-2940580D02*
X-12614853Y-8740599D01*
X-12614853Y-8740599D02*
X-13413894Y-8740599D01*
X-13413894Y-8740599D02*
X-13413894Y-11840458D01*
X-13413894Y-11840458D02*
X-12614853Y-11840458D01*
X-12614853Y-11840458D02*
X-12614853Y-12840583D01*
X-12614853Y-12840583D02*
X1385133Y-12840583D01*
X1385133Y-12840583D02*
X1385133Y-12840583D01*
X-17665219Y-69987650D02*
X-17665219Y-68987530D01*
X-17665219Y-68987530D02*
X-16865119Y-68987530D01*
X-16865119Y-68987530D02*
X-16865119Y-65887670D01*
X-16865119Y-65887670D02*
X-17665219Y-65887670D01*
X-17665219Y-65887670D02*
X-17665219Y-60087650D01*
X-17665219Y-60087650D02*
X-16865119Y-60087650D01*
X-16865119Y-60087650D02*
X-16865119Y-56987440D01*
X-16865119Y-56987440D02*
X-17665219Y-56987440D01*
X-17665219Y-56987440D02*
X-17665219Y-55987670D01*
X-17665219Y-55987670D02*
X-31665205Y-55987670D01*
X-31665205Y-55987670D02*
X-31665205Y-56987440D01*
X-31665205Y-56987440D02*
X-32464247Y-56987440D01*
X-32464247Y-56987440D02*
X-32464247Y-60087650D01*
X-32464247Y-60087650D02*
X-31665205Y-60087650D01*
X-31665205Y-60087650D02*
X-31665205Y-65887670D01*
X-31665205Y-65887670D02*
X-32464247Y-65887670D01*
X-32464247Y-65887670D02*
X-32464247Y-68987530D01*
X-32464247Y-68987530D02*
X-31665205Y-68987530D01*
X-31665205Y-68987530D02*
X-31665205Y-69987650D01*
X-31665205Y-69987650D02*
X-17665219Y-69987650D01*
X-17665219Y-69987650D02*
X-17665219Y-69987650D01*
X-17665219Y-50937120D02*
X-17665219Y-49937350D01*
X-17665219Y-49937350D02*
X-16865119Y-49937350D01*
X-16865119Y-49937350D02*
X-16865119Y-46837140D01*
X-16865119Y-46837140D02*
X-17665219Y-46837140D01*
X-17665219Y-46837140D02*
X-17665219Y-41037120D01*
X-17665219Y-41037120D02*
X-16865119Y-41037120D01*
X-16865119Y-41037120D02*
X-16865119Y-37936910D01*
X-16865119Y-37936910D02*
X-17665219Y-37936910D01*
X-17665219Y-37936910D02*
X-17665219Y-36937140D01*
X-17665219Y-36937140D02*
X-31665205Y-36937140D01*
X-31665205Y-36937140D02*
X-31665205Y-37936910D01*
X-31665205Y-37936910D02*
X-32464247Y-37936910D01*
X-32464247Y-37936910D02*
X-32464247Y-41037120D01*
X-32464247Y-41037120D02*
X-31665205Y-41037120D01*
X-31665205Y-41037120D02*
X-31665205Y-46837140D01*
X-31665205Y-46837140D02*
X-32464247Y-46837140D01*
X-32464247Y-46837140D02*
X-32464247Y-49937350D01*
X-32464247Y-49937350D02*
X-31665205Y-49937350D01*
X-31665205Y-49937350D02*
X-31665205Y-50937120D01*
X-31665205Y-50937120D02*
X-17665219Y-50937120D01*
X-17665219Y-50937120D02*
X-17665219Y-50937120D01*
X-17665219Y-31886630D02*
X-17665219Y-30886860D01*
X-17665219Y-30886860D02*
X-16865119Y-30886860D01*
X-16865119Y-30886860D02*
X-16865119Y-27786650D01*
X-16865119Y-27786650D02*
X-17665219Y-27786650D01*
X-17665219Y-27786650D02*
X-17665219Y-21986628D01*
X-17665219Y-21986628D02*
X-16865119Y-21986628D01*
X-16865119Y-21986628D02*
X-16865119Y-18886417D01*
X-16865119Y-18886417D02*
X-17665219Y-18886417D01*
X-17665219Y-18886417D02*
X-17665219Y-17886645D01*
X-17665219Y-17886645D02*
X-31665205Y-17886645D01*
X-31665205Y-17886645D02*
X-31665205Y-18886417D01*
X-31665205Y-18886417D02*
X-32464247Y-18886417D01*
X-32464247Y-18886417D02*
X-32464247Y-21986628D01*
X-32464247Y-21986628D02*
X-31665205Y-21986628D01*
X-31665205Y-21986628D02*
X-31665205Y-27786650D01*
X-31665205Y-27786650D02*
X-32464247Y-27786650D01*
X-32464247Y-27786650D02*
X-32464247Y-30886860D01*
X-32464247Y-30886860D02*
X-31665205Y-30886860D01*
X-31665205Y-30886860D02*
X-31665205Y-31886630D01*
X-31665205Y-31886630D02*
X-17665219Y-31886630D01*
X-17665219Y-31886630D02*
X-17665219Y-31886630D01*
X-17665219Y-12837125D02*
X-17665219Y-11837353D01*
X-17665219Y-11837353D02*
X-16865119Y-11837353D01*
X-16865119Y-11837353D02*
X-16865119Y-8737142D01*
X-16865119Y-8737142D02*
X-17665219Y-8737142D01*
X-17665219Y-8737142D02*
X-17665219Y-2937123D01*
X-17665219Y-2937123D02*
X-16865119Y-2937123D01*
X-16865119Y-2937123D02*
X-16865119Y163088D01*
X-16865119Y163088D02*
X-17665219Y163088D01*
X-17665219Y163088D02*
X-17665219Y1162861D01*
X-17665219Y1162861D02*
X-31665205Y1162861D01*
X-31665205Y1162861D02*
X-31665205Y163088D01*
X-31665205Y163088D02*
X-32464247Y163088D01*
X-32464247Y163088D02*
X-32464247Y-2937123D01*
X-32464247Y-2937123D02*
X-31665205Y-2937123D01*
X-31665205Y-2937123D02*
X-31665205Y-8737142D01*
X-31665205Y-8737142D02*
X-32464247Y-8737142D01*
X-32464247Y-8737142D02*
X-32464247Y-11837353D01*
X-32464247Y-11837353D02*
X-31665205Y-11837353D01*
X-31665205Y-11837353D02*
X-31665205Y-12837125D01*
X-31665205Y-12837125D02*
X-17665219Y-12837125D01*
X-17665219Y-12837125D02*
X-17665219Y-12837125D01*
X-36714866Y-69989700D02*
X-36714866Y-68989570D01*
X-36714866Y-68989570D02*
X-35914766Y-68989570D01*
X-35914766Y-68989570D02*
X-35914766Y-65889720D01*
X-35914766Y-65889720D02*
X-36714866Y-65889720D01*
X-36714866Y-65889720D02*
X-36714866Y-60089700D01*
X-36714866Y-60089700D02*
X-35914766Y-60089700D01*
X-35914766Y-60089700D02*
X-35914766Y-56989490D01*
X-35914766Y-56989490D02*
X-36714866Y-56989490D01*
X-36714866Y-56989490D02*
X-36714866Y-55989710D01*
X-36714866Y-55989710D02*
X-50714852Y-55989710D01*
X-50714852Y-55989710D02*
X-50714852Y-56989490D01*
X-50714852Y-56989490D02*
X-51513893Y-56989490D01*
X-51513893Y-56989490D02*
X-51513893Y-60089700D01*
X-51513893Y-60089700D02*
X-50714852Y-60089700D01*
X-50714852Y-60089700D02*
X-50714852Y-65889720D01*
X-50714852Y-65889720D02*
X-51513893Y-65889720D01*
X-51513893Y-65889720D02*
X-51513893Y-68989570D01*
X-51513893Y-68989570D02*
X-50714852Y-68989570D01*
X-50714852Y-68989570D02*
X-50714852Y-69989700D01*
X-50714852Y-69989700D02*
X-36714866Y-69989700D01*
X-36714866Y-69989700D02*
X-36714866Y-69989700D01*
X-36714866Y-50939210D02*
X-36714866Y-49939080D01*
X-36714866Y-49939080D02*
X-35914766Y-49939080D01*
X-35914766Y-49939080D02*
X-35914766Y-46839220D01*
X-35914766Y-46839220D02*
X-36714866Y-46839220D01*
X-36714866Y-46839220D02*
X-36714866Y-41039200D01*
X-36714866Y-41039200D02*
X-35914766Y-41039200D01*
X-35914766Y-41039200D02*
X-35914766Y-37938990D01*
X-35914766Y-37938990D02*
X-36714866Y-37938990D01*
X-36714866Y-37938990D02*
X-36714866Y-36939220D01*
X-36714866Y-36939220D02*
X-50714852Y-36939220D01*
X-50714852Y-36939220D02*
X-50714852Y-37938990D01*
X-50714852Y-37938990D02*
X-51513893Y-37938990D01*
X-51513893Y-37938990D02*
X-51513893Y-41039200D01*
X-51513893Y-41039200D02*
X-50714852Y-41039200D01*
X-50714852Y-41039200D02*
X-50714852Y-46839220D01*
X-50714852Y-46839220D02*
X-51513893Y-46839220D01*
X-51513893Y-46839220D02*
X-51513893Y-49939080D01*
X-51513893Y-49939080D02*
X-50714852Y-49939080D01*
X-50714852Y-49939080D02*
X-50714852Y-50939210D01*
X-50714852Y-50939210D02*
X-36714866Y-50939210D01*
X-36714866Y-50939210D02*
X-36714866Y-50939210D01*
X-36714866Y-31888680D02*
X-36714866Y-30888550D01*
X-36714866Y-30888550D02*
X-35914766Y-30888550D01*
X-35914766Y-30888550D02*
X-35914766Y-27788690D01*
X-35914766Y-27788690D02*
X-36714866Y-27788690D01*
X-36714866Y-27788690D02*
X-36714866Y-21988675D01*
X-36714866Y-21988675D02*
X-35914766Y-21988675D01*
X-35914766Y-21988675D02*
X-35914766Y-18888464D01*
X-35914766Y-18888464D02*
X-36714866Y-18888464D01*
X-36714866Y-18888464D02*
X-36714866Y-17888691D01*
X-36714866Y-17888691D02*
X-50714852Y-17888691D01*
X-50714852Y-17888691D02*
X-50714852Y-18888464D01*
X-50714852Y-18888464D02*
X-51513893Y-18888464D01*
X-51513893Y-18888464D02*
X-51513893Y-21988675D01*
X-51513893Y-21988675D02*
X-50714852Y-21988675D01*
X-50714852Y-21988675D02*
X-50714852Y-27788690D01*
X-50714852Y-27788690D02*
X-51513893Y-27788690D01*
X-51513893Y-27788690D02*
X-51513893Y-30888550D01*
X-51513893Y-30888550D02*
X-50714852Y-30888550D01*
X-50714852Y-30888550D02*
X-50714852Y-31888680D01*
X-50714852Y-31888680D02*
X-36714866Y-31888680D01*
X-36714866Y-31888680D02*
X-36714866Y-31888680D01*
X-36714866Y-12839207D02*
X-36714866Y-11839082D01*
X-36714866Y-11839082D02*
X-35914766Y-11839082D01*
X-35914766Y-11839082D02*
X-35914766Y-8739223D01*
X-35914766Y-8739223D02*
X-36714866Y-8739223D01*
X-36714866Y-8739223D02*
X-36714866Y-2939204D01*
X-36714866Y-2939204D02*
X-35914766Y-2939204D01*
X-35914766Y-2939204D02*
X-35914766Y161007D01*
X-35914766Y161007D02*
X-36714866Y161007D01*
X-36714866Y161007D02*
X-36714866Y1160779D01*
X-36714866Y1160779D02*
X-50714852Y1160779D01*
X-50714852Y1160779D02*
X-50714852Y161007D01*
X-50714852Y161007D02*
X-51513893Y161007D01*
X-51513893Y161007D02*
X-51513893Y-2939204D01*
X-51513893Y-2939204D02*
X-50714852Y-2939204D01*
X-50714852Y-2939204D02*
X-50714852Y-8739223D01*
X-50714852Y-8739223D02*
X-51513893Y-8739223D01*
X-51513893Y-8739223D02*
X-51513893Y-11839082D01*
X-51513893Y-11839082D02*
X-50714852Y-11839082D01*
X-50714852Y-11839082D02*
X-50714852Y-12839207D01*
X-50714852Y-12839207D02*
X-36714866Y-12839207D01*
X-36714866Y-12839207D02*
X-36714866Y-12839207D01*
X-55764689Y-69989880D02*
X-55764689Y-68990100D01*
X-55764689Y-68990100D02*
X-54964589Y-68990100D01*
X-54964589Y-68990100D02*
X-54964589Y-65889890D01*
X-54964589Y-65889890D02*
X-55764689Y-65889890D01*
X-55764689Y-65889890D02*
X-55764689Y-60089870D01*
X-55764689Y-60089870D02*
X-54964589Y-60089870D01*
X-54964589Y-60089870D02*
X-54964589Y-56990010D01*
X-54964589Y-56990010D02*
X-55764689Y-56990010D01*
X-55764689Y-56990010D02*
X-55764689Y-55989890D01*
X-55764689Y-55989890D02*
X-69764675Y-55989890D01*
X-69764675Y-55989890D02*
X-69764675Y-56990010D01*
X-69764675Y-56990010D02*
X-70563717Y-56990010D01*
X-70563717Y-56990010D02*
X-70563717Y-60089870D01*
X-70563717Y-60089870D02*
X-69764675Y-60089870D01*
X-69764675Y-60089870D02*
X-69764675Y-65889890D01*
X-69764675Y-65889890D02*
X-70563717Y-65889890D01*
X-70563717Y-65889890D02*
X-70563717Y-68990100D01*
X-70563717Y-68990100D02*
X-69764675Y-68990100D01*
X-69764675Y-68990100D02*
X-69764675Y-69989880D01*
X-69764675Y-69989880D02*
X-55764689Y-69989880D01*
X-55764689Y-69989880D02*
X-55764689Y-69989880D01*
X-55764689Y-50939380D02*
X-55764689Y-49939610D01*
X-55764689Y-49939610D02*
X-54964589Y-49939610D01*
X-54964589Y-49939610D02*
X-54964589Y-46839400D01*
X-54964589Y-46839400D02*
X-55764689Y-46839400D01*
X-55764689Y-46839400D02*
X-55764689Y-41039380D01*
X-55764689Y-41039380D02*
X-54964589Y-41039380D01*
X-54964589Y-41039380D02*
X-54964589Y-37939520D01*
X-54964589Y-37939520D02*
X-55764689Y-37939520D01*
X-55764689Y-37939520D02*
X-55764689Y-36939400D01*
X-55764689Y-36939400D02*
X-69764675Y-36939400D01*
X-69764675Y-36939400D02*
X-69764675Y-37939520D01*
X-69764675Y-37939520D02*
X-70563717Y-37939520D01*
X-70563717Y-37939520D02*
X-70563717Y-41039380D01*
X-70563717Y-41039380D02*
X-69764675Y-41039380D01*
X-69764675Y-41039380D02*
X-69764675Y-46839400D01*
X-69764675Y-46839400D02*
X-70563717Y-46839400D01*
X-70563717Y-46839400D02*
X-70563717Y-49939610D01*
X-70563717Y-49939610D02*
X-69764675Y-49939610D01*
X-69764675Y-49939610D02*
X-69764675Y-50939380D01*
X-69764675Y-50939380D02*
X-55764689Y-50939380D01*
X-55764689Y-50939380D02*
X-55764689Y-50939380D01*
X-55764689Y-31888850D02*
X-55764689Y-30889080D01*
X-55764689Y-30889080D02*
X-54964589Y-30889080D01*
X-54964589Y-30889080D02*
X-54964589Y-27788870D01*
X-54964589Y-27788870D02*
X-55764689Y-27788870D01*
X-55764689Y-27788870D02*
X-55764689Y-21988851D01*
X-55764689Y-21988851D02*
X-54964589Y-21988851D01*
X-54964589Y-21988851D02*
X-54964589Y-18888993D01*
X-54964589Y-18888993D02*
X-55764689Y-18888993D01*
X-55764689Y-18888993D02*
X-55764689Y-17888868D01*
X-55764689Y-17888868D02*
X-69764675Y-17888868D01*
X-69764675Y-17888868D02*
X-69764675Y-18888993D01*
X-69764675Y-18888993D02*
X-70563717Y-18888993D01*
X-70563717Y-18888993D02*
X-70563717Y-21988851D01*
X-70563717Y-21988851D02*
X-69764675Y-21988851D01*
X-69764675Y-21988851D02*
X-69764675Y-27788870D01*
X-69764675Y-27788870D02*
X-70563717Y-27788870D01*
X-70563717Y-27788870D02*
X-70563717Y-30889080D01*
X-70563717Y-30889080D02*
X-69764675Y-30889080D01*
X-69764675Y-30889080D02*
X-69764675Y-31888850D01*
X-69764675Y-31888850D02*
X-55764689Y-31888850D01*
X-55764689Y-31888850D02*
X-55764689Y-31888850D01*
X-55764689Y-12839383D02*
X-55764689Y-11839611D01*
X-55764689Y-11839611D02*
X-54964589Y-11839611D01*
X-54964589Y-11839611D02*
X-54964589Y-8739400D01*
X-54964589Y-8739400D02*
X-55764689Y-8739400D01*
X-55764689Y-8739400D02*
X-55764689Y-2939381D01*
X-55764689Y-2939381D02*
X-54964589Y-2939381D01*
X-54964589Y-2939381D02*
X-54964589Y160478D01*
X-54964589Y160478D02*
X-55764689Y160478D01*
X-55764689Y160478D02*
X-55764689Y1160603D01*
X-55764689Y1160603D02*
X-69764675Y1160603D01*
X-69764675Y1160603D02*
X-69764675Y160478D01*
X-69764675Y160478D02*
X-70563717Y160478D01*
X-70563717Y160478D02*
X-70563717Y-2939381D01*
X-70563717Y-2939381D02*
X-69764675Y-2939381D01*
X-69764675Y-2939381D02*
X-69764675Y-8739400D01*
X-69764675Y-8739400D02*
X-70563717Y-8739400D01*
X-70563717Y-8739400D02*
X-70563717Y-11839611D01*
X-70563717Y-11839611D02*
X-69764675Y-11839611D01*
X-69764675Y-11839611D02*
X-69764675Y-12839383D01*
X-69764675Y-12839383D02*
X-55764689Y-12839383D01*
X-55764689Y-12839383D02*
X-55764689Y-12839383D01*
M02*
